<svg width="1208" height="192" viewBox="0 0 1208 192" fill="none" xmlns="http://www.w3.org/2000/svg">
<rect width="1208" height="192" fill="white"/>
<path d="M53.8849 49.3622H51.2287C51.1529 48.9266 51.0133 48.5407 50.8097 48.2045C50.6061 47.8636 50.3527 47.5748 50.0497 47.3381C49.7467 47.1013 49.401 46.9238 49.0128 46.8054C48.6293 46.6823 48.215 46.6207 47.7699 46.6207C46.9792 46.6207 46.2784 46.8196 45.6676 47.2173C45.0568 47.6103 44.5786 48.188 44.233 48.9503C43.8873 49.7079 43.7145 50.6335 43.7145 51.7273C43.7145 52.84 43.8873 53.7775 44.233 54.5398C44.5833 55.2973 45.0616 55.8703 45.6676 56.2585C46.2784 56.642 46.9768 56.8338 47.7628 56.8338C48.1984 56.8338 48.6056 56.777 48.9844 56.6634C49.3679 56.545 49.7112 56.3722 50.0142 56.1449C50.322 55.9176 50.58 55.6383 50.7884 55.3068C51.0014 54.9754 51.1482 54.5966 51.2287 54.1705L53.8849 54.1847C53.7855 54.8759 53.5701 55.5246 53.2386 56.1307C52.9119 56.7367 52.4834 57.2718 51.9531 57.7358C51.4228 58.1951 50.8026 58.5549 50.0923 58.8153C49.3821 59.071 48.5938 59.1989 47.7273 59.1989C46.4489 59.1989 45.3078 58.9029 44.304 58.3111C43.3002 57.7192 42.5095 56.8646 41.9318 55.7472C41.3542 54.6297 41.0653 53.2898 41.0653 51.7273C41.0653 50.16 41.3565 48.8201 41.9389 47.7074C42.5213 46.59 43.3144 45.7353 44.3182 45.1435C45.322 44.5516 46.4583 44.2557 47.7273 44.2557C48.5369 44.2557 49.2898 44.3693 49.9858 44.5966C50.6818 44.8239 51.3021 45.1577 51.8466 45.598C52.3911 46.0336 52.8385 46.5687 53.1889 47.2031C53.544 47.8329 53.776 48.5526 53.8849 49.3622ZM58.7553 52.608V59H56.1843V44.4545H58.6985V49.9446H58.8263C59.082 49.3291 59.4774 48.8437 60.0124 48.4886C60.5522 48.1288 61.2388 47.9489 62.0721 47.9489C62.8297 47.9489 63.4902 48.1075 64.0536 48.4247C64.6171 48.742 65.0527 49.206 65.3604 49.8168C65.6729 50.4276 65.8292 51.1733 65.8292 52.054V59H63.2582V52.4517C63.2582 51.7178 63.0688 51.1473 62.69 50.7401C62.3159 50.3281 61.7904 50.1222 61.1133 50.1222C60.6587 50.1222 60.2515 50.2216 59.8917 50.4205C59.5366 50.6146 59.2572 50.8963 59.0536 51.2656C58.8548 51.6349 58.7553 52.0824 58.7553 52.608ZM71.5891 59.2202C70.8978 59.2202 70.2752 59.0971 69.7212 58.8509C69.172 58.5999 68.7364 58.2306 68.4144 57.7429C68.0972 57.2552 67.9386 56.6539 67.9386 55.9389C67.9386 55.3234 68.0522 54.8144 68.2795 54.4119C68.5067 54.0095 68.8169 53.6875 69.2099 53.446C69.6029 53.2045 70.0456 53.0223 70.538 52.8991C71.0352 52.7713 71.5489 52.679 72.0792 52.6222C72.7184 52.5559 73.2369 52.4967 73.6346 52.4446C74.0323 52.3878 74.3211 52.3026 74.5011 52.1889C74.6857 52.0705 74.7781 51.8883 74.7781 51.642V51.5994C74.7781 51.0644 74.6194 50.6501 74.3022 50.3565C73.985 50.063 73.5281 49.9162 72.9315 49.9162C72.3017 49.9162 71.8022 50.0535 71.4329 50.3281C71.0683 50.6027 70.8221 50.9271 70.6942 51.3011L68.2937 50.9602C68.4831 50.2973 68.7956 49.7434 69.2312 49.2983C69.6668 48.8485 70.1995 48.5123 70.8292 48.2898C71.4589 48.0625 72.1549 47.9489 72.9173 47.9489C73.4428 47.9489 73.966 48.0104 74.4869 48.1335C75.0077 48.2566 75.4835 48.4602 75.9144 48.7443C76.3453 49.0237 76.6909 49.4048 76.9513 49.8878C77.2165 50.3707 77.3491 50.9744 77.3491 51.6989V59H74.8775V57.5014H74.7923C74.636 57.8045 74.4158 58.0885 74.1317 58.3537C73.8524 58.6141 73.4996 58.8248 73.0735 58.9858C72.6521 59.142 72.1573 59.2202 71.5891 59.2202ZM72.2567 57.331C72.7728 57.331 73.2203 57.2292 73.5991 57.0256C73.9779 56.8172 74.2691 56.5426 74.4727 56.2017C74.681 55.8608 74.7852 55.4891 74.7852 55.0866V53.8011C74.7047 53.8674 74.5674 53.929 74.3732 53.9858C74.1838 54.0426 73.9708 54.0923 73.734 54.1349C73.4973 54.1776 73.2629 54.2154 73.0309 54.2486C72.7989 54.2817 72.5977 54.3101 72.4272 54.3338C72.0437 54.3859 71.7004 54.4711 71.3974 54.5895C71.0943 54.7079 70.8552 54.8736 70.68 55.0866C70.5049 55.295 70.4173 55.5649 70.4173 55.8963C70.4173 56.3698 70.5901 56.7273 70.9357 56.9688C71.2814 57.2102 71.7217 57.331 72.2567 57.331ZM79.9343 59V48.0909H82.4272V49.9091H82.5408C82.7397 49.2794 83.0806 48.794 83.5636 48.4531C84.0513 48.1075 84.6076 47.9347 85.2326 47.9347C85.3746 47.9347 85.5333 47.9418 85.7085 47.956C85.8884 47.9654 86.0375 47.982 86.1559 48.0057V50.3707C86.047 50.3329 85.8742 50.2997 85.6374 50.2713C85.4054 50.2382 85.1805 50.2216 84.9627 50.2216C84.494 50.2216 84.0726 50.3234 83.6985 50.527C83.3292 50.7259 83.038 51.0028 82.8249 51.358C82.6119 51.7131 82.5053 52.1226 82.5053 52.5866V59H79.9343ZM93.8974 48.0909V50.0795H87.6261V48.0909H93.8974ZM89.1744 45.4773H91.7454V55.7188C91.7454 56.0644 91.7975 56.3295 91.9016 56.5142C92.0105 56.6941 92.1526 56.8172 92.3278 56.8835C92.503 56.9498 92.6971 56.983 92.9102 56.983C93.0711 56.983 93.2179 56.9711 93.3505 56.9474C93.4878 56.9238 93.592 56.9025 93.663 56.8835L94.0962 58.8935C93.9589 58.9408 93.7624 58.9929 93.5067 59.0497C93.2558 59.1065 92.948 59.1397 92.5835 59.1491C91.9395 59.1681 91.3595 59.071 90.8434 58.858C90.3273 58.6402 89.9177 58.304 89.6147 57.8494C89.3164 57.3949 89.1696 56.8267 89.1744 56.1449V45.4773ZM104.513 50.9744L102.17 51.2301C102.103 50.9934 101.987 50.7708 101.822 50.5625C101.661 50.3542 101.443 50.1861 101.168 50.0582C100.894 49.9304 100.558 49.8665 100.16 49.8665C99.6248 49.8665 99.175 49.9825 98.8104 50.2145C98.4505 50.4465 98.273 50.7472 98.2777 51.1165C98.273 51.4337 98.389 51.6918 98.6257 51.8906C98.8672 52.0895 99.2649 52.2528 99.8189 52.3807L101.68 52.7784C102.712 53.0009 103.479 53.3537 103.981 53.8366C104.487 54.3196 104.743 54.9517 104.748 55.733C104.743 56.4195 104.542 57.0256 104.144 57.5511C103.751 58.072 103.204 58.4792 102.504 58.7727C101.803 59.0663 100.998 59.2131 100.089 59.2131C98.7536 59.2131 97.6787 58.9337 96.8643 58.375C96.05 57.8116 95.5646 57.0279 95.4084 56.0241L97.9155 55.7827C98.0291 56.2751 98.2706 56.6468 98.6399 56.8977C99.0092 57.1487 99.4898 57.2741 100.082 57.2741C100.692 57.2741 101.183 57.1487 101.552 56.8977C101.926 56.6468 102.113 56.3366 102.113 55.9673C102.113 55.6548 101.992 55.3968 101.751 55.1932C101.514 54.9896 101.145 54.8333 100.643 54.7244L98.782 54.3338C97.7356 54.116 96.9614 53.7491 96.4595 53.233C95.9576 52.7121 95.709 52.054 95.7138 51.2585C95.709 50.5862 95.8913 50.0038 96.2607 49.5114C96.6347 49.0142 97.1532 48.6307 97.8161 48.3608C98.4837 48.0862 99.2531 47.9489 100.124 47.9489C101.403 47.9489 102.409 48.2211 103.143 48.7656C103.881 49.3101 104.338 50.0464 104.513 50.9744Z" fill="black"/>
<path d="M47 92C47 92.9889 47.2933 93.9556 47.8427 94.7779C48.3921 95.6001 49.173 96.241 50.0866 96.6194C51.0003 96.9978 52.0056 97.0969 52.9755 96.9039C53.9454 96.711 54.8363 96.2348 55.5356 95.5355C56.2348 94.8363 56.711 93.9454 56.904 92.9755C57.0969 92.0055 56.9979 91.0002 56.6194 90.0866C56.241 89.173 55.6001 88.3921 54.7779 87.8427C53.9556 87.2932 52.9889 87 52 87M46.29 98.957C47.4052 99.8723 48.7241 100.506 50.1355 100.805C51.5469 101.104 53.0095 101.059 54.3999 100.674C55.7904 100.289 57.0679 99.5759 58.1249 98.594C59.182 97.6122 59.9874 96.3906 60.4735 95.0322C60.9596 93.6739 61.112 92.2186 60.9179 90.789C60.7237 89.3595 60.1888 87.9975 59.3581 86.818C58.5275 85.6384 57.4254 84.6759 56.1448 84.0114C54.8643 83.3469 53.4427 83.0001 52 83M51 92C51 92.2652 51.1054 92.5196 51.2929 92.7071C51.4805 92.8946 51.7348 93 52 93C52.2653 93 52.5196 92.8946 52.7071 92.7071C52.8947 92.5196 53 92.2652 53 92C53 91.7348 52.8947 91.4804 52.7071 91.2929C52.5196 91.1054 52.2653 91 52 91C51.7348 91 51.4805 91.1054 51.2929 91.2929C51.1054 91.4804 51 91.7348 51 92Z" stroke="black" stroke-width="2" stroke-linecap="round" stroke-linejoin="round"/>
<path d="M104.924 91.132C104.752 90.1581 104.296 89.257 103.612 88.5426C102.928 87.8282 102.048 87.3326 101.082 87.1185C100.117 86.9044 99.1096 86.9814 98.188 87.3398C97.2663 87.6982 96.4715 88.3218 95.9043 89.1319C95.337 89.9419 95.0227 90.902 95.0011 91.8906C94.9795 92.8793 95.2515 93.8522 95.7828 94.6863C96.3142 95.5203 97.0809 96.1781 97.986 96.5764C98.8912 96.9747 99.8941 97.0957 100.868 96.924M91 92C91 93.78 91.5278 95.5201 92.5168 97.0001C93.5057 98.4802 94.9113 99.6337 96.5558 100.315C98.2004 100.996 100.01 101.174 101.756 100.827C103.502 100.48 105.105 99.6226 106.364 98.364C107.623 97.1053 108.48 95.5016 108.827 93.7558C109.174 92.01 108.996 90.2004 108.315 88.5558C107.634 86.9113 106.48 85.5057 105 84.5168C103.52 83.5278 101.78 83 100 83M99 92C99 92.2652 99.1054 92.5196 99.2929 92.7071C99.4804 92.8946 99.7348 93 100 93C100.265 93 100.52 92.8946 100.707 92.7071C100.895 92.5196 101 92.2652 101 92C101 91.7348 100.895 91.4804 100.707 91.2929C100.52 91.1054 100.265 91 100 91C99.7348 91 99.4804 91.1054 99.2929 91.2929C99.1054 91.4804 99 91.7348 99 92Z" stroke="black" stroke-width="2" stroke-linecap="round" stroke-linejoin="round"/>
<path d="M140 92L143 88L147 90L152 84L156 88M140 99L144 93L148 95L152 90L156 94V99H140Z" stroke="black" stroke-width="2" stroke-linecap="round" stroke-linejoin="round"/>
<path d="M188 99H204M188 95L192 89L196 91L200 86L204 90V95H188Z" stroke="black" stroke-width="2" stroke-linecap="round" stroke-linejoin="round"/>
<path d="M250 101V87M250 87L247 90M250 87L253 90M241 95L244 92M244 92L247 95M244 92V101M235 101H253M235 86L238 83M238 83L241 86M238 83V101" stroke="black" stroke-width="2" stroke-linecap="round" stroke-linejoin="round"/>
<path d="M283 98H297M297 98L294 95M297 98L294 101M289 89L292 92M292 92L289 95M292 92H283M283 83V101M298 83L301 86M301 86L298 89M301 86H283" stroke="black" stroke-width="2" stroke-linecap="round" stroke-linejoin="round"/>
<path d="M337 99V93C337 92.7348 336.895 92.4804 336.707 92.2929C336.52 92.1054 336.265 92 336 92H332C331.735 92 331.48 92.1054 331.293 92.2929C331.105 92.4804 331 92.7348 331 93V99C331 99.2652 331.105 99.5196 331.293 99.7071C331.48 99.8946 331.735 100 332 100M337 99C337 99.2652 336.895 99.5196 336.707 99.7071C336.52 99.8946 336.265 100 336 100H332M337 99C337 99.2652 337.105 99.5196 337.293 99.7071C337.48 99.8946 337.735 100 338 100H342C342.265 100 342.52 99.8946 342.707 99.7071C342.895 99.5196 343 99.2652 343 99M337 99V89M332 100H346M340 88H342C342.265 88 342.52 88.1054 342.707 88.2929C342.895 88.4804 343 88.7348 343 89V91V85C343 84.7348 343.105 84.4804 343.293 84.2929C343.48 84.1054 343.735 84 344 84H348C348.265 84 348.52 84.1054 348.707 84.2929C348.895 84.4804 349 84.7348 349 85V97M343 95V99M343 99C343 99.2652 343.105 99.5196 343.293 99.7071C343.48 99.8946 343.735 100 344 100H348M331 83L349 101" stroke="black" stroke-width="2" stroke-linecap="round" stroke-linejoin="round"/>
<path d="M385 99V93C385 92.7348 384.895 92.4804 384.707 92.2929C384.52 92.1054 384.265 92 384 92H380C379.735 92 379.48 92.1054 379.293 92.2929C379.105 92.4804 379 92.7348 379 93V99C379 99.2652 379.105 99.5196 379.293 99.7071C379.48 99.8946 379.735 100 380 100M385 99C385 99.2652 384.895 99.5196 384.707 99.7071C384.52 99.8946 384.265 100 384 100H380M385 99C385 99.2652 385.105 99.5196 385.293 99.7071C385.48 99.8946 385.735 100 386 100H390C390.265 100 390.52 99.8946 390.707 99.7071C390.895 99.5196 391 99.2652 391 99M385 99V89C385 88.7348 385.105 88.4804 385.293 88.2929C385.48 88.1054 385.735 88 386 88H390C390.265 88 390.52 88.1054 390.707 88.2929C390.895 88.4804 391 88.7348 391 89V99M380 100H394M391 99C391 99.2652 391.105 99.5196 391.293 99.7071C391.48 99.8946 391.735 100 392 100H396C396.265 100 396.52 99.8946 396.707 99.7071C396.895 99.5196 397 99.2652 397 99V85C397 84.7348 396.895 84.4804 396.707 84.2929C396.52 84.1054 396.265 84 396 84H392C391.735 84 391.48 84.1054 391.293 84.2929C391.105 84.4804 391 84.7348 391 85V99Z" stroke="black" stroke-width="2" stroke-linecap="round" stroke-linejoin="round"/>
<path d="M427 96C427 96.7956 427.316 97.5587 427.879 98.1213C428.441 98.6839 429.204 99 430 99C430.796 99 431.559 98.6839 432.121 98.1213C432.684 97.5587 433 96.7956 433 96C433 95.2044 432.684 94.4413 432.121 93.8787C431.559 93.3161 430.796 93 430 93C429.204 93 428.441 93.3161 427.879 93.8787C427.316 94.4413 427 95.2044 427 96Z" stroke="black" stroke-width="2" stroke-linecap="round" stroke-linejoin="round"/>
<path d="M438 99C438 99.5304 438.211 100.039 438.586 100.414C438.961 100.789 439.47 101 440 101C440.53 101 441.039 100.789 441.414 100.414C441.789 100.039 442 99.5304 442 99C442 98.4696 441.789 97.9609 441.414 97.5858C441.039 97.2107 440.53 97 440 97C439.47 97 438.961 97.2107 438.586 97.5858C438.211 97.9609 438 98.4696 438 99Z" stroke="black" stroke-width="2" stroke-linecap="round" stroke-linejoin="round"/>
<path d="M434 87.5C434 88.6935 434.474 89.8381 435.318 90.682C436.162 91.5259 437.307 92 438.5 92C439.693 92 440.838 91.5259 441.682 90.682C442.526 89.8381 443 88.6935 443 87.5C443 86.3065 442.526 85.1619 441.682 84.318C440.838 83.4741 439.693 83 438.5 83C437.307 83 436.162 83.4741 435.318 84.318C434.474 85.1619 434 86.3065 434 87.5Z" stroke="black" stroke-width="2" stroke-linecap="round" stroke-linejoin="round"/>
<path d="M478 84V86M478 91V100M484 84V94M484 99V100M490 84V85M490 91V100M476 87C476 86.7348 476.105 86.4804 476.293 86.2929C476.48 86.1054 476.735 86 477 86H479C479.265 86 479.52 86.1054 479.707 86.2929C479.895 86.4804 480 86.7348 480 87V90C480 90.2652 479.895 90.5196 479.707 90.7071C479.52 90.8946 479.265 91 479 91H477C476.735 91 476.48 90.8946 476.293 90.7071C476.105 90.5196 476 90.2652 476 90V87ZM482 95C482 94.7348 482.105 94.4804 482.293 94.2929C482.48 94.1054 482.735 94 483 94H485C485.265 94 485.52 94.1054 485.707 94.2929C485.895 94.4804 486 94.7348 486 95V98C486 98.2652 485.895 98.5196 485.707 98.7071C485.52 98.8946 485.265 99 485 99H483C482.735 99 482.48 98.8946 482.293 98.7071C482.105 98.5196 482 98.2652 482 98V95ZM488 86C488 85.7348 488.105 85.4804 488.293 85.2929C488.48 85.1054 488.735 85 489 85H491C491.265 85 491.52 85.1054 491.707 85.2929C491.895 85.4804 492 85.7348 492 86V90C492 90.2652 491.895 90.5196 491.707 90.7071C491.52 90.8946 491.265 91 491 91H489C488.735 91 488.48 90.8946 488.293 90.7071C488.105 90.5196 488 90.2652 488 90V86Z" stroke="black" stroke-width="2" stroke-linecap="round" stroke-linejoin="round"/>
<path d="M524 89.5C524 90.9587 524.579 92.3576 525.611 93.3891C526.642 94.4205 528.041 95 529.5 95C530.959 95 532.358 94.4205 533.389 93.3891C534.421 92.3576 535 90.9587 535 89.5C535 88.0413 534.421 86.6424 533.389 85.6109C532.358 84.5795 530.959 84 529.5 84C528.041 84 526.642 84.5795 525.611 85.6109C524.579 86.6424 524 88.0413 524 89.5Z" stroke="black" stroke-width="2" stroke-linecap="round" stroke-linejoin="round"/>
<path d="M529 94.5C529 95.9587 529.579 97.3576 530.611 98.3891C531.642 99.4205 533.041 100 534.5 100C535.959 100 537.358 99.4205 538.389 98.3891C539.421 97.3576 540 95.9587 540 94.5C540 93.0413 539.421 91.6424 538.389 90.6109C537.358 89.5795 535.959 89 534.5 89C533.041 89 531.642 89.5795 530.611 90.6109C529.579 91.6424 529 93.0413 529 94.5Z" stroke="black" stroke-width="2" stroke-linecap="round" stroke-linejoin="round"/>
<path d="M580 83V88M580 83C581.182 83 582.352 83.2328 583.444 83.6851C584.536 84.1374 585.528 84.8003 586.364 85.636C587.2 86.4718 587.863 87.4639 588.315 88.5558C588.767 89.6478 589 90.8181 589 92M580 83C578.818 83 577.648 83.2328 576.556 83.6851C575.464 84.1374 574.472 84.8003 573.636 85.636C572.8 86.4718 572.137 87.4639 571.685 88.5558C571.233 89.6478 571 90.8181 571 92C571 93.1819 571.233 94.3522 571.685 95.4442C572.137 96.5361 572.8 97.5282 573.636 98.364C574.472 99.1997 575.464 99.8626 576.556 100.315C577.648 100.767 578.818 101 580 101C581.182 101 582.352 100.767 583.444 100.315C584.536 99.8626 585.528 99.1997 586.364 98.364C587.2 97.5282 587.863 96.5361 588.315 95.4442C588.767 94.3522 589 93.1819 589 92M580 88C581.061 88 582.078 88.4214 582.828 89.1716C583.579 89.9217 584 90.9391 584 92M580 88C578.939 88 577.922 88.4214 577.172 89.1716C576.421 89.9217 576 90.9391 576 92C576 93.0609 576.421 94.0783 577.172 94.8284C577.922 95.5786 578.939 96 580 96C581.061 96 582.078 95.5786 582.828 94.8284C583.579 94.0783 584 93.0609 584 92M584 92H589" stroke="black" stroke-width="2" stroke-linecap="round" stroke-linejoin="round"/>
<path d="M628 83V88M628 83C629.182 83 630.352 83.2328 631.444 83.6851C632.536 84.1374 633.528 84.8003 634.364 85.636C635.2 86.4718 635.863 87.4639 636.315 88.5558C636.767 89.6478 637 90.8181 637 92M628 83C626.818 83 625.648 83.2328 624.556 83.6851C623.464 84.1374 622.472 84.8003 621.636 85.636C620.8 86.4718 620.137 87.4639 619.685 88.5558C619.233 89.6478 619 90.8181 619 92C619 93.1819 619.233 94.3522 619.685 95.4442C620.137 96.5361 620.8 97.5282 621.636 98.364C622.472 99.1997 623.464 99.8626 624.556 100.315C625.648 100.767 626.818 101 628 101C629.182 101 630.352 100.767 631.444 100.315C632.536 99.8626 633.528 99.1997 634.364 98.364C635.2 97.5282 635.863 96.5361 636.315 95.4442C636.767 94.3522 637 93.1819 637 92M628 88C629.061 88 630.078 88.4214 630.828 89.1716C631.579 89.9217 632 90.9391 632 92M628 88C626.939 88 625.922 88.4214 625.172 89.1716C624.421 89.9217 624 90.9391 624 92C624 93.0609 624.421 94.0783 625.172 94.8284C625.922 95.5786 626.939 96 628 96C629.061 96 630.078 95.5786 630.828 94.8284C631.579 94.0783 632 93.0609 632 92M632 92H637M624.929 94.582L621.5 97.5" stroke="black" stroke-width="2" stroke-linecap="round" stroke-linejoin="round"/>
<path d="M672.848 94.667L669.5 97.5M676 83V88M676 83C677.182 83 678.352 83.2328 679.444 83.6851C680.536 84.1374 681.528 84.8003 682.364 85.636C683.2 86.4718 683.863 87.4639 684.315 88.5558C684.767 89.6478 685 90.8181 685 92M676 83C674.818 83 673.648 83.2328 672.556 83.6851C671.464 84.1374 670.472 84.8003 669.636 85.636C668.8 86.4718 668.137 87.4639 667.685 88.5558C667.233 89.6478 667 90.8181 667 92C667 93.1819 667.233 94.3522 667.685 95.4442C668.137 96.5361 668.8 97.5282 669.636 98.364C670.472 99.1997 671.464 99.8626 672.556 100.315C673.648 100.767 674.818 101 676 101C677.182 101 678.352 100.767 679.444 100.315C680.536 99.8626 681.528 99.1997 682.364 98.364C683.2 97.5282 683.863 96.5361 684.315 95.4442C684.767 94.3522 685 93.1819 685 92M676 88C677.061 88 678.078 88.4214 678.828 89.1716C679.579 89.9217 680 90.9391 680 92M676 88C674.939 88 673.922 88.4214 673.172 89.1716C672.421 89.9217 672 90.9391 672 92C672 93.0609 672.421 94.0783 673.172 94.8284C673.922 95.5786 674.939 96 676 96C677.061 96 678.078 95.5786 678.828 94.8284C679.579 94.0783 680 93.0609 680 92M680 92H685M678.219 95.328L681 99.5" stroke="black" stroke-width="2" stroke-linecap="round" stroke-linejoin="round"/>
<path d="M722 83.2C720.436 83.5626 718.997 84.3372 717.833 85.4433C716.669 86.5495 715.822 87.9469 715.38 89.4907C714.938 91.0344 714.917 92.6683 715.32 94.2229C715.722 95.7774 716.533 97.196 717.669 98.3314C718.804 99.4669 720.223 100.278 721.777 100.68C723.332 101.083 724.966 101.062 726.509 100.62C728.053 100.178 729.45 99.3311 730.557 98.1671C731.663 97.0031 732.437 95.5643 732.8 94C732.8 93.7348 732.695 93.4804 732.507 93.2929C732.32 93.1053 732.065 93 731.8 93H728C727.818 93.699 727.455 94.3376 726.947 94.8511C726.439 95.3646 725.805 95.7348 725.108 95.9243C724.411 96.1138 723.676 96.1159 722.978 95.9302C722.28 95.7446 721.644 95.3778 721.133 94.8671C720.622 94.3564 720.255 93.7198 720.07 93.0219C719.884 92.3239 719.886 91.5892 720.076 90.8923C720.265 90.1953 720.635 89.5608 721.149 89.0529C721.662 88.545 722.301 88.1818 723 88V84C722.988 83.8815 722.952 83.7667 722.895 83.6622C722.837 83.5576 722.76 83.4655 722.667 83.3911C722.574 83.3166 722.467 83.2614 722.353 83.2286C722.238 83.1958 722.118 83.1861 722 83.2Z" stroke="black" stroke-width="2" stroke-linecap="round" stroke-linejoin="round"/>
<path d="M727 83.5C728.27 83.9471 729.423 84.6733 730.375 85.6251C731.327 86.577 732.053 87.7303 732.5 89H728C727.693 88.6409 727.359 88.3066 727 88V83.5Z" stroke="black" stroke-width="2" stroke-linecap="round" stroke-linejoin="round"/>
<path d="M763 83V101H781M781 83L775 84.5M774.113 86.65L776.884 90.345M776 92.5L771 94.5M767 95C767 95.5304 767.211 96.0391 767.586 96.4142C767.961 96.7893 768.47 97 769 97C769.53 97 770.039 96.7893 770.414 96.4142C770.789 96.0391 771 95.5304 771 95C771 94.4696 770.789 93.9609 770.414 93.5858C770.039 93.2107 769.53 93 769 93C768.47 93 767.961 93.2107 767.586 93.5858C767.211 93.9609 767 94.4696 767 95ZM771 85C771 85.5304 771.211 86.0391 771.586 86.4142C771.961 86.7893 772.47 87 773 87C773.53 87 774.039 86.7893 774.414 86.4142C774.789 86.0391 775 85.5304 775 85C775 84.4696 774.789 83.9609 774.414 83.5858C774.039 83.2107 773.53 83 773 83C772.47 83 771.961 83.2107 771.586 83.5858C771.211 83.9609 771 84.4696 771 85ZM776 92C776 92.5304 776.211 93.0391 776.586 93.4142C776.961 93.7893 777.47 94 778 94C778.53 94 779.039 93.7893 779.414 93.4142C779.789 93.0391 780 92.5304 780 92C780 91.4696 779.789 90.9609 779.414 90.5858C779.039 90.2107 778.53 90 778 90C777.47 90 776.961 90.2107 776.586 90.5858C776.211 90.9609 776 91.4696 776 92Z" stroke="black" stroke-width="2" stroke-linecap="round" stroke-linejoin="round"/>
<path d="M815 87C815 87.5304 814.789 88.0391 814.414 88.4142C814.039 88.7893 813.53 89 813 89C812.47 89 811.961 88.7893 811.586 88.4142C811.211 88.0391 811 87.5304 811 87C811 86.4696 811.211 85.9609 811.586 85.5858C811.961 85.2107 812.47 85 813 85C813.53 85 814.039 85.2107 814.414 85.5858C814.789 85.9609 815 86.4696 815 87ZM815 87L823 86M823 86C823 86.7956 823.316 87.5587 823.879 88.1213C824.441 88.6839 825.204 89 826 89C826.796 89 827.559 88.6839 828.121 88.1213C828.684 87.5587 829 86.7956 829 86C829 85.2044 828.684 84.4413 828.121 83.8787C827.559 83.3161 826.796 83 826 83C825.204 83 824.441 83.3161 823.879 83.8787C823.316 84.4413 823 85.2044 823 86ZM817 97L822 95.5M814.5 88.5L822.31 93.87M822 95C822 95.5304 822.211 96.0391 822.586 96.4142C822.961 96.7893 823.47 97 824 97C824.53 97 825.039 96.7893 825.414 96.4142C825.789 96.0391 826 95.5304 826 95C826 94.4696 825.789 93.9609 825.414 93.5858C825.039 93.2107 824.53 93 824 93C823.47 93 822.961 93.2107 822.586 93.5858C822.211 93.9609 822 94.4696 822 95ZM811 98C811 98.7956 811.316 99.5587 811.879 100.121C812.441 100.684 813.204 101 814 101C814.796 101 815.559 100.684 816.121 100.121C816.684 99.5587 817 98.7956 817 98C817 97.2044 816.684 96.4413 816.121 95.8787C815.559 95.3161 814.796 95 814 95C813.204 95 812.441 95.3161 811.879 95.8787C811.316 96.4413 811 97.2044 811 98Z" stroke="black" stroke-width="2" stroke-linecap="round" stroke-linejoin="round"/>
<path d="M859 83V101H877M866.16 90.62L868.5 93.5M871.088 93.328L873.925 88.742M863 89C863 89.5304 863.211 90.0391 863.586 90.4142C863.961 90.7893 864.47 91 865 91C865.53 91 866.039 90.7893 866.414 90.4142C866.789 90.0391 867 89.5304 867 89C867 88.4696 866.789 87.9609 866.414 87.5858C866.039 87.2107 865.53 87 865 87C864.47 87 863.961 87.2107 863.586 87.5858C863.211 87.9609 863 88.4696 863 89ZM873 87C873 87.5304 873.211 88.0391 873.586 88.4142C873.961 88.7893 874.47 89 875 89C875.53 89 876.039 88.7893 876.414 88.4142C876.789 88.0391 877 87.5304 877 87C877 86.4696 876.789 85.9609 876.414 85.5858C876.039 85.2107 875.53 85 875 85C874.47 85 873.961 85.2107 873.586 85.5858C873.211 85.9609 873 86.4696 873 87ZM868 95C868 95.5304 868.211 96.0391 868.586 96.4142C868.961 96.7893 869.47 97 870 97C870.53 97 871.039 96.7893 871.414 96.4142C871.789 96.0391 872 95.5304 872 95C872 94.4696 871.789 93.9609 871.414 93.5858C871.039 93.2107 870.53 93 870 93C869.47 93 868.961 93.2107 868.586 93.5858C868.211 93.9609 868 94.4696 868 95Z" stroke="black" stroke-width="2" stroke-linecap="round" stroke-linejoin="round"/>
<path d="M920 86C920 86.5304 920.211 87.0391 920.586 87.4142C920.961 87.7893 921.47 88 922 88M920 86C920 85.4696 920.211 84.9609 920.586 84.5858C920.961 84.2107 921.47 84 922 84M920 86H907M922 88C922.53 88 923.039 87.7893 923.414 87.4142C923.789 87.0391 924 86.5304 924 86M922 88V96M924 86C924 85.4696 923.789 84.9609 923.414 84.5858C923.039 84.2107 922.53 84 922 84M924 86H925M922 84V83M908 92C908 92.5304 908.211 93.0391 908.586 93.4142C908.961 93.7893 909.47 94 910 94M908 92C908 91.4696 908.211 90.9609 908.586 90.5858C908.961 90.2107 909.47 90 910 90M908 92H907M910 94C910.53 94 911.039 93.7893 911.414 93.4142C911.789 93.0391 912 92.5304 912 92M910 94V96M912 92C912 91.4696 911.789 90.9609 911.414 90.5858C911.039 90.2107 910.53 90 910 90M912 92H925M910 90V83M908 98C908 98.5304 908.211 99.0391 908.586 99.4142C908.961 99.7893 909.47 100 910 100M908 98C908 97.4696 908.211 96.9609 908.586 96.5858C908.961 96.2107 909.47 96 910 96M908 98H907M910 100C910.53 100 911.039 99.7893 911.414 99.4142C911.789 99.0391 912 98.5304 912 98M910 100V101M912 98C912 97.4696 911.789 96.9609 911.414 96.5858C911.039 96.2107 910.53 96 910 96M912 98H920M920 98C920 98.5304 920.211 99.0391 920.586 99.4142C920.961 99.7893 921.47 100 922 100M920 98C920 97.4696 920.211 96.9609 920.586 96.5858C920.961 96.2107 921.47 96 922 96M922 100C922.53 100 923.039 99.7893 923.414 99.4142C923.789 99.0391 924 98.5304 924 98M922 100V101M924 98C924 97.4696 923.789 96.9609 923.414 96.5858C923.039 96.2107 922.53 96 922 96M924 98H925M916 83V101" stroke="black" stroke-width="2" stroke-linecap="round" stroke-linejoin="round"/>
<path d="M955 83V101H973M972 98V101M968 96V101M964 93V101M960 96V101M955 91C961 91 960 86 964 86C968 86 967 91 973 91" stroke="black" stroke-width="2" stroke-linecap="round" stroke-linejoin="round"/>
<path d="M1011 87C1011 88.0609 1010.58 89.0783 1009.83 89.8284C1009.08 90.5786 1008.06 91 1007 91C1005.94 91 1004.92 90.5786 1004.17 89.8284C1003.42 89.0783 1003 88.0609 1003 87C1003 85.9391 1003.42 84.9217 1004.17 84.1716C1004.92 83.4214 1005.94 83 1007 83M1011 87C1011 85.9391 1010.58 84.9217 1009.83 84.1716C1009.08 83.4214 1008.06 83 1007 83M1011 87H1007V83M1009 97V101M1017 94V101M1013 93V101M1021 92V101" stroke="black" stroke-width="2" stroke-linecap="round" stroke-linejoin="round"/>
<path d="M1052 99H1068M1052 95L1056 89L1060 91L1064 86L1068 90" stroke="black" stroke-width="2" stroke-linecap="round" stroke-linejoin="round"/>
<path d="M1108 83V92H1117M1108 83C1109.18 83 1110.35 83.2328 1111.44 83.6851C1112.54 84.1374 1113.53 84.8003 1114.36 85.636C1115.2 86.4718 1115.86 87.4639 1116.31 88.5558C1116.77 89.6478 1117 90.8181 1117 92M1108 83C1106.82 83 1105.65 83.2328 1104.56 83.6851C1103.46 84.1374 1102.47 84.8003 1101.64 85.636C1100.8 86.4718 1100.14 87.4639 1099.69 88.5558C1099.23 89.6478 1099 90.8181 1099 92C1099 93.1819 1099.23 94.3522 1099.69 95.4442C1100.14 96.5361 1100.8 97.5282 1101.64 98.364C1102.47 99.1997 1103.46 99.8626 1104.56 100.315C1105.65 100.767 1106.82 101 1108 101C1109.18 101 1110.35 100.767 1111.44 100.315C1112.54 99.8626 1113.53 99.1997 1114.36 98.364C1115.2 97.5282 1115.86 96.5361 1116.31 95.4442C1116.77 94.3522 1117 93.1819 1117 92" stroke="black" stroke-width="2" stroke-linecap="round" stroke-linejoin="round"/>
<path d="M1156 92L1149.5 97.5M1156 92V83M1156 92H1165M1156 83C1157.18 83 1158.35 83.2328 1159.44 83.6851C1160.54 84.1374 1161.53 84.8003 1162.36 85.636C1163.2 86.4718 1163.86 87.4639 1164.31 88.5558C1164.77 89.6478 1165 90.8181 1165 92M1156 83C1154.82 83 1153.65 83.2328 1152.56 83.6851C1151.46 84.1374 1150.47 84.8003 1149.64 85.636C1148.8 86.4718 1148.14 87.4639 1147.69 88.5558C1147.23 89.6478 1147 90.8181 1147 92C1147 93.1819 1147.23 94.3522 1147.69 95.4442C1148.14 96.5361 1148.8 97.5282 1149.64 98.364C1150.47 99.1997 1151.46 99.8626 1152.56 100.315C1153.65 100.767 1154.82 101 1156 101C1157.18 101 1158.35 100.767 1159.44 100.315C1160.54 99.8626 1161.53 99.1997 1162.36 98.364C1163.2 97.5282 1163.86 96.5361 1164.31 95.4442C1164.77 94.3522 1165 93.1819 1165 92" stroke="black" stroke-width="2" stroke-linecap="round" stroke-linejoin="round"/>
<path d="M52 140L45.5 145.5M52 140V131M52 140H61M52 140L57 147.5M52 131C53.1819 131 54.3522 131.233 55.4442 131.685C56.5361 132.137 57.5282 132.8 58.364 133.636C59.1997 134.472 59.8626 135.464 60.3149 136.556C60.7672 137.648 61 138.818 61 140M52 131C50.8181 131 49.6478 131.233 48.5558 131.685C47.4639 132.137 46.4718 132.8 45.636 133.636C44.8003 134.472 44.1374 135.464 43.6851 136.556C43.2328 137.648 43 138.818 43 140C43 141.182 43.2328 142.352 43.6851 143.444C44.1374 144.536 44.8003 145.528 45.636 146.364C46.4718 147.2 47.4639 147.863 48.5558 148.315C49.6478 148.767 50.8181 149 52 149C53.1819 149 54.3522 148.767 55.4442 148.315C56.5361 147.863 57.5282 147.2 58.364 146.364C59.1997 145.528 59.8626 144.536 60.3149 143.444C60.7672 142.352 61 141.182 61 140" stroke="black" stroke-width="2" stroke-linecap="round" stroke-linejoin="round"/>
<path d="M93.63 133.643C91.9439 135.333 90.9981 137.623 91.0006 140.01C91.0031 142.397 91.9538 144.685 93.6435 146.371C95.3332 148.058 97.6235 149.003 100.011 149.001C102.398 148.998 104.686 148.048 106.372 146.358M108.046 144.068C108.381 143.412 108.634 142.717 108.8 142C108.8 141.735 108.695 141.48 108.507 141.293C108.32 141.105 108.065 141 107.8 141H105M101 141C100.47 141 99.9609 140.789 99.5858 140.414C99.2107 140.039 99 139.53 99 139M99 135V132C98.9876 131.882 98.9518 131.767 98.8946 131.662C98.8375 131.558 98.7602 131.465 98.6671 131.391C98.5741 131.317 98.4672 131.261 98.3527 131.229C98.2382 131.196 98.1183 131.186 98 131.2C97.2864 131.365 96.5956 131.617 95.943 131.949M91 131L109 149M103 131.5C104.27 131.947 105.423 132.673 106.375 133.625C107.327 134.577 108.053 135.73 108.5 137H104C103.735 137 103.48 136.895 103.293 136.707C103.105 136.52 103 136.265 103 136V131.5Z" stroke="black" stroke-width="2" stroke-linecap="round" stroke-linejoin="round"/>
<path d="M146 131.2C144.436 131.563 142.997 132.337 141.833 133.443C140.669 134.549 139.822 135.947 139.38 137.491C138.938 139.034 138.917 140.668 139.32 142.223C139.722 143.777 140.533 145.196 141.669 146.331C142.804 147.467 144.223 148.278 145.777 148.68C147.332 149.083 148.966 149.062 150.509 148.62C152.053 148.178 153.45 147.331 154.557 146.167C155.663 145.003 156.437 143.564 156.8 142C156.8 141.735 156.695 141.48 156.507 141.293C156.32 141.105 156.065 141 155.8 141H149C148.47 141 147.961 140.789 147.586 140.414C147.211 140.039 147 139.53 147 139V132C146.988 131.882 146.952 131.767 146.895 131.662C146.837 131.558 146.76 131.465 146.667 131.391C146.574 131.317 146.467 131.261 146.353 131.229C146.238 131.196 146.118 131.186 146 131.2Z" stroke="black" stroke-width="2" stroke-linecap="round" stroke-linejoin="round"/>
<path d="M151 131.5C152.27 131.947 153.423 132.673 154.375 133.625C155.327 134.577 156.053 135.73 156.5 137H152C151.735 137 151.48 136.895 151.293 136.707C151.105 136.52 151 136.265 151 136V131.5Z" stroke="black" stroke-width="2" stroke-linecap="round" stroke-linejoin="round"/>
<path d="M203 145C203 138.925 197.627 134 191 134M187 131V149H205" stroke="black" stroke-width="2" stroke-linecap="round" stroke-linejoin="round"/>
<path d="M244 131L253.5 138M244 131L234.5 138M244 131V141M253.5 138L250 149M253.5 138L244 141M250 149H238M250 149L244 141M238 149L234.5 138M238 149L244 141M234.5 138L244 141M244 135.5L249.5 139.5L247 145H240.5L238.5 139.5L244 135.5Z" stroke="black" stroke-width="2" stroke-linecap="round" stroke-linejoin="round"/>
<path d="M283 131V149H301M283 134H301M283 136C293 136 291 145 301 145" stroke="black" stroke-width="2" stroke-linecap="round" stroke-linejoin="round"/>
<path d="M340 132V148M332 143H340M340 140H348M344 140V148M344 144H348M332 134C332 133.47 332.211 132.961 332.586 132.586C332.961 132.211 333.47 132 334 132H346C346.53 132 347.039 132.211 347.414 132.586C347.789 132.961 348 133.47 348 134V146C348 146.53 347.789 147.039 347.414 147.414C347.039 147.789 346.53 148 346 148H334C333.47 148 332.961 147.789 332.586 147.414C332.211 147.039 332 146.53 332 146V134Z" stroke="black" stroke-width="2" stroke-linecap="round" stroke-linejoin="round"/>
</svg>
