<svg width="1208" height="192" viewBox="0 0 1208 192" fill="none" xmlns="http://www.w3.org/2000/svg">
<rect width="1208" height="192" fill="white"/>
<path d="M46.3636 59H41.4347V44.4545H46.4631C47.9072 44.4545 49.1477 44.7457 50.1847 45.3281C51.2263 45.9058 52.0265 46.7367 52.5852 47.821C53.1439 48.9053 53.4233 50.2027 53.4233 51.7131C53.4233 53.2282 53.1416 54.5303 52.5781 55.6193C52.0194 56.7083 51.2121 57.544 50.1562 58.1264C49.1051 58.7088 47.8409 59 46.3636 59ZM44.0696 56.7202H46.2358C47.2491 56.7202 48.0942 56.5355 48.7713 56.1662C49.4484 55.7921 49.9574 55.2358 50.2983 54.4972C50.6392 53.7538 50.8097 52.8258 50.8097 51.7131C50.8097 50.6004 50.6392 49.6771 50.2983 48.9432C49.9574 48.2045 49.4531 47.6529 48.7855 47.2884C48.1226 46.919 47.2988 46.7344 46.3139 46.7344H44.0696V56.7202ZM58.9524 59.2202C58.2611 59.2202 57.6385 59.0971 57.0845 58.8509C56.5353 58.5999 56.0997 58.2306 55.7777 57.7429C55.4605 57.2552 55.3018 56.6539 55.3018 55.9389C55.3018 55.3234 55.4155 54.8144 55.6428 54.4119C55.87 54.0095 56.1802 53.6875 56.5732 53.446C56.9661 53.2045 57.4089 53.0223 57.9013 52.8991C58.3984 52.7713 58.9122 52.679 59.4425 52.6222C60.0817 52.5559 60.6001 52.4967 60.9979 52.4446C61.3956 52.3878 61.6844 52.3026 61.8643 52.1889C62.049 52.0705 62.1413 51.8883 62.1413 51.642V51.5994C62.1413 51.0644 61.9827 50.6501 61.6655 50.3565C61.3482 50.063 60.8913 49.9162 60.2947 49.9162C59.665 49.9162 59.1655 50.0535 58.7962 50.3281C58.4316 50.6027 58.1854 50.9271 58.0575 51.3011L55.657 50.9602C55.8464 50.2973 56.1589 49.7434 56.5945 49.2983C57.0301 48.8485 57.5627 48.5123 58.1925 48.2898C58.8222 48.0625 59.5182 47.9489 60.2805 47.9489C60.8061 47.9489 61.3293 48.0104 61.8501 48.1335C62.371 48.2566 62.8468 48.4602 63.2777 48.7443C63.7086 49.0237 64.0542 49.4048 64.3146 49.8878C64.5798 50.3707 64.7124 50.9744 64.7124 51.6989V59H62.2408V57.5014H62.1555C61.9993 57.8045 61.7791 58.0885 61.495 58.3537C61.2157 58.6141 60.8629 58.8248 60.4368 58.9858C60.0154 59.142 59.5206 59.2202 58.9524 59.2202ZM59.62 57.331C60.1361 57.331 60.5836 57.2292 60.9624 57.0256C61.3411 56.8172 61.6323 56.5426 61.8359 56.2017C62.0443 55.8608 62.1484 55.4891 62.1484 55.0866V53.8011C62.0679 53.8674 61.9306 53.929 61.7365 53.9858C61.5471 54.0426 61.334 54.0923 61.0973 54.1349C60.8606 54.1776 60.6262 54.2154 60.3942 54.2486C60.1622 54.2817 59.9609 54.3101 59.7905 54.3338C59.407 54.3859 59.0637 54.4711 58.7607 54.5895C58.4576 54.7079 58.2185 54.8736 58.0433 55.0866C57.8681 55.295 57.7805 55.5649 57.7805 55.8963C57.7805 56.3698 57.9534 56.7273 58.299 56.9688C58.6446 57.2102 59.085 57.331 59.62 57.331ZM72.745 48.0909V50.0795H66.4737V48.0909H72.745ZM68.022 45.4773H70.593V55.7188C70.593 56.0644 70.6451 56.3295 70.7493 56.5142C70.8582 56.6941 71.0002 56.8172 71.1754 56.8835C71.3506 56.9498 71.5447 56.983 71.7578 56.983C71.9188 56.983 72.0656 56.9711 72.1982 56.9474C72.3355 56.9238 72.4396 56.9025 72.5107 56.8835L72.9439 58.8935C72.8066 58.9408 72.6101 58.9929 72.3544 59.0497C72.1035 59.1065 71.7957 59.1397 71.4311 59.1491C70.7872 59.1681 70.2071 59.071 69.6911 58.858C69.175 58.6402 68.7654 58.304 68.4624 57.8494C68.1641 57.3949 68.0173 56.8267 68.022 56.1449V45.4773ZM78.0344 59.2202C77.3432 59.2202 76.7205 59.0971 76.1665 58.8509C75.6173 58.5999 75.1817 58.2306 74.8597 57.7429C74.5425 57.2552 74.3839 56.6539 74.3839 55.9389C74.3839 55.3234 74.4975 54.8144 74.7248 54.4119C74.9521 54.0095 75.2622 53.6875 75.6552 53.446C76.0482 53.2045 76.4909 53.0223 76.9833 52.8991C77.4805 52.7713 77.9942 52.679 78.5245 52.6222C79.1637 52.5559 79.6822 52.4967 80.0799 52.4446C80.4776 52.3878 80.7665 52.3026 80.9464 52.1889C81.131 52.0705 81.2234 51.8883 81.2234 51.642V51.5994C81.2234 51.0644 81.0647 50.6501 80.7475 50.3565C80.4303 50.063 79.9734 49.9162 79.3768 49.9162C78.747 49.9162 78.2475 50.0535 77.8782 50.3281C77.5136 50.6027 77.2674 50.9271 77.1396 51.3011L74.739 50.9602C74.9284 50.2973 75.2409 49.7434 75.6765 49.2983C76.1121 48.8485 76.6448 48.5123 77.2745 48.2898C77.9042 48.0625 78.6003 47.9489 79.3626 47.9489C79.8881 47.9489 80.4113 48.0104 80.9322 48.1335C81.453 48.2566 81.9289 48.4602 82.3597 48.7443C82.7906 49.0237 83.1362 49.4048 83.3967 49.8878C83.6618 50.3707 83.7944 50.9744 83.7944 51.6989V59H81.3228V57.5014H81.2376C81.0813 57.8045 80.8612 58.0885 80.5771 58.3537C80.2977 58.6141 79.945 58.8248 79.5188 58.9858C79.0974 59.142 78.6026 59.2202 78.0344 59.2202ZM78.7021 57.331C79.2182 57.331 79.6656 57.2292 80.0444 57.0256C80.4232 56.8172 80.7144 56.5426 80.918 56.2017C81.1263 55.8608 81.2305 55.4891 81.2305 55.0866V53.8011C81.15 53.8674 81.0127 53.929 80.8185 53.9858C80.6291 54.0426 80.4161 54.0923 80.1793 54.1349C79.9426 54.1776 79.7082 54.2154 79.4762 54.2486C79.2442 54.2817 79.043 54.3101 78.8725 54.3338C78.489 54.3859 78.1457 54.4711 77.8427 54.5895C77.5397 54.7079 77.3005 54.8736 77.1254 55.0866C76.9502 55.295 76.8626 55.5649 76.8626 55.8963C76.8626 56.3698 77.0354 56.7273 77.381 56.9688C77.7267 57.2102 78.167 57.331 78.7021 57.331ZM86.4933 59V44.4545H89.0643V49.8949H89.1708C89.3034 49.6297 89.4904 49.348 89.7319 49.0497C89.9734 48.7467 90.3001 48.4886 90.712 48.2756C91.1239 48.0578 91.6495 47.9489 92.2887 47.9489C93.1315 47.9489 93.8915 48.1643 94.5685 48.5952C95.2504 49.0213 95.7901 49.6534 96.1879 50.4915C96.5903 51.3248 96.7915 52.3475 96.7915 53.5597C96.7915 54.7576 96.5951 55.7756 96.2021 56.6136C95.8091 57.4517 95.274 58.0909 94.5969 58.5312C93.9199 58.9716 93.1528 59.1918 92.2958 59.1918C91.6708 59.1918 91.1523 59.0876 90.7404 58.8793C90.3285 58.6709 89.997 58.42 89.7461 58.1264C89.4999 57.8281 89.3081 57.5464 89.1708 57.2812H89.0217V59H86.4933ZM89.0146 53.5455C89.0146 54.2509 89.114 54.8688 89.3129 55.3991C89.5165 55.9295 89.8076 56.3437 90.1864 56.642C90.57 56.9356 91.034 57.0824 91.5785 57.0824C92.1467 57.0824 92.6225 56.9309 93.006 56.6278C93.3896 56.3201 93.6784 55.901 93.8725 55.3707C94.0714 54.8357 94.1708 54.2273 94.1708 53.5455C94.1708 52.8684 94.0737 52.267 93.8796 51.7415C93.6855 51.2159 93.3967 50.804 93.0131 50.5057C92.6296 50.2074 92.1514 50.0582 91.5785 50.0582C91.0292 50.0582 90.5629 50.2027 90.1793 50.4915C89.7958 50.7803 89.5046 51.1851 89.3058 51.706C89.1116 52.2268 89.0146 52.84 89.0146 53.5455ZM102.116 59.2202C101.425 59.2202 100.803 59.0971 100.249 58.8509C99.6993 58.5999 99.2637 58.2306 98.9418 57.7429C98.6245 57.2552 98.4659 56.6539 98.4659 55.9389C98.4659 55.3234 98.5795 54.8144 98.8068 54.4119C99.0341 54.0095 99.3442 53.6875 99.7372 53.446C100.13 53.2045 100.573 53.0223 101.065 52.8991C101.563 52.7713 102.076 52.679 102.607 52.6222C103.246 52.5559 103.764 52.4967 104.162 52.4446C104.56 52.3878 104.848 52.3026 105.028 52.1889C105.213 52.0705 105.305 51.8883 105.305 51.642V51.5994C105.305 51.0644 105.147 50.6501 104.83 50.3565C104.512 50.063 104.055 49.9162 103.459 49.9162C102.829 49.9162 102.33 50.0535 101.96 50.3281C101.596 50.6027 101.349 50.9271 101.222 51.3011L98.821 50.9602C99.0104 50.2973 99.3229 49.7434 99.7585 49.2983C100.194 48.8485 100.727 48.5123 101.357 48.2898C101.986 48.0625 102.682 47.9489 103.445 47.9489C103.97 47.9489 104.493 48.0104 105.014 48.1335C105.535 48.2566 106.011 48.4602 106.442 48.7443C106.873 49.0237 107.218 49.4048 107.479 49.8878C107.744 50.3707 107.876 50.9744 107.876 51.6989V59H105.405V57.5014H105.32C105.163 57.8045 104.943 58.0885 104.659 58.3537C104.38 58.6141 104.027 58.8248 103.601 58.9858C103.179 59.142 102.685 59.2202 102.116 59.2202ZM102.784 57.331C103.3 57.331 103.748 57.2292 104.126 57.0256C104.505 56.8172 104.796 56.5426 105 56.2017C105.208 55.8608 105.312 55.4891 105.312 55.0866V53.8011C105.232 53.8674 105.095 53.929 104.901 53.9858C104.711 54.0426 104.498 54.0923 104.261 54.1349C104.025 54.1776 103.79 54.2154 103.558 54.2486C103.326 54.2817 103.125 54.3101 102.955 54.3338C102.571 54.3859 102.228 54.4711 101.925 54.5895C101.622 54.7079 101.383 54.8736 101.207 55.0866C101.032 55.295 100.945 55.5649 100.945 55.8963C100.945 56.3698 101.117 56.7273 101.463 56.9688C101.809 57.2102 102.249 57.331 102.784 57.331ZM119.084 50.9744L116.74 51.2301C116.674 50.9934 116.558 50.7708 116.392 50.5625C116.231 50.3542 116.013 50.1861 115.739 50.0582C115.464 49.9304 115.128 49.8665 114.73 49.8665C114.195 49.8665 113.745 49.9825 113.381 50.2145C113.021 50.4465 112.843 50.7472 112.848 51.1165C112.843 51.4337 112.959 51.6918 113.196 51.8906C113.438 52.0895 113.835 52.2528 114.389 52.3807L116.25 52.7784C117.282 53.0009 118.049 53.3537 118.551 53.8366C119.058 54.3196 119.313 54.9517 119.318 55.733C119.313 56.4195 119.112 57.0256 118.714 57.5511C118.321 58.072 117.775 58.4792 117.074 58.7727C116.373 59.0663 115.568 59.2131 114.659 59.2131C113.324 59.2131 112.249 58.9337 111.435 58.375C110.62 57.8116 110.135 57.0279 109.979 56.0241L112.486 55.7827C112.599 56.2751 112.841 56.6468 113.21 56.8977C113.58 57.1487 114.06 57.2741 114.652 57.2741C115.263 57.2741 115.753 57.1487 116.122 56.8977C116.496 56.6468 116.683 56.3366 116.683 55.9673C116.683 55.6548 116.563 55.3968 116.321 55.1932C116.084 54.9896 115.715 54.8333 115.213 54.7244L113.352 54.3338C112.306 54.116 111.532 53.7491 111.03 53.233C110.528 52.7121 110.279 52.054 110.284 51.2585C110.279 50.5862 110.462 50.0038 110.831 49.5114C111.205 49.0142 111.723 48.6307 112.386 48.3608C113.054 48.0862 113.823 47.9489 114.695 47.9489C115.973 47.9489 116.979 48.2211 117.713 48.7656C118.452 49.3101 118.909 50.0464 119.084 50.9744ZM126.268 59.2131C125.174 59.2131 124.229 58.9858 123.434 58.5312C122.643 58.072 122.035 57.4233 121.609 56.5852C121.183 55.7424 120.969 54.7505 120.969 53.6094C120.969 52.4872 121.183 51.5024 121.609 50.6548C122.04 49.8026 122.641 49.1397 123.413 48.6662C124.184 48.188 125.091 47.9489 126.133 47.9489C126.805 47.9489 127.44 48.0578 128.036 48.2756C128.638 48.4886 129.168 48.8201 129.627 49.2699C130.091 49.7197 130.456 50.2926 130.721 50.9886C130.986 51.6799 131.119 52.5038 131.119 53.4602V54.2486H122.177V52.5156H128.654C128.649 52.0232 128.543 51.5852 128.335 51.2017C128.126 50.8134 127.835 50.508 127.461 50.2855C127.092 50.063 126.661 49.9517 126.168 49.9517C125.643 49.9517 125.181 50.0795 124.783 50.3352C124.386 50.5862 124.076 50.9176 123.853 51.3295C123.635 51.7367 123.524 52.1842 123.519 52.6719V54.1847C123.519 54.8191 123.635 55.3636 123.867 55.8182C124.099 56.268 124.424 56.6136 124.84 56.8551C125.257 57.0919 125.745 57.2102 126.303 57.2102C126.677 57.2102 127.016 57.1581 127.319 57.054C127.622 56.9451 127.885 56.7865 128.107 56.5781C128.33 56.3698 128.498 56.1117 128.612 55.804L131.012 56.0739C130.861 56.7083 130.572 57.2623 130.146 57.7358C129.724 58.2045 129.184 58.5691 128.526 58.8295C127.868 59.0852 127.115 59.2131 126.268 59.2131Z" fill="black"/>
<path d="M45 92H49M47 90V94M54 84H58C58.2652 84 58.5196 84.1054 58.7071 84.2929C58.8946 84.4804 59 84.7348 59 85V99C59 99.2652 58.8946 99.5196 58.7071 99.7071C58.5196 99.8946 58.2652 100 58 100H54C53.7348 100 53.4804 99.8946 53.2929 99.7071C53.1054 99.5196 53 99.2652 53 99V85C53 84.7348 53.1054 84.4804 53.2929 84.2929C53.4804 84.1054 53.7348 84 54 84Z" stroke="black" stroke-width="2" stroke-linecap="round" stroke-linejoin="round"/>
<path d="M103 92H107M105 90V94M94 84H98C98.2652 84 98.5196 84.1054 98.7071 84.2929C98.8946 84.4804 99 84.7348 99 85V99C99 99.2652 98.8946 99.5196 98.7071 99.7071C98.5196 99.8946 98.2652 100 98 100H94C93.7348 100 93.4804 99.8946 93.2929 99.7071C93.1054 99.5196 93 99.2652 93 99V85C93 84.7348 93.1054 84.4804 93.2929 84.2929C93.4804 84.1054 93.7348 84 94 84Z" stroke="black" stroke-width="2" stroke-linecap="round" stroke-linejoin="round"/>
<path d="M140 86C140 87.657 143.582 89 148 89C152.418 89 156 87.657 156 86M140 86C140 84.343 143.582 83 148 83C152.418 83 156 84.343 156 86M140 86V92M156 86V91.5M140 92C140 93.657 143.582 95 148 95C148.21 95 148.42 94.997 148.626 94.99M140 92V98C140 99.657 143.582 101 148 101M155.001 101C154.471 101 153.962 100.789 153.587 100.414C153.212 100.039 153.001 99.5304 153.001 99C153.001 98.4696 153.212 97.9609 153.587 97.5858C153.962 97.2107 154.471 97 155.001 97M155.001 101C155.531 101 156.04 100.789 156.415 100.414C156.79 100.039 157.001 99.5304 157.001 99C157.001 98.4696 156.79 97.9609 156.415 97.5858C156.04 97.2107 155.531 97 155.001 97M155.001 101V102.5M155.001 97V95.5M158.032 97.25L156.733 98M153.27 100L151.97 100.75M151.97 97.25L153.27 98M156.733 100L158.033 100.75" stroke="black" stroke-width="2" stroke-linecap="round" stroke-linejoin="round"/>
<path d="M188 86C188 87.657 191.582 89 196 89C200.418 89 204 87.657 204 86M188 86C188 84.343 191.582 83 196 83C200.418 83 204 84.343 204 86M188 86V92M204 86V90M188 92C188 93.657 191.582 95 196 95C196.415 95 196.822 94.988 197.22 94.965M188 92V98C188 99.657 191.582 101 196 101C196.352 101 196.698 100.991 197.037 100.975M205 95H202.5C202.102 95 201.721 95.158 201.439 95.4393C201.158 95.7206 201 96.1022 201 96.5C201 96.8978 201.158 97.2794 201.439 97.5607C201.721 97.842 202.102 98 202.5 98H203.5C203.898 98 204.279 98.158 204.561 98.4393C204.842 98.7206 205 99.1022 205 99.5C205 99.8978 204.842 100.279 204.561 100.561C204.279 100.842 203.898 101 203.5 101H201M203 101V102M203 94V95" stroke="black" stroke-width="2" stroke-linecap="round" stroke-linejoin="round"/>
<path d="M236 86C236 87.657 239.582 89 244 89C248.418 89 252 87.657 252 86M236 86C236 84.343 239.582 83 244 83C248.418 83 252 84.343 252 86M236 86V92M252 86V92M236 92C236 93.657 239.582 95 244 95C244.478 95 244.947 94.984 245.402 94.954M236 92V98C236 99.526 239.04 100.786 242.972 100.975M250.42 95.61C250.615 95.415 250.847 95.2603 251.101 95.1548C251.356 95.0492 251.629 94.9949 251.905 94.9949C252.181 94.9949 252.454 95.0492 252.709 95.1548C252.963 95.2603 253.195 95.415 253.39 95.61C253.585 95.805 253.74 96.0365 253.845 96.2913C253.951 96.5461 254.005 96.8192 254.005 97.095C254.005 97.3708 253.951 97.6439 253.845 97.8987C253.74 98.1535 253.585 98.385 253.39 98.58L250 102H247V99L250.42 95.61Z" stroke="black" stroke-width="2" stroke-linecap="round" stroke-linejoin="round"/>
<path d="M284 86C284 87.657 287.582 89 292 89C296.418 89 300 87.657 300 86M284 86C284 84.343 287.582 83 292 83C296.418 83 300 84.343 300 86M284 86V92M300 86V92M284 92C284 93.657 287.582 95 292 95C293.118 95 294.182 94.914 295.148 94.759M284 92V98C284 99.657 287.582 101 292 101C293.064 101 294.079 100.922 295.007 100.78M299 96V99M299 102V102.01" stroke="black" stroke-width="2" stroke-linecap="round" stroke-linejoin="round"/>
<path d="M332 86C332 87.657 335.582 89 340 89C344.418 89 348 87.657 348 86M332 86C332 84.343 335.582 83 340 83C344.418 83 348 84.343 348 86M332 86V92M348 86V92M332 92C332 93.657 335.582 95 340 95C341.118 95 342.183 94.914 343.15 94.759M332 92V98C332 99.657 335.582 101 340 101C340.157 101 340.312 100.998 340.466 100.995M344 99H350M350 99L347 96M350 99L347 102" stroke="black" stroke-width="2" stroke-linecap="round" stroke-linejoin="round"/>
<path d="M380 86C380 87.657 383.582 89 388 89C392.418 89 396 87.657 396 86M380 86C380 84.343 383.582 83 388 83C392.418 83 396 84.343 396 86M380 86V92M396 86V91M380 92C380 93.453 382.755 94.665 386.414 94.941M380 92V98C380 99.579 383.253 100.873 387.383 100.991M394 102L397.35 98.716C397.555 98.5167 397.719 98.2782 397.831 98.0146C397.942 97.7511 398 97.4678 398.001 97.1816C398.001 96.8953 397.944 96.6119 397.833 96.3479C397.722 96.084 397.56 95.845 397.355 95.645C396.937 95.2363 396.376 95.007 395.792 95.0059C395.207 95.0048 394.645 95.2319 394.226 95.639L394.002 95.859L393.779 95.639C393.361 95.2306 392.8 95.0015 392.216 95.0004C391.632 94.9993 391.07 95.2262 390.651 95.633C390.445 95.8323 390.282 96.0707 390.17 96.3342C390.058 96.5977 390 96.881 390 97.1672C389.999 97.4535 390.056 97.737 390.167 98.0009C390.278 98.2648 390.44 98.5039 390.645 98.704L394 102Z" stroke="black" stroke-width="2" stroke-linecap="round" stroke-linejoin="round"/>
<path d="M428 86C428 87.657 431.582 89 436 89C440.418 89 444 87.657 444 86M428 86C428 84.343 431.582 83 436 83C440.418 83 444 84.343 444 86M428 86V92M444 86V92M428 92C428 93.657 431.582 95 436 95C436.856 95 437.68 94.95 438.454 94.856M428 92V98C428 99.657 431.582 101 436 101C436.171 101 436.341 100.998 436.51 100.994M443 102V96M443 96L446 99M443 96L440 99" stroke="black" stroke-width="2" stroke-linecap="round" stroke-linejoin="round"/>
<path d="M476 86C476 87.657 479.582 89 484 89C488.418 89 492 87.657 492 86M476 86C476 84.343 479.582 83 484 83C488.418 83 492 84.343 492 86M476 86V98C476 99.657 479.582 101 484 101C488.418 101 492 99.657 492 98V86M476 95C476.389 95.0082 476.775 94.9214 477.124 94.7472C477.472 94.5729 477.773 94.3165 478 94C478.227 93.6835 478.528 93.4271 478.876 93.2528C479.225 93.0786 479.611 92.9918 480 93C480.389 92.9918 480.775 93.0786 481.124 93.2528C481.472 93.4271 481.773 93.6835 482 94C482.227 94.3165 482.528 94.5729 482.876 94.7472C483.225 94.9214 483.611 95.0082 484 95C484.389 95.0082 484.775 94.9214 485.124 94.7472C485.472 94.5729 485.773 94.3165 486 94C486.227 93.6835 486.528 93.4271 486.876 93.2528C487.225 93.0786 487.611 92.9918 488 93C488.389 92.9918 488.775 93.0786 489.124 93.2528C489.472 93.4271 489.773 93.6835 490 94C490.227 94.3165 490.528 94.5729 490.876 94.7472C491.225 94.9214 491.611 95.0082 492 95" stroke="black" stroke-width="2" stroke-linecap="round" stroke-linejoin="round"/>
<path d="M524 86C524 87.657 527.582 89 532 89C536.418 89 540 87.657 540 86M524 86C524 84.343 527.582 83 532 83C536.418 83 540 84.343 540 86M524 86V92M540 86V92M524 92C524 93.657 527.582 95 532 95C536.418 95 540 93.657 540 92M524 92V98C524 99.657 527.582 101 532 101C532.164 101 532.328 100.998 532.49 100.994M540 92V95M536 99H542" stroke="black" stroke-width="2" stroke-linecap="round" stroke-linejoin="round"/>
<path d="M580.983 88.978C584.938 88.796 588 87.532 588 86M588 86C588 84.343 584.418 83 580 83C578.339 83 576.796 83.19 575.517 83.515M588 86V92M572.734 84.743C572.263 85.125 572 85.551 572 86M572 86C572 87.22 573.944 88.271 576.734 88.74M572 86V92M572 92C572 93.657 575.582 95 580 95C580.986 95 581.93 94.933 582.802 94.81M572 92V98C572 99.657 575.582 101 580 101C583.217 101 585.991 100.288 587.261 99.26M585.989 93.99C587.24 93.46 588 92.762 588 92M588 92V96M571 83L589 101" stroke="black" stroke-width="2" stroke-linecap="round" stroke-linejoin="round"/>
<path d="M620 86C620 87.657 623.582 89 628 89C632.418 89 636 87.657 636 86M620 86C620 84.343 623.582 83 628 83C632.418 83 636 84.343 636 86M620 86V92M636 86V92M620 92C620 93.657 623.582 95 628 95C629.075 95 630.1 94.92 631.037 94.776M620 92V98C620 99.657 623.582 101 628 101C628.166 101 628.331 100.998 628.495 100.994M632 99H638M635 96V102" stroke="black" stroke-width="2" stroke-linecap="round" stroke-linejoin="round"/>
<path d="M668 86C668 87.657 671.582 89 676 89C680.418 89 684 87.657 684 86M668 86C668 84.343 671.582 83 676 83C680.418 83 684 84.343 684 86M668 86V92M684 86V91.5M668 92C668 93.657 671.582 95 676 95M668 92V98C668 99.657 671.582 101 676 101M684.2 100.2L686 102M679 98C679 98.7956 679.316 99.5587 679.879 100.121C680.441 100.684 681.204 101 682 101C682.796 101 683.559 100.684 684.121 100.121C684.684 99.5587 685 98.7956 685 98C685 97.2044 684.684 96.4413 684.121 95.8787C683.559 95.3161 682.796 95 682 95C681.204 95 680.441 95.3161 679.879 95.8787C679.316 96.4413 679 97.2044 679 98Z" stroke="black" stroke-width="2" stroke-linecap="round" stroke-linejoin="round"/>
<path d="M716 86C716 87.657 719.582 89 724 89C728.418 89 732 87.657 732 86M716 86C716 84.343 719.582 83 724 83C728.418 83 732 84.343 732 86M716 86V92M732 86V93M716 92C716 93.657 719.582 95 724 95C724.361 95 724.716 94.991 725.065 94.974M716 92V98C716 99.657 719.582 101 724 101M728 102L733 97M733 97V101.5M733 97H728.5" stroke="black" stroke-width="2" stroke-linecap="round" stroke-linejoin="round"/>
<path d="M764 86C764 87.657 767.582 89 772 89C776.418 89 780 87.657 780 86M764 86C764 84.343 767.582 83 772 83C776.418 83 780 84.343 780 86M764 86V92M780 86V90.5M764 92C764 93.43 766.67 94.627 770.243 94.927M764 92V98C764 99.546 767.12 100.82 771.128 100.982M777.8 100.817L775.628 101.955C775.564 101.989 775.491 102.004 775.419 101.998C775.346 101.993 775.277 101.968 775.218 101.925C775.159 101.883 775.113 101.825 775.085 101.757C775.057 101.69 775.048 101.617 775.06 101.545L775.475 99.134L773.718 97.427C773.666 97.3763 773.628 97.3119 773.611 97.2411C773.593 97.1703 773.596 97.096 773.619 97.0266C773.641 96.9573 773.683 96.8957 773.739 96.8489C773.795 96.8021 773.863 96.772 773.935 96.762L776.363 96.41L777.449 94.217C777.481 94.1517 777.532 94.0967 777.594 94.0583C777.656 94.0199 777.727 93.9995 777.8 93.9995C777.873 93.9995 777.944 94.0199 778.006 94.0583C778.068 94.0967 778.119 94.1517 778.151 94.217L779.237 96.41L781.665 96.762C781.737 96.7724 781.805 96.8027 781.86 96.8495C781.916 96.8964 781.958 96.9579 781.98 97.027C782.003 97.0962 782.006 97.1704 781.988 97.241C781.971 97.3117 781.934 97.3761 781.882 97.427L780.125 99.134L780.539 101.544C780.551 101.616 780.543 101.69 780.516 101.757C780.489 101.825 780.443 101.883 780.384 101.926C780.325 101.969 780.255 101.994 780.182 101.999C780.109 102.005 780.036 101.989 779.972 101.955L777.8 100.817Z" stroke="black" stroke-width="2" stroke-linecap="round" stroke-linejoin="round"/>
<path d="M812 86C812 87.657 815.582 89 820 89C824.418 89 828 87.657 828 86M812 86C812 84.343 815.582 83 820 83C824.418 83 828 84.343 828 86M812 86V92M828 86V93.5M812 92C812 93.657 815.582 95 820 95C820.537 95 821.062 94.98 821.57 94.942M812 92V98C812 99.657 815.582 101 820 101C820.384 101 820.762 100.99 821.132 100.97M830 102L825 97M825 102L830 97" stroke="black" stroke-width="2" stroke-linecap="round" stroke-linejoin="round"/>
<path d="M860 86C860 86.7956 860.843 87.5587 862.343 88.1213C863.843 88.6839 865.878 89 868 89C870.122 89 872.157 88.6839 873.657 88.1213C875.157 87.5587 876 86.7956 876 86M860 86C860 85.2044 860.843 84.4413 862.343 83.8787C863.843 83.3161 865.878 83 868 83C870.122 83 872.157 83.3161 873.657 83.8787C875.157 84.4413 876 85.2044 876 86M860 86V92M876 86V92M860 92C860 92.7956 860.843 93.5587 862.343 94.1213C863.843 94.6839 865.878 95 868 95C870.122 95 872.157 94.6839 873.657 94.1213C875.157 93.5587 876 92.7956 876 92M860 92V98C860 98.7956 860.843 99.5587 862.343 100.121C863.843 100.684 865.878 101 868 101C870.122 101 872.157 100.684 873.657 100.121C875.157 99.5587 876 98.7956 876 98V92" stroke="black" stroke-width="2" stroke-linecap="round" stroke-linejoin="round"/>
<path d="M919 94V90L922 94V90M910 94V90L913 94V90M916 90.5V90.51M916 93.5V93.51M907 87C907 86.4696 907.211 85.9609 907.586 85.5858C907.961 85.2107 908.47 85 909 85H923C923.53 85 924.039 85.2107 924.414 85.5858C924.789 85.9609 925 86.4696 925 87V97C925 97.5304 924.789 98.0391 924.414 98.4142C924.039 98.7893 923.53 99 923 99H909C908.47 99 907.961 98.7893 907.586 98.4142C907.211 98.0391 907 97.5304 907 97V87Z" stroke="black" stroke-width="2" stroke-linecap="round" stroke-linejoin="round"/>
<path d="M959 90H960V94M966 94V90L969 94V90M963 90.5V90.51M963 93.5V93.51M955 87C955 86.4696 955.211 85.9609 955.586 85.5858C955.961 85.2107 956.47 85 957 85H971C971.53 85 972.039 85.2107 972.414 85.5858C972.789 85.9609 973 86.4696 973 87V97C973 97.5304 972.789 98.0391 972.414 98.4142C972.039 98.7893 971.53 99 971 99H957C956.47 99 955.961 98.7893 955.586 98.4142C955.211 98.0391 955 97.5304 955 97V87Z" stroke="black" stroke-width="2" stroke-linecap="round" stroke-linejoin="round"/>
<path d="M1008 90H1009V94M1015 90H1016V94M1012 90.5V90.51M1012 93.5V93.51M1003 87C1003 86.4696 1003.21 85.9609 1003.59 85.5858C1003.96 85.2107 1004.47 85 1005 85H1019C1019.53 85 1020.04 85.2107 1020.41 85.5858C1020.79 85.9609 1021 86.4696 1021 87V97C1021 97.5304 1020.79 98.0391 1020.41 98.4142C1020.04 98.7893 1019.53 99 1019 99H1005C1004.47 99 1003.96 98.7893 1003.59 98.4142C1003.21 98.0391 1003 97.5304 1003 97V87Z" stroke="black" stroke-width="2" stroke-linecap="round" stroke-linejoin="round"/>
<path d="M1060 95V99M1062 97H1058M1068 86V90C1068 90.2652 1067.89 90.5196 1067.71 90.7071C1067.52 90.8946 1067.27 91 1067 91H1053C1052.73 91 1052.48 90.8946 1052.29 90.7071C1052.11 90.5196 1052 90.2652 1052 90V86C1052 85.7348 1052.11 85.4804 1052.29 85.2929C1052.48 85.1054 1052.73 85 1053 85H1067C1067.27 85 1067.52 85.1054 1067.71 85.2929C1067.89 85.4804 1068 85.7348 1068 86Z" stroke="black" stroke-width="2" stroke-linecap="round" stroke-linejoin="round"/>
<path d="M1108 89V85M1106 87H1110M1100 98V94C1100 93.7348 1100.11 93.4804 1100.29 93.2929C1100.48 93.1054 1100.73 93 1101 93H1115C1115.27 93 1115.52 93.1054 1115.71 93.2929C1115.89 93.4804 1116 93.7348 1116 94V98C1116 98.2652 1115.89 98.5196 1115.71 98.7071C1115.52 98.8946 1115.27 99 1115 99H1101C1100.73 99 1100.48 98.8946 1100.29 98.7071C1100.11 98.5196 1100 98.2652 1100 98Z" stroke="black" stroke-width="2" stroke-linecap="round" stroke-linejoin="round"/>
<path d="M1150 82H1154V86M1150 86H1149V85M1159 91V90H1164V94H1162M1154 92H1156M1151.5 87.5V90M1151.5 94V98M1147 83L1165 101M1149 98H1154V102H1149V98ZM1149 90H1154V94H1149V90Z" stroke="black" stroke-width="2" stroke-linecap="round" stroke-linejoin="round"/>
<path d="M50 140H55M47.5 134V138M47.5 142V146M45 130H50V134H45V130ZM55 138H60V142H55V138ZM45 146H50V150H45V146ZM45 138H50V142H45V138Z" stroke="black" stroke-width="2" stroke-linecap="round" stroke-linejoin="round"/>
<path d="M91 140V133C91 132.47 91.2107 131.961 91.5858 131.586C91.9609 131.211 92.4696 131 93 131H107C107.53 131 108.039 131.211 108.414 131.586C108.789 131.961 109 132.47 109 133V147C109 147.53 108.789 148.039 108.414 148.414C108.039 148.789 107.53 149 107 149H100M91 138H109M98 131V141M90 145C90 144.735 90.1054 144.48 90.2929 144.293C90.4804 144.105 90.7348 144 91 144H95C95.2652 144 95.5196 144.105 95.7071 144.293C95.8946 144.48 96 144.735 96 145V149C96 149.265 95.8946 149.52 95.7071 149.707C95.5196 149.895 95.2652 150 95 150H91C90.7348 150 90.4804 149.895 90.2929 149.707C90.1054 149.52 90 149.265 90 149V145Z" stroke="black" stroke-width="2" stroke-linecap="round" stroke-linejoin="round"/>
<path d="M148.5 149H141C140.47 149 139.961 148.789 139.586 148.414C139.211 148.039 139 147.53 139 147V133C139 132.47 139.211 131.961 139.586 131.586C139.961 131.211 140.47 131 141 131H155C155.53 131 156.039 131.211 156.414 131.586C156.789 131.961 157 132.47 157 133V140.5M139 138H157M146 131V149M155 144V150M155 150L158 147M155 150L152 147" stroke="black" stroke-width="2" stroke-linecap="round" stroke-linejoin="round"/>
<path d="M196.5 149H189C188.47 149 187.961 148.789 187.586 148.414C187.211 148.039 187 147.53 187 147V133C187 132.47 187.211 131.961 187.586 131.586C187.961 131.211 188.47 131 189 131H203C203.53 131 204.039 131.211 204.414 131.586C204.789 131.961 205 132.47 205 133V140.5M187 138H205M194 131V149M200 147H206M206 147L203 144M206 147L203 150" stroke="black" stroke-width="2" stroke-linecap="round" stroke-linejoin="round"/>
<path d="M243.5 149H237C236.47 149 235.961 148.789 235.586 148.414C235.211 148.039 235 147.53 235 147V133C235 132.47 235.211 131.961 235.586 131.586C235.961 131.211 236.47 131 237 131H251C251.53 131 252.039 131.211 252.414 131.586C252.789 131.961 253 132.47 253 133V139M235 138H253M242 131V149M250 150L253.35 146.716C253.555 146.517 253.719 146.278 253.831 146.015C253.942 145.751 254 145.468 254.001 145.182C254.001 144.895 253.944 144.612 253.833 144.348C253.722 144.084 253.56 143.845 253.355 143.645C252.937 143.236 252.376 143.007 251.792 143.006C251.207 143.005 250.645 143.232 250.226 143.639L250.002 143.859L249.779 143.639C249.361 143.231 248.8 143.002 248.216 143C247.632 142.999 247.07 143.226 246.651 143.633C246.445 143.832 246.282 144.071 246.17 144.334C246.058 144.598 246 144.881 246 145.167C245.999 145.453 246.056 145.737 246.167 146.001C246.278 146.265 246.44 146.504 246.645 146.704L250 150Z" stroke="black" stroke-width="2" stroke-linecap="round" stroke-linejoin="round"/>
<path d="M292 149H285C284.47 149 283.961 148.789 283.586 148.414C283.211 148.039 283 147.53 283 147V133C283 132.47 283.211 131.961 283.586 131.586C283.961 131.211 284.47 131 285 131H299C299.53 131 300.039 131.211 300.414 131.586C300.789 131.961 301 132.47 301 133V141M283 138H301M290 131V149M299 150V144M299 144L302 147M299 144L296 147" stroke="black" stroke-width="2" stroke-linecap="round" stroke-linejoin="round"/>
<path d="M340.5 149H333C332.47 149 331.961 148.789 331.586 148.414C331.211 148.039 331 147.53 331 147V133C331 132.47 331.211 131.961 331.586 131.586C331.961 131.211 332.47 131 333 131H347C347.53 131 348.039 131.211 348.414 131.586C348.789 131.961 349 132.47 349 133V143M331 138H349M338 131V149M344 147H350" stroke="black" stroke-width="2" stroke-linecap="round" stroke-linejoin="round"/>
<path d="M383 131H395C395.53 131 396.039 131.211 396.414 131.586C396.789 131.961 397 132.47 397 133V145M396.415 148.413C396.229 148.599 396.009 148.747 395.766 148.848C395.523 148.949 395.263 149 395 149H381C380.47 149 379.961 148.789 379.586 148.414C379.211 148.039 379 147.53 379 147V133C379 132.45 379.223 131.95 379.583 131.588M379 138H386V149M390 138H397M386 131V134M379 131L397 149" stroke="black" stroke-width="2" stroke-linecap="round" stroke-linejoin="round"/>
<path d="M436 149H429C428.47 149 427.961 148.789 427.586 148.414C427.211 148.039 427 147.53 427 147V133C427 132.47 427.211 131.961 427.586 131.586C427.961 131.211 428.47 131 429 131H443C443.53 131 444.039 131.211 444.414 131.586C444.789 131.961 445 132.47 445 133V140M427 138H445M434 131V149M443.001 149C442.471 149 441.962 148.789 441.587 148.414C441.212 148.039 441.001 147.53 441.001 147C441.001 146.47 441.212 145.961 441.587 145.586C441.962 145.211 442.471 145 443.001 145M443.001 149C443.531 149 444.04 148.789 444.415 148.414C444.79 148.039 445.001 147.53 445.001 147C445.001 146.47 444.79 145.961 444.415 145.586C444.04 145.211 443.531 145 443.001 145M443.001 149V150.5M443.001 145V143.5M446.032 145.25L444.733 146M441.27 148L439.97 148.75M439.97 145.25L441.27 146M444.733 148L446.033 148.75" stroke="black" stroke-width="2" stroke-linecap="round" stroke-linejoin="round"/>
<path d="M484.5 149H477C476.47 149 475.961 148.789 475.586 148.414C475.211 148.039 475 147.53 475 147V133C475 132.47 475.211 131.961 475.586 131.586C475.961 131.211 476.47 131 477 131H491C491.53 131 492.039 131.211 492.414 131.586C492.789 131.961 493 132.47 493 133V140.5M475 138H493M482 131V149M488 147H494M491 144V150" stroke="black" stroke-width="2" stroke-linecap="round" stroke-linejoin="round"/>
<path d="M532 149H525C524.47 149 523.961 148.789 523.586 148.414C523.211 148.039 523 147.53 523 147V133C523 132.47 523.211 131.961 523.586 131.586C523.961 131.211 524.47 131 525 131H539C539.53 131 540.039 131.211 540.414 131.586C540.789 131.961 541 132.47 541 133V141M523 138H541M530 131V149M536 150L541 145M541 145V149.5M541 145H536.5" stroke="black" stroke-width="2" stroke-linecap="round" stroke-linejoin="round"/>
<path d="M571 141V133C571 132.47 571.211 131.961 571.586 131.586C571.961 131.211 572.47 131 573 131H587C587.53 131 588.039 131.211 588.414 131.586C588.789 131.961 589 132.47 589 133V147C589 147.53 588.789 148.039 588.414 148.414C588.039 148.789 587.53 149 587 149H579M571 138H589M578 131V142M570 150L575 145M575 145V149.5M575 145H570.5" stroke="black" stroke-width="2" stroke-linecap="round" stroke-linejoin="round"/>
<path d="M619 138H637M626 131V149M619 133C619 132.47 619.211 131.961 619.586 131.586C619.961 131.211 620.47 131 621 131H635C635.53 131 636.039 131.211 636.414 131.586C636.789 131.961 637 132.47 637 133V147C637 147.53 636.789 148.039 636.414 148.414C636.039 148.789 635.53 149 635 149H621C620.47 149 619.961 148.789 619.586 148.414C619.211 148.039 619 147.53 619 147V133Z" stroke="black" stroke-width="2" stroke-linecap="round" stroke-linejoin="round"/>
<path d="M667 138H676M685 138H676M676 138V143.5V149M667 133C667 132.47 667.211 131.961 667.586 131.586C667.961 131.211 668.47 131 669 131H683C683.53 131 684.039 131.211 684.414 131.586C684.789 131.961 685 132.47 685 133V147C685 147.53 684.789 148.039 684.414 148.414C684.039 148.789 683.53 149 683 149H669C668.47 149 667.961 148.789 667.586 148.414C667.211 148.039 667 147.53 667 147V133Z" stroke="black" stroke-width="2" stroke-linecap="round" stroke-linejoin="round"/>
<path d="M715 147C715 147.53 715.211 148.039 715.586 148.414C715.961 148.789 716.47 149 717 149H731C731.53 149 732.039 148.789 732.414 148.414C732.789 148.039 733 147.53 733 147V133C733 132.47 732.789 131.961 732.414 131.586C732.039 131.211 731.53 131 731 131H717C716.47 131 715.961 131.211 715.586 131.586C715.211 131.961 715 132.47 715 133V147ZM715 147L722 140M722 138H733M722 131V149M721 131L715 137M722 135L715 142M722 145L718 149" stroke="black" stroke-width="2" stroke-linecap="round" stroke-linejoin="round"/>
<path d="M775 140H779M766 132H770C770.265 132 770.52 132.105 770.707 132.293C770.895 132.48 771 132.735 771 133V147C771 147.265 770.895 147.52 770.707 147.707C770.52 147.895 770.265 148 770 148H766C765.735 148 765.48 147.895 765.293 147.707C765.105 147.52 765 147.265 765 147V133C765 132.735 765.105 132.48 765.293 132.293C765.48 132.105 765.735 132 766 132Z" stroke="black" stroke-width="2" stroke-linecap="round" stroke-linejoin="round"/>
<path d="M829 147C829 147.53 828.789 148.039 828.414 148.414C828.039 148.789 827.53 149 827 149H813C812.47 149 811.961 148.789 811.586 148.414C811.211 148.039 811 147.53 811 147V133C811 132.47 811.211 131.961 811.586 131.586C811.961 131.211 812.47 131 813 131H827C827.53 131 828.039 131.211 828.414 131.586C828.789 131.961 829 132.47 829 133V147ZM829 147L822 140M822 138H811M822 131V149M823 131L829 137M822 135L829 142M822 145L826 149" stroke="black" stroke-width="2" stroke-linecap="round" stroke-linejoin="round"/>
<path d="M868.5 149H861C860.47 149 859.961 148.789 859.586 148.414C859.211 148.039 859 147.53 859 147V133C859 132.47 859.211 131.961 859.586 131.586C859.961 131.211 860.47 131 861 131H875C875.53 131 876.039 131.211 876.414 131.586C876.789 131.961 877 132.47 877 133V140.5M859 138H877M866 131V149M878 147L872 147M872 147L875 150M872 147L875 144" stroke="black" stroke-width="2" stroke-linecap="round" stroke-linejoin="round"/>
</svg>
