<svg width="335" height="184" viewBox="0 0 335 184" fill="none" xmlns="http://www.w3.org/2000/svg">
<path d="M40 42C40 40.8954 40.8954 40 42 40H293C294.105 40 295 40.8954 295 42V142C295 143.105 294.105 144 293 144H42C40.8954 144 40 143.105 40 142V42Z" fill="white"/>
<path d="M42 40V41H293V40V39H42V40ZM295 42H294V142H295H296V42H295ZM293 144V143H42V144V145H293V144ZM40 142H41V42H40H39V142H40ZM42 144V143C41.4477 143 41 142.552 41 142H40H39C39 143.657 40.3431 145 42 145V144ZM295 142H294C294 142.552 293.552 143 293 143V144V145C294.657 145 296 143.657 296 142H295ZM293 40V41C293.552 41 294 41.4477 294 42H295H296C296 40.3431 294.657 39 293 39V40ZM42 40V39C40.3431 39 39 40.3431 39 42H40H41C41 41.4477 41.4477 41 42 41V40Z" fill="white" fill-opacity="0.1"/>
<g clip-path="url(#paint0_diamond_62_7338_clip_path)" data-figma-skip-parse="true"><g transform="matrix(0.00775 0.01525 -0.0123896 0.00629635 83.25 82.25)"><rect x="0" y="0" width="1343.02" height="1472.73" fill="url(#paint0_diamond_62_7338)" opacity="1" shape-rendering="crispEdges"/><rect x="0" y="0" width="1343.02" height="1472.73" transform="scale(1 -1)" fill="url(#paint0_diamond_62_7338)" opacity="1" shape-rendering="crispEdges"/><rect x="0" y="0" width="1343.02" height="1472.73" transform="scale(-1 1)" fill="url(#paint0_diamond_62_7338)" opacity="1" shape-rendering="crispEdges"/><rect x="0" y="0" width="1343.02" height="1472.73" transform="scale(-1)" fill="url(#paint0_diamond_62_7338)" opacity="1" shape-rendering="crispEdges"/></g></g><path d="M67 79C67 72.3726 72.3726 67 79 67V67C85.6274 67 91 72.3726 91 79V79C91 85.6274 85.6274 91 79 91V91C72.3726 91 67 85.6274 67 79V79Z" data-figma-gradient-fill="{&#34;type&#34;:&#34;GRADIENT_DIAMOND&#34;,&#34;stops&#34;:[{&#34;color&#34;:{&#34;r&#34;:0.21634615957736969,&#34;g&#34;:0.88245195150375366,&#34;b&#34;:1.0,&#34;a&#34;:1.0},&#34;position&#34;:0.0},{&#34;color&#34;:{&#34;r&#34;:0.16826923191547394,&#34;g&#34;:0.40392628312110901,&#34;b&#34;:1.0,&#34;a&#34;:1.0},&#34;position&#34;:1.0}],&#34;stopsVar&#34;:[{&#34;color&#34;:{&#34;r&#34;:0.21634615957736969,&#34;g&#34;:0.88245195150375366,&#34;b&#34;:1.0,&#34;a&#34;:1.0},&#34;position&#34;:0.0},{&#34;color&#34;:{&#34;r&#34;:0.16826923191547394,&#34;g&#34;:0.40392628312110901,&#34;b&#34;:1.0,&#34;a&#34;:1.0},&#34;position&#34;:1.0}],&#34;transform&#34;:{&#34;m00&#34;:15.499999046325684,&#34;m01&#34;:-24.779188156127930,&#34;m02&#34;:87.889595031738281,&#34;m10&#34;:30.50,&#34;m11&#34;:12.592702865600586,&#34;m12&#34;:60.703647613525391},&#34;opacity&#34;:1.0,&#34;blendMode&#34;:&#34;NORMAL&#34;,&#34;visible&#34;:true}"/>
<path d="M79 66.25C86.0416 66.25 91.75 71.9584 91.75 79C91.75 86.0416 86.0416 91.75 79 91.75C71.9584 91.75 66.25 86.0416 66.25 79C66.25 71.9584 71.9584 66.25 79 66.25Z" stroke="white" stroke-opacity="0.6" stroke-width="1.5"/>
<path d="M84.25 79C85.9068 79 87.25 77.6568 87.25 76C87.25 74.3431 85.9068 73 84.25 73C82.5931 73 81.25 74.3431 81.25 76C81.25 77.6568 82.5931 79 84.25 79Z" fill="url(#paint1_linear_62_7338)"/>
<path d="M84.2508 78.3908C85.5717 78.3908 86.6425 77.32 86.6425 75.9991C86.6425 74.6782 85.5717 73.6074 84.2508 73.6074C82.9299 73.6074 81.8591 74.6782 81.8591 75.9991C81.8591 77.32 82.9299 78.3908 84.2508 78.3908Z" fill="url(#paint2_radial_62_7338)"/>
<path d="M84.2518 78.2234C85.4793 78.2234 86.4744 77.2284 86.4744 76.0009C86.4744 74.7734 85.4793 73.7783 84.2518 73.7783C83.0243 73.7783 82.0293 74.7734 82.0293 76.0009C82.0293 77.2284 83.0243 78.2234 84.2518 78.2234Z" fill="url(#paint3_linear_62_7338)"/>
<path d="M73.75 79C72.0931 79 70.75 77.6568 70.75 76C70.75 74.3431 72.0931 73 73.75 73C75.4068 73 76.75 74.3431 76.75 76C76.75 77.6568 75.4068 79 73.75 79Z" fill="url(#paint4_linear_62_7338)"/>
<path d="M73.7489 78.3908C72.428 78.3908 71.3572 77.32 71.3572 75.9991C71.3572 74.6782 72.428 73.6074 73.7489 73.6074C75.0698 73.6074 76.1405 74.6782 76.1405 75.9991C76.1405 77.32 75.0698 78.3908 73.7489 78.3908Z" fill="url(#paint5_radial_62_7338)"/>
<path d="M73.7477 78.2234C72.5202 78.2234 71.5251 77.2284 71.5251 76.0009C71.5251 74.7734 72.5202 73.7783 73.7477 73.7783C74.9752 73.7783 75.9702 74.7734 75.9702 76.0009C75.9702 77.2284 74.9752 78.2234 73.7477 78.2234Z" fill="url(#paint6_linear_62_7338)"/>
<path d="M80.1245 73.7637H77.8745C74.5608 73.7637 71.8745 76.4499 71.8745 79.7636V79.7637C71.8745 83.0774 74.5608 85.7636 77.8745 85.7636H80.1245C83.4382 85.7636 86.1245 83.0774 86.1245 79.7637V79.7636C86.1245 76.4499 83.4382 73.7637 80.1245 73.7637Z" fill="url(#paint7_linear_62_7338)"/>
<path d="M81.2492 77.1533H76.7493C74.8853 77.1533 73.3743 78.6644 73.3743 80.5283C73.3743 82.3923 74.8853 83.9033 76.7493 83.9033H81.2492C83.1132 83.9033 84.6242 82.3923 84.6242 80.5283C84.6242 78.6644 83.1132 77.1533 81.2492 77.1533Z" fill="url(#paint8_radial_62_7338)"/>
<path d="M81.6233 82.3652C82.866 82.3652 83.8733 81.3579 83.8733 80.1152C83.8733 78.8726 82.866 77.8652 81.6233 77.8652C80.3807 77.8652 79.3733 78.8726 79.3733 80.1152C79.3733 81.3579 80.3807 82.3652 81.6233 82.3652Z" fill="url(#paint9_radial_62_7338)" style="mix-blend-mode:screen"/>
<path d="M81.6242 81.6541C82.473 81.6541 83.1612 80.966 83.1612 80.1171C83.1612 79.2682 82.473 78.5801 81.6242 78.5801C80.7753 78.5801 80.0872 79.2682 80.0872 80.1171C80.0872 80.966 80.7753 81.6541 81.6242 81.6541Z" fill="white"/>
<path d="M81.6236 81.2097C82.2268 81.2097 82.7158 80.7207 82.7158 80.1175C82.7158 79.5144 82.2268 79.0254 81.6236 79.0254C81.0205 79.0254 80.5315 79.5144 80.5315 80.1175C80.5315 80.7207 81.0205 81.2097 81.6236 81.2097Z" fill="#071235"/>
<path d="M81.9755 79.6149C82.0172 79.5111 82.1137 79.4412 82.2436 79.4574C82.3928 79.4757 82.4929 79.604 82.5487 79.7344C82.6416 79.9513 82.6452 80.2053 82.5586 80.4249C82.35 80.9538 81.5942 81.2323 81.1222 80.8724C81.0127 80.7889 80.9069 80.6617 80.9053 80.5167C80.9027 80.3107 81.0952 80.2773 81.2615 80.2841C81.4639 80.2924 81.6897 80.3587 81.8525 80.1965C81.9865 80.063 81.9578 79.9164 81.9526 79.7479C81.951 79.7004 81.9588 79.6545 81.9755 79.6144V79.6149Z" fill="#2C3553"/>
<path d="M81.6369 80.3427C81.9831 80.3427 82.2638 80.062 82.2638 79.7158C82.2638 79.3695 81.9831 79.0889 81.6369 79.0889C81.2907 79.0889 81.01 79.3695 81.01 79.7158C81.01 80.062 81.2907 80.3427 81.6369 80.3427Z" fill="white"/>
<path d="M80.867 80.5066C80.997 80.5066 81.1023 80.4013 81.1023 80.2714C81.1023 80.1415 80.997 80.0361 80.867 80.0361C80.7371 80.0361 80.6318 80.1415 80.6318 80.2714C80.6318 80.4013 80.7371 80.5066 80.867 80.5066Z" fill="white"/>
<path d="M76.3757 82.3652C77.6184 82.3652 78.6257 81.3579 78.6257 80.1152C78.6257 78.8726 77.6184 77.8652 76.3757 77.8652C75.1331 77.8652 74.1257 78.8726 74.1257 80.1152C74.1257 81.3579 75.1331 82.3652 76.3757 82.3652Z" fill="url(#paint10_radial_62_7338)" style="mix-blend-mode:screen"/>
<path d="M76.3756 81.6541C77.2245 81.6541 77.9127 80.966 77.9127 80.1171C77.9127 79.2682 77.2245 78.5801 76.3756 78.5801C75.5268 78.5801 74.8386 79.2682 74.8386 80.1171C74.8386 80.966 75.5268 81.6541 76.3756 81.6541Z" fill="white"/>
<path d="M76.3753 81.2097C76.9785 81.2097 77.4675 80.7207 77.4675 80.1175C77.4675 79.5144 76.9785 79.0254 76.3753 79.0254C75.7722 79.0254 75.2832 79.5144 75.2832 80.1175C75.2832 80.7207 75.7722 81.2097 76.3753 81.2097Z" fill="#071235"/>
<path d="M76.7277 79.6149C76.7694 79.5111 76.8659 79.4412 76.9958 79.4574C77.145 79.4757 77.2451 79.604 77.3009 79.7344C77.3937 79.9513 77.3974 80.2053 77.3108 80.4249C77.1022 80.9538 76.3464 81.2323 75.8744 80.8724C75.7649 80.7889 75.6591 80.6617 75.6575 80.5167C75.6549 80.3107 75.8474 80.2773 76.0137 80.2841C76.2161 80.2924 76.4419 80.3587 76.6047 80.1965C76.7387 80.063 76.71 79.9164 76.7048 79.7479C76.7032 79.7004 76.711 79.6545 76.7277 79.6144V79.6149Z" fill="#2C3553"/>
<path d="M76.3884 80.3427C76.7346 80.3427 77.0153 80.062 77.0153 79.7158C77.0153 79.3695 76.7346 79.0889 76.3884 79.0889C76.0422 79.0889 75.7615 79.3695 75.7615 79.7158C75.7615 80.062 76.0422 80.3427 76.3884 80.3427Z" fill="white"/>
<path d="M75.6192 80.5066C75.7492 80.5066 75.8545 80.4013 75.8545 80.2714C75.8545 80.1415 75.7492 80.0361 75.6192 80.0361C75.4893 80.0361 75.384 80.1415 75.384 80.2714C75.384 80.4013 75.4893 80.5066 75.6192 80.5066Z" fill="white"/>
<path d="M79.0118 83.1396C78.254 83.1396 77.7902 82.7331 77.771 82.7159C77.6665 82.6226 77.6574 82.4624 77.7507 82.358C77.8434 82.2541 78.0031 82.245 78.1075 82.3367C78.1237 82.3509 78.4573 82.6327 79.0118 82.6327C79.5663 82.6327 79.8644 82.3611 79.876 82.3494C79.9723 82.248 80.132 82.2455 80.2334 82.3423C80.3348 82.4391 80.3373 82.6003 80.2404 82.7017C80.2232 82.7194 79.8132 83.1396 79.0118 83.1396Z" fill="white"/>
<path d="M116.981 85.3332C116.729 85.3243 116.481 85.2618 116.251 85.1495C116.138 85.0974 116.029 85.0362 115.924 84.9663L109.77 80.7591C109.412 80.5199 109.12 80.1823 108.927 79.7819C108.733 79.3815 108.645 78.933 108.671 78.4838C108.696 78.1222 108.797 77.7713 108.967 77.457C109.163 77.8208 109.439 78.1291 109.771 78.3555L115.924 82.563C116.226 82.83 116.607 82.9762 117 82.9762C117.392 82.9762 117.773 82.83 118.075 82.563L124.228 78.3555C124.56 78.1292 124.836 77.8209 125.032 77.457C125.202 77.7714 125.303 78.1223 125.328 78.4838C125.354 78.933 125.266 79.3814 125.072 79.7818C124.879 80.1822 124.587 80.5198 124.228 80.7591L118.075 84.9666C117.743 85.1793 117.368 85.3049 116.981 85.3332Z" fill="#2C438D"/>
<path d="M117 79.0375C116.742 79.0259 116.49 78.9554 116.26 78.8308C116.143 78.7714 116.031 78.7024 115.924 78.6246L109.771 74.4171C109.412 74.1778 109.121 73.8401 108.927 73.4397C108.734 73.0392 108.645 72.5908 108.671 72.1416C108.709 71.6867 108.86 71.2509 109.11 70.8795C109.36 70.5081 109.699 70.2147 110.092 70.0301L112.294 68.9571C112.647 68.7866 113.03 68.6985 113.418 68.6984C113.91 68.6969 114.392 68.8393 114.813 69.1101L116.981 70.5177L119.089 69.1014C119.517 68.8157 120.012 68.665 120.518 68.667C120.905 68.6671 121.288 68.7554 121.641 68.9258L123.908 70.0298C124.301 70.2144 124.64 70.5077 124.89 70.8791C125.14 71.2505 125.291 71.6864 125.329 72.1413C125.355 72.5906 125.267 73.039 125.073 73.4395C124.88 73.8399 124.588 74.1776 124.229 74.4169L118.076 78.6241C117.969 78.7021 117.857 78.7712 117.74 78.8305C117.51 78.9554 117.257 79.026 117 79.0375ZM113.576 70.6437C113.479 70.6434 113.383 70.6652 113.295 70.7076L111.19 71.7327C111.115 71.7637 111.05 71.8158 111 71.8834C110.951 71.9511 110.92 72.0317 110.91 72.1166C110.907 72.1963 110.925 72.2754 110.962 72.3451C110.998 72.4148 111.052 72.4725 111.117 72.5118L116.999 76.5333L122.881 72.5118C122.947 72.4726 123.001 72.4149 123.037 72.3452C123.074 72.2755 123.092 72.1964 123.089 72.1166C123.079 72.0317 123.048 71.9511 122.999 71.8835C122.949 71.8159 122.884 71.7638 122.809 71.7327L120.643 70.6776C120.554 70.6353 120.459 70.6136 120.362 70.614C120.238 70.6129 120.117 70.6487 120.011 70.7171L117.343 72.5096C117.239 72.5763 117.12 72.6119 116.998 72.6129C116.876 72.6138 116.756 72.58 116.651 72.5149L113.918 70.7412C113.815 70.6767 113.696 70.6434 113.576 70.6449V70.6437Z" fill="#34BFA3"/>
<path d="M116.981 82.3065C116.727 82.2959 116.477 82.2262 116.251 82.1023C116.137 82.0439 116.028 81.9757 115.924 81.8984L109.771 77.6906C109.412 77.4514 109.12 77.1138 108.927 76.7134C108.733 76.313 108.645 75.8645 108.671 75.4153C108.697 75.0474 108.801 74.6906 108.976 74.3721C109.171 74.729 109.444 75.0313 109.771 75.2543L115.924 79.4617C116.226 79.7288 116.607 79.875 116.999 79.875C117.392 79.875 117.773 79.7288 118.075 79.4617L124.228 75.2543C124.555 75.0313 124.828 74.729 125.023 74.3721C125.198 74.6906 125.302 75.0474 125.328 75.4153C125.354 75.8645 125.266 76.3129 125.072 76.7133C124.879 77.1136 124.587 77.4511 124.228 77.6903L118.075 81.8981C117.965 81.9752 117.849 82.0433 117.73 82.102C117.496 82.2246 117.241 82.2943 116.981 82.3065Z" fill="#5D78FF"/>
<g clip-path="url(#clip0_62_7338)">
<path d="M143 77C143 69 145 67 153 67C161 67 163 69 163 77C163 85 161 87 153 87C145 87 143 85 143 77Z" fill="url(#paint11_linear_62_7338)"/>
<path d="M158.481 75.38C158.43 75.2054 158.37 75.0337 158.301 74.8657C158.012 74.1523 157.583 73.5043 157.039 72.96C156.495 72.4157 155.847 71.9864 155.134 71.6973C154.992 72.1606 154.82 72.6141 154.62 73.0552C155.141 73.2706 155.616 73.5871 156.015 73.9865C156.414 74.3858 156.73 74.8602 156.946 75.3822C157.016 75.5515 157.074 75.7253 157.121 75.9025C157.177 76.1119 157.217 76.3253 157.239 76.5409L156.952 76.3735C155.874 75.7431 154.934 74.9008 154.19 73.8972C153.939 74.3427 153.657 74.7703 153.348 75.1772C153.91 75.8623 154.555 76.4746 155.268 77.0001C154.096 77.8653 153.112 78.9601 152.376 80.2178C152.205 80.5117 152.047 80.8108 151.904 81.1194C151.87 81.1929 151.837 81.2663 151.805 81.3398C151.783 81.3888 151.762 81.4391 151.74 81.4905C151.721 81.5375 151.701 81.5845 151.682 81.633C151.675 81.6485 151.67 81.6631 151.663 81.6786C151.559 81.9409 151.464 82.2091 151.383 82.481C152.368 82.772 153.414 82.7918 154.409 82.5384C155.405 82.285 156.314 81.7679 157.041 81.0412C157.767 80.3146 158.284 79.4054 158.538 78.4095C158.791 77.4136 158.771 76.3678 158.48 75.3822L158.481 75.38ZM153.468 81.2362C153.518 81.1407 153.573 81.0437 153.628 80.9496C154.432 79.5746 155.577 78.4295 156.951 77.624L157.239 77.4565C157.133 78.4212 156.702 79.321 156.016 80.0078C155.331 80.6947 154.432 81.1284 153.468 81.2362Z" fill="white"/>
<path d="M149.058 78.6159C148.988 78.4469 148.929 78.2733 148.882 78.0964C148.826 77.8864 148.786 77.6725 148.763 77.4564L149.05 77.624C150.129 78.2546 151.069 79.0975 151.813 80.1017C152.064 79.6562 152.345 79.2284 152.654 78.821C152.092 78.1358 151.447 77.5234 150.733 76.9979C151.906 76.133 152.89 75.0385 153.626 73.7811C153.798 73.4872 153.955 73.1866 154.099 72.878L154.163 72.7355C154.183 72.6914 154.202 72.6473 154.221 72.6025C154.374 72.2492 154.506 71.8876 154.617 71.5194C153.632 71.2289 152.586 71.2093 151.591 71.463C150.595 71.7166 149.686 72.234 148.96 72.9607C148.233 73.6874 147.716 74.5964 147.462 75.5923C147.209 76.5882 147.228 77.634 147.519 78.6196C147.57 78.7945 147.631 78.9672 147.7 79.134C147.988 79.8474 148.418 80.4953 148.962 81.0395C149.506 81.5837 150.154 82.0129 150.867 82.3016C151.009 81.8391 151.181 81.3862 151.381 80.946C150.86 80.7297 150.386 80.4125 149.987 80.0127C149.589 79.6128 149.273 79.1381 149.058 78.6159ZM152.538 72.7604C152.485 72.8574 152.432 72.9537 152.376 73.0477C151.57 74.4222 150.425 75.5671 149.051 76.3727L148.763 76.5409C148.869 75.5756 149.301 74.6751 149.987 73.9879C150.673 73.3007 151.572 72.8677 152.538 72.7604Z" fill="white"/>
</g>
<path d="M190.056 76.2316C189.429 76.7291 189.252 77.2314 189.641 77.7206C190.064 78.1672 190.587 78.0669 191.169 77.5137C192.531 76.1472 193.836 74.7105 195.196 73.3387C195.422 73.5625 195.696 73.7326 195.996 73.8365C196.297 73.9404 196.617 73.9755 196.933 73.9392C197.248 73.9029 197.552 73.7962 197.821 73.6268C198.091 73.4575 198.319 73.2298 198.489 72.9605C199.025 72.1729 199.906 70.3739 199.125 69.4701C198.345 68.5662 196.443 69.1848 195.592 69.6034C195.302 69.7337 195.044 69.9276 194.838 70.1709C194.633 70.4142 194.484 70.7007 194.403 71.0093C194.322 71.3179 194.311 71.6408 194.371 71.9542C194.43 72.2676 194.559 72.5636 194.748 72.8205C193.201 73.9793 191.596 75.0678 190.056 76.2316ZM200.817 77.0857C200.705 76.5112 200.543 75.9477 200.332 75.4017C200.211 75.0868 199.97 74.8331 199.662 74.6965C199.355 74.5599 199.005 74.5516 198.692 74.6733C198.378 74.7951 198.125 75.037 197.989 75.3458C197.853 75.6545 197.844 76.0049 197.966 76.3199C198.124 76.7266 198.245 77.1468 198.327 77.5753C198.619 79.0811 198.441 80.6407 197.817 82.0411C197.193 83.4415 196.154 84.6146 194.841 85.4C193.528 86.1855 192.005 86.5451 190.481 86.4297C188.956 86.3143 187.504 85.7296 186.324 84.7553C185.143 83.7811 184.29 82.4649 183.883 80.9864C183.475 79.5078 183.532 77.9391 184.046 76.4944C184.56 75.0497 185.506 73.7993 186.755 72.9142C188.003 72.029 189.494 71.5522 191.022 71.5487C191.342 71.5494 191.661 71.5703 191.978 71.6114C192.309 71.6487 192.641 71.5542 192.902 71.3482C193.164 71.1422 193.334 70.8413 193.376 70.5104C193.418 70.1795 193.329 69.8452 193.128 69.5796C192.927 69.314 192.63 69.1384 192.301 69.0908C190.998 68.9134 189.674 68.9965 188.404 69.3352C187.133 69.6739 185.942 70.2615 184.899 71.0642C183.856 71.8669 182.982 72.8688 182.327 74.0121C181.671 75.1555 181.248 76.4177 181.081 77.726C180.914 79.0343 181.006 80.3628 181.353 81.635C181.7 82.9072 182.295 84.098 183.102 85.1386C183.91 86.1792 184.915 87.0492 186.059 87.6983C187.203 88.3474 188.464 88.7629 189.769 88.9207C190.403 89 191.042 89.0199 191.679 88.98C193.092 88.8876 194.469 88.4942 195.718 87.8261C196.968 87.158 198.061 86.2305 198.926 85.1052C199.79 83.98 200.406 82.6829 200.732 81.3002C201.058 79.9176 201.087 78.4804 200.817 77.0857ZM196.778 76.0596C196.34 75.593 195.801 75.693 195.201 76.2652C193.863 77.603 193.146 78.5238 191.817 79.8736L191.462 79.4653C191.25 79.2203 190.949 79.0698 190.626 79.0468C190.303 79.0238 189.984 79.1302 189.739 79.3427L186.551 82.1145C186.463 82.1914 186.409 82.3002 186.4 82.4171C186.392 82.534 186.43 82.6494 186.507 82.7381L186.514 82.7428C186.551 82.7868 186.597 82.8229 186.648 82.849C186.699 82.8752 186.755 82.8908 186.813 82.8949C186.87 82.8991 186.927 82.8917 186.982 82.8733C187.036 82.8548 187.087 82.8256 187.13 82.7874L189.919 80.3639C190 80.3025 190.101 80.2741 190.202 80.2843C190.303 80.2946 190.397 80.3428 190.464 80.4192L190.471 80.4295C190.537 80.5064 190.571 80.6056 190.567 80.707C190.563 80.8085 190.52 80.9045 190.448 80.9757L187.659 83.3957C187.571 83.4725 187.517 83.5812 187.508 83.6979C187.5 83.8146 187.538 83.9299 187.614 84.0186L187.623 84.0299C187.7 84.1165 187.807 84.1696 187.923 84.178C188.038 84.1863 188.152 84.1492 188.24 84.0745L191.03 81.6446C191.111 81.5848 191.211 81.5573 191.311 81.5676C191.411 81.5779 191.503 81.6252 191.57 81.7003L191.579 81.7116C191.646 81.788 191.681 81.8873 191.677 81.9889C191.673 82.0904 191.63 82.1865 191.557 82.2572L188.767 84.6818C188.68 84.7583 188.626 84.8663 188.618 84.9824C188.61 85.0984 188.647 85.213 188.723 85.3013L188.733 85.3133C188.809 85.4007 188.916 85.4544 189.031 85.4626C189.146 85.4709 189.26 85.433 189.347 85.3573L192.54 82.5818C192.661 82.4764 192.76 82.348 192.832 82.2041C192.904 82.0601 192.947 81.9033 192.958 81.7427C192.97 81.5821 192.95 81.4209 192.899 81.2681C192.848 81.1153 192.768 80.9741 192.663 80.8524L192.307 80.4448C193.829 79.3147 194.837 78.7348 196.348 77.5967C196.997 77.0791 197.178 76.5612 196.779 76.0593L196.778 76.0596Z" fill="#0973B9"/>
<path d="M252.5 81.9167C252.914 81.9167 253.25 81.5809 253.25 81.1667C253.25 80.7525 252.914 80.4167 252.5 80.4167V81.1667V81.9167ZM252.5 73.5833C252.914 73.5833 253.25 73.2475 253.25 72.8333C253.25 72.4191 252.914 72.0833 252.5 72.0833V72.8333V73.5833ZM252.5 85.25C252.914 85.25 253.25 84.9142 253.25 84.5C253.25 84.0858 252.914 83.75 252.5 83.75V84.5V85.25ZM252.5 70.25C252.914 70.25 253.25 69.9142 253.25 69.5C253.25 69.0858 252.914 68.75 252.5 68.75V69.5V70.25ZM240.75 69.5C240.75 69.0858 240.414 68.75 240 68.75C239.586 68.75 239.25 69.0858 239.25 69.5H240H240.75ZM239.25 73.6667C239.25 74.0809 239.586 74.4167 240 74.4167C240.414 74.4167 240.75 74.0809 240.75 73.6667H240H239.25ZM239.25 84.5C239.25 84.9142 239.586 85.25 240 85.25C240.414 85.25 240.75 84.9142 240.75 84.5H240H239.25ZM240.75 76.1667C240.75 75.7525 240.414 75.4167 240 75.4167C239.586 75.4167 239.25 75.7525 239.25 76.1667H240H240.75ZM237.917 72.9167C237.502 72.9167 237.167 73.2525 237.167 73.6667C237.167 74.0809 237.502 74.4167 237.917 74.4167V73.6667V72.9167ZM242.083 74.4167C242.498 74.4167 242.833 74.0809 242.833 73.6667C242.833 73.2525 242.498 72.9167 242.083 72.9167V73.6667V74.4167ZM243.25 69.5C243.25 69.0858 242.914 68.75 242.5 68.75C242.086 68.75 241.75 69.0858 241.75 69.5H242.5H243.25ZM238.25 69.5C238.25 69.0858 237.914 68.75 237.5 68.75C237.086 68.75 236.75 69.0858 236.75 69.5H237.5H238.25ZM252.5 81.1667V80.4167C250.613 80.4167 249.083 78.887 249.083 77H248.333H247.583C247.583 79.7154 249.785 81.9167 252.5 81.9167V81.1667ZM248.333 77H249.083C249.083 75.113 250.613 73.5833 252.5 73.5833V72.8333V72.0833C249.785 72.0833 247.583 74.2846 247.583 77H248.333ZM252.5 84.5V83.75C248.772 83.75 245.75 80.728 245.75 77H245H244.25C244.25 81.5564 247.944 85.25 252.5 85.25V84.5ZM245 77H245.75C245.75 73.2721 248.772 70.25 252.5 70.25V69.5V68.75C247.944 68.75 244.25 72.4437 244.25 77H245ZM240 69.5H239.25V73.6667H240H240.75V69.5H240ZM240 84.5H240.75V76.1667H240H239.25V84.5H240ZM237.917 73.6667V74.4167H242.083V73.6667V72.9167H237.917V73.6667ZM242.5 69.5H241.75V73.1269H242.5H243.25V69.5H242.5ZM242.5 73.1269H241.75C241.75 73.9823 241.489 74.5506 241.168 74.8974C240.844 75.2474 240.42 75.4167 240 75.4167C239.58 75.4167 239.156 75.2473 238.832 74.8973C238.511 74.5505 238.25 73.9822 238.25 73.1267H237.5H236.75C236.75 74.2978 237.114 75.2495 237.731 75.916C238.344 76.5793 239.17 76.9166 240 76.9167C240.83 76.9167 241.656 76.5794 242.269 75.9161C242.886 75.2496 243.25 74.298 243.25 73.1269H242.5ZM237.5 73.1267H238.25V69.5H237.5H236.75V73.1267H237.5Z" fill="#245FDF"/>
<path d="M85.3334 105.75L77.7355 99.3514C77.5297 99.1781 77.2692 99.083 77.0001 99.083C76.731 99.083 76.4705 99.1781 76.2647 99.3514L68.6667 105.75M84.0834 101.166V109.916C84.0834 112.273 84.0834 113.452 83.3512 114.184C82.6189 114.916 81.4404 114.916 79.0834 114.916H74.9167C72.5597 114.916 71.3812 114.916 70.649 114.184C69.9167 113.452 69.9167 112.273 69.9167 109.916V104.916M75.7501 106.583H74.9167V107.416H75.7501V106.583ZM79.0834 106.583H78.2501V107.416H79.0834V106.583ZM75.7501 109.916H74.9167V110.75H75.7501V109.916ZM79.0834 109.916H78.2501V110.75H79.0834V109.916Z" stroke="#717680" stroke-width="1.5" stroke-linecap="round" stroke-linejoin="round"/>
<rect x="40" y="4" width="89.1719" height="30" rx="3" fill="white"/>
<rect x="40.5" y="4.5" width="88.1719" height="29" rx="2.5" stroke="white" stroke-opacity="0.0980392"/>
<path d="M47.9375 14V22H46.9688V14H47.9375ZM52.1924 22.125C51.6299 22.125 51.1455 21.9922 50.7393 21.7266C50.333 21.4609 50.0205 21.0951 49.8018 20.6289C49.583 20.1628 49.4736 19.6302 49.4736 19.0312C49.4736 18.4219 49.5856 17.8841 49.8096 17.418C50.0361 16.9492 50.3512 16.5833 50.7549 16.3203C51.1611 16.0547 51.6351 15.9219 52.1768 15.9219C52.5986 15.9219 52.9788 16 53.3174 16.1562C53.6559 16.3125 53.9333 16.5312 54.1494 16.8125C54.3656 17.0937 54.4997 17.4219 54.5518 17.7969H53.6299C53.5596 17.5234 53.4033 17.2812 53.1611 17.0703C52.9215 16.8568 52.5986 16.75 52.1924 16.75C51.833 16.75 51.5179 16.8437 51.2471 17.0312C50.9788 17.2161 50.7692 17.4779 50.6182 17.8164C50.4697 18.1523 50.3955 18.5469 50.3955 19C50.3955 19.4635 50.4684 19.8672 50.6143 20.2109C50.7627 20.5547 50.971 20.8216 51.2393 21.0117C51.5101 21.2018 51.8278 21.2969 52.1924 21.2969C52.432 21.2969 52.6494 21.2552 52.8447 21.1719C53.04 21.0885 53.2054 20.9688 53.3408 20.8125C53.4762 20.6562 53.5726 20.4687 53.6299 20.25H54.5518C54.4997 20.6042 54.3708 20.9232 54.165 21.207C53.9619 21.4883 53.6924 21.7122 53.3564 21.8789C53.0231 22.043 52.6351 22.125 52.1924 22.125ZM58.3369 22.125C57.7952 22.125 57.32 21.9961 56.9111 21.7383C56.5049 21.4805 56.1872 21.1198 55.958 20.6562C55.7314 20.1927 55.6182 19.651 55.6182 19.0312C55.6182 18.4062 55.7314 17.8607 55.958 17.3945C56.1872 16.9284 56.5049 16.5664 56.9111 16.3086C57.32 16.0508 57.7952 15.9219 58.3369 15.9219C58.8786 15.9219 59.3525 16.0508 59.7588 16.3086C60.1676 16.5664 60.4854 16.9284 60.7119 17.3945C60.9411 17.8607 61.0557 18.4062 61.0557 19.0312C61.0557 19.651 60.9411 20.1927 60.7119 20.6562C60.4854 21.1198 60.1676 21.4805 59.7588 21.7383C59.3525 21.9961 58.8786 22.125 58.3369 22.125ZM58.3369 21.2969C58.7484 21.2969 59.0869 21.1914 59.3525 20.9805C59.6182 20.7695 59.8148 20.4922 59.9424 20.1484C60.07 19.8047 60.1338 19.4323 60.1338 19.0312C60.1338 18.6302 60.07 18.2565 59.9424 17.9102C59.8148 17.5638 59.6182 17.2839 59.3525 17.0703C59.0869 16.8568 58.7484 16.75 58.3369 16.75C57.9255 16.75 57.5869 16.8568 57.3213 17.0703C57.0557 17.2839 56.859 17.5638 56.7314 17.9102C56.6038 18.2565 56.54 18.6302 56.54 19.0312C56.54 19.4323 56.6038 19.8047 56.7314 20.1484C56.859 20.4922 57.0557 20.7695 57.3213 20.9805C57.5869 21.1914 57.9255 21.2969 58.3369 21.2969ZM63.3848 18.3906V22H62.4629V16H63.3535V16.9375H63.4316C63.5723 16.6328 63.7858 16.388 64.0723 16.2031C64.3587 16.0156 64.7285 15.9219 65.1816 15.9219C65.5879 15.9219 65.9434 16.0052 66.248 16.1719C66.5527 16.3359 66.7897 16.5859 66.959 16.9219C67.1283 17.2552 67.2129 17.6771 67.2129 18.1875V22H66.291V18.25C66.291 17.7786 66.1686 17.4115 65.9238 17.1484C65.679 16.8828 65.3431 16.75 64.916 16.75C64.6217 16.75 64.3587 16.8138 64.127 16.9414C63.8978 17.069 63.7168 17.2552 63.584 17.5C63.4512 17.7448 63.3848 18.0417 63.3848 18.3906ZM73.1475 17.3437L72.3193 17.5781C72.2673 17.4401 72.1904 17.306 72.0889 17.1758C71.9899 17.043 71.8545 16.9336 71.6826 16.8477C71.5107 16.7617 71.2907 16.7187 71.0225 16.7187C70.6553 16.7187 70.3493 16.8034 70.1045 16.9727C69.8623 17.1393 69.7412 17.3516 69.7412 17.6094C69.7412 17.8385 69.8245 18.0195 69.9912 18.1523C70.1579 18.2852 70.4183 18.3958 70.7725 18.4844L71.6631 18.7031C72.1995 18.8333 72.5993 19.0326 72.8623 19.3008C73.1253 19.5664 73.2568 19.9089 73.2568 20.3281C73.2568 20.6719 73.1579 20.9792 72.96 21.25C72.7646 21.5208 72.4912 21.7344 72.1396 21.8906C71.7881 22.0469 71.3792 22.125 70.9131 22.125C70.3011 22.125 69.7946 21.9922 69.3936 21.7266C68.9925 21.4609 68.7386 21.0729 68.6318 20.5625L69.5068 20.3437C69.5902 20.6667 69.7477 20.9089 69.9795 21.0703C70.2139 21.2318 70.5199 21.3125 70.8975 21.3125C71.3271 21.3125 71.6683 21.2214 71.9209 21.0391C72.1761 20.8542 72.3037 20.6328 72.3037 20.375C72.3037 20.1667 72.2308 19.9922 72.085 19.8516C71.9391 19.7083 71.7152 19.6016 71.4131 19.5312L70.4131 19.2969C69.8636 19.1667 69.46 18.9648 69.2021 18.6914C68.9469 18.4154 68.8193 18.0703 68.8193 17.6562C68.8193 17.3177 68.9144 17.0182 69.1045 16.7578C69.2972 16.4974 69.5589 16.293 69.8896 16.1445C70.223 15.9961 70.6006 15.9219 71.0225 15.9219C71.6162 15.9219 72.0824 16.0521 72.4209 16.3125C72.762 16.5729 73.0042 16.9167 73.1475 17.3437ZM84.3008 16.5H83.332C83.2747 16.2214 83.1745 15.9766 83.0313 15.7656C82.8906 15.5547 82.7188 15.3776 82.5156 15.2344C82.3151 15.0885 82.0924 14.9792 81.8477 14.9062C81.6029 14.8333 81.3477 14.7969 81.082 14.7969C80.5977 14.7969 80.1589 14.9193 79.7656 15.1641C79.375 15.4089 79.0638 15.7695 78.832 16.2461C78.6029 16.7227 78.4883 17.3073 78.4883 18C78.4883 18.6927 78.6029 19.2773 78.832 19.7539C79.0638 20.2305 79.375 20.5911 79.7656 20.8359C80.1589 21.0807 80.5977 21.2031 81.082 21.2031C81.3477 21.2031 81.6029 21.1667 81.8477 21.0937C82.0924 21.0208 82.3151 20.9128 82.5156 20.7695C82.7188 20.6237 82.8906 20.4453 83.0313 20.2344C83.1745 20.0208 83.2747 19.776 83.332 19.5H84.3008C84.2279 19.9089 84.0951 20.2747 83.9023 20.5977C83.7096 20.9206 83.4701 21.1953 83.1836 21.4219C82.8971 21.6458 82.5755 21.8164 82.2188 21.9336C81.8646 22.0508 81.4857 22.1094 81.082 22.1094C80.3997 22.1094 79.793 21.9427 79.2617 21.6094C78.7305 21.276 78.3125 20.8021 78.0078 20.1875C77.7031 19.5729 77.5508 18.8437 77.5508 18C77.5508 17.1562 77.7031 16.4271 78.0078 15.8125C78.3125 15.1979 78.7305 14.724 79.2617 14.3906C79.793 14.0573 80.3997 13.8906 81.082 13.8906C81.4857 13.8906 81.8646 13.9492 82.2188 14.0664C82.5755 14.1836 82.8971 14.3555 83.1836 14.582C83.4701 14.806 83.7096 15.0794 83.9023 15.4023C84.0951 15.7227 84.2279 16.0885 84.3008 16.5ZM91.1162 14H92.085V19.2969C92.085 19.8437 91.9561 20.332 91.6982 20.7617C91.443 21.1888 91.0824 21.526 90.6162 21.7734C90.1501 22.0182 89.6032 22.1406 88.9756 22.1406C88.348 22.1406 87.8011 22.0182 87.335 21.7734C86.8688 21.526 86.5068 21.1888 86.249 20.7617C85.9938 20.332 85.8662 19.8437 85.8662 19.2969V14H86.835V19.2188C86.835 19.6094 86.9209 19.957 87.0928 20.2617C87.2646 20.5638 87.5094 20.8021 87.8271 20.9766C88.1475 21.1484 88.5303 21.2344 88.9756 21.2344C89.4209 21.2344 89.8037 21.1484 90.124 20.9766C90.4443 20.8021 90.6891 20.5638 90.8584 20.2617C91.0303 19.957 91.1162 19.6094 91.1162 19.2188V14ZM94.0195 22V14H94.9883V17.9687H95.082L98.6758 14H99.9414L96.582 17.6094L99.9414 22H98.7695L95.9883 18.2812L94.9883 19.4062V22H94.0195ZM107.257 16.5H106.288C106.231 16.2214 106.131 15.9766 105.987 15.7656C105.847 15.5547 105.675 15.3776 105.472 15.2344C105.271 15.0885 105.049 14.9792 104.804 14.9062C104.559 14.8333 104.304 14.7969 104.038 14.7969C103.554 14.7969 103.115 14.9193 102.722 15.1641C102.331 15.4089 102.02 15.7695 101.788 16.2461C101.559 16.7227 101.444 17.3073 101.444 18C101.444 18.6927 101.559 19.2773 101.788 19.7539C102.02 20.2305 102.331 20.5911 102.722 20.8359C103.115 21.0807 103.554 21.2031 104.038 21.2031C104.304 21.2031 104.559 21.1667 104.804 21.0937C105.049 21.0208 105.271 20.9128 105.472 20.7695C105.675 20.6237 105.847 20.4453 105.987 20.2344C106.131 20.0208 106.231 19.776 106.288 19.5H107.257C107.184 19.9089 107.051 20.2747 106.858 20.5977C106.666 20.9206 106.426 21.1953 106.14 21.4219C105.853 21.6458 105.532 21.8164 105.175 21.9336C104.821 22.0508 104.442 22.1094 104.038 22.1094C103.356 22.1094 102.749 21.9427 102.218 21.6094C101.687 21.276 101.269 20.8021 100.964 20.1875C100.659 19.5729 100.507 18.8437 100.507 18C100.507 17.1562 100.659 16.4271 100.964 15.8125C101.269 15.1979 101.687 14.724 102.218 14.3906C102.749 14.0573 103.356 13.8906 104.038 13.8906C104.442 13.8906 104.821 13.9492 105.175 14.0664C105.532 14.1836 105.853 14.3555 106.14 14.582C106.426 14.806 106.666 15.0794 106.858 15.4023C107.051 15.7227 107.184 16.0885 107.257 16.5ZM114.072 14H115.041V19.2969C115.041 19.8437 114.912 20.332 114.654 20.7617C114.399 21.1888 114.038 21.526 113.572 21.7734C113.106 22.0182 112.559 22.1406 111.932 22.1406C111.304 22.1406 110.757 22.0182 110.291 21.7734C109.825 21.526 109.463 21.1888 109.205 20.7617C108.95 20.332 108.822 19.8437 108.822 19.2969V14H109.791V19.2188C109.791 19.6094 109.877 19.957 110.049 20.2617C110.221 20.5638 110.465 20.8021 110.783 20.9766C111.104 21.1484 111.486 21.2344 111.932 21.2344C112.377 21.2344 112.76 21.1484 113.08 20.9766C113.4 20.8021 113.645 20.5638 113.814 20.2617C113.986 19.957 114.072 19.6094 114.072 19.2188V14ZM116.976 22V14H117.944V17.9687H118.038L121.632 14H122.897L119.538 17.6094L122.897 22H121.726L118.944 18.2812L117.944 19.4062V22H116.976Z" fill="black"/>
<defs>
<clipPath id="paint0_diamond_62_7338_clip_path"><path d="M67 79C67 72.3726 72.3726 67 79 67V67C85.6274 67 91 72.3726 91 79V79C91 85.6274 85.6274 91 79 91V91C72.3726 91 67 85.6274 67 79V79Z"/></clipPath><linearGradient id="paint0_diamond_62_7338" x1="0" y1="0" x2="500" y2="500" gradientUnits="userSpaceOnUse">
<stop stop-color="#37E1FF"/>
<stop offset="1" stop-color="#2B67FF"/>
</linearGradient>
<linearGradient id="paint1_linear_62_7338" x1="86.3835" y1="73.8665" x2="82.1174" y2="78.1325" gradientUnits="userSpaceOnUse">
<stop stop-color="#EEF6FF"/>
<stop offset="1" stop-color="#DEEDFF"/>
</linearGradient>
<radialGradient id="paint2_radial_62_7338" cx="0" cy="0" r="1" gradientUnits="userSpaceOnUse" gradientTransform="translate(84.2508 75.9991) rotate(180) scale(2.39168)">
<stop stop-color="white"/>
<stop offset="1" stop-color="#DEEDFF"/>
</radialGradient>
<linearGradient id="paint3_linear_62_7338" x1="82.7217" y1="77.531" x2="85.7632" y2="74.4895" gradientUnits="userSpaceOnUse">
<stop stop-color="#3D97FF"/>
<stop offset="1" stop-color="#E9F3FF"/>
</linearGradient>
<linearGradient id="paint4_linear_62_7338" x1="71.6165" y1="73.8665" x2="75.8825" y2="78.1325" gradientUnits="userSpaceOnUse">
<stop stop-color="#EEF6FF"/>
<stop offset="1" stop-color="#DEEDFF"/>
</linearGradient>
<radialGradient id="paint5_radial_62_7338" cx="0" cy="0" r="1" gradientUnits="userSpaceOnUse" gradientTransform="translate(73.7489 75.9991) scale(2.39168)">
<stop stop-color="white"/>
<stop offset="1" stop-color="#DEEDFF"/>
</radialGradient>
<linearGradient id="paint6_linear_62_7338" x1="75.2779" y1="77.531" x2="72.2363" y2="74.4895" gradientUnits="userSpaceOnUse">
<stop stop-color="#3D97FF"/>
<stop offset="1" stop-color="#E9F3FF"/>
</linearGradient>
<linearGradient id="paint7_linear_62_7338" x1="78.9995" y1="73.7355" x2="78.9995" y2="85.7715" gradientUnits="userSpaceOnUse">
<stop stop-color="white"/>
<stop offset="1" stop-color="#DEEDFF"/>
</linearGradient>
<radialGradient id="paint8_radial_62_7338" cx="0" cy="0" r="1" gradientUnits="userSpaceOnUse" gradientTransform="translate(78.9547 80.5218) rotate(-0.335306) scale(5.96329 3.97631)">
<stop stop-color="#0A1496"/>
<stop offset="1" stop-color="#020D42"/>
</radialGradient>
<radialGradient id="paint9_radial_62_7338" cx="0" cy="0" r="1" gradientUnits="userSpaceOnUse" gradientTransform="translate(81.6233 80.1152) scale(2.24999)">
<stop offset="0.55" stop-color="#003CD5"/>
<stop offset="1" stop-color="#003CD5" stop-opacity="0"/>
</radialGradient>
<radialGradient id="paint10_radial_62_7338" cx="0" cy="0" r="1" gradientUnits="userSpaceOnUse" gradientTransform="translate(76.3757 80.1152) scale(2.24999)">
<stop offset="0.55" stop-color="#003CD5"/>
<stop offset="1" stop-color="#003CD5" stop-opacity="0"/>
</radialGradient>
<linearGradient id="paint11_linear_62_7338" x1="153" y1="67.12" x2="153" y2="86.78" gradientUnits="userSpaceOnUse">
<stop stop-color="#00D29D"/>
<stop offset="1" stop-color="#00A79D"/>
</linearGradient>
<clipPath id="clip0_62_7338">
<rect width="20" height="20" fill="white" transform="translate(143 67)"/>
</clipPath>
</defs>
</svg>
