<svg width="1208" height="432" viewBox="0 0 1208 432" fill="none" xmlns="http://www.w3.org/2000/svg">
<rect width="1208" height="432" fill="white"/>
<path d="M40.7955 46.6634V44.4545H52.4006V46.6634H47.9048V59H45.2912V46.6634H40.7955ZM57.7717 59.2131C56.6779 59.2131 55.7333 58.9858 54.9379 58.5312C54.1471 58.072 53.5387 57.4233 53.1126 56.5852C52.6864 55.7424 52.4734 54.7505 52.4734 53.6094C52.4734 52.4872 52.6864 51.5024 53.1126 50.6548C53.5434 49.8026 54.1448 49.1397 54.9165 48.6662C55.6883 48.188 56.5951 47.9489 57.6367 47.9489C58.3091 47.9489 58.9435 48.0578 59.5401 48.2756C60.1415 48.4886 60.6718 48.8201 61.131 49.2699C61.5951 49.7197 61.9596 50.2926 62.2248 50.9886C62.4899 51.6799 62.6225 52.5038 62.6225 53.4602V54.2486H53.6808V52.5156H60.158C60.1533 52.0232 60.0468 51.5852 59.8384 51.2017C59.6301 50.8134 59.3389 50.508 58.9648 50.2855C58.5955 50.063 58.1647 49.9517 57.6722 49.9517C57.1467 49.9517 56.685 50.0795 56.2873 50.3352C55.8896 50.5862 55.5794 50.9176 55.3569 51.3295C55.1391 51.7367 55.0278 52.1842 55.0231 52.6719V54.1847C55.0231 54.8191 55.1391 55.3636 55.3711 55.8182C55.6031 56.268 55.9274 56.6136 56.3441 56.8551C56.7608 57.0919 57.2485 57.2102 57.8072 57.2102C58.1812 57.2102 58.5198 57.1581 58.8228 57.054C59.1258 56.9451 59.3886 56.7865 59.6112 56.5781C59.8337 56.3698 60.0018 56.1117 60.1154 55.804L62.516 56.0739C62.3645 56.7083 62.0756 57.2623 61.6495 57.7358C61.2281 58.2045 60.6883 58.5691 60.0302 58.8295C59.372 59.0852 58.6192 59.2131 57.7717 59.2131ZM66.6655 48.0909L68.8672 52.1179L71.1044 48.0909H73.8246L70.5362 53.5455L73.8814 59H71.1754L68.8672 55.0724L66.5803 59H63.853L67.1768 53.5455L63.9382 48.0909H66.6655ZM81.2607 48.0909V50.0795H74.9893V48.0909H81.2607ZM76.5376 45.4773H79.1087V55.7188C79.1087 56.0644 79.1607 56.3295 79.2649 56.5142C79.3738 56.6941 79.5159 56.8172 79.6911 56.8835C79.8662 56.9498 80.0604 56.983 80.2734 56.983C80.4344 56.983 80.5812 56.9711 80.7138 56.9474C80.8511 56.9238 80.9553 56.9025 81.0263 56.8835L81.4595 58.8935C81.3222 58.9408 81.1257 58.9929 80.87 59.0497C80.6191 59.1065 80.3113 59.1397 79.9467 59.1491C79.3028 59.1681 78.7228 59.071 78.2067 58.858C77.6906 58.6402 77.281 58.304 76.978 57.8494C76.6797 57.3949 76.5329 56.8267 76.5376 56.1449V45.4773Z" fill="black"/>
<path d="M49 95V97M52 91V97M55 93V97M43 85C43 84.4696 43.2107 83.9609 43.5858 83.5858C43.9609 83.2107 44.4696 83 45 83H59C59.5304 83 60.0391 83.2107 60.4142 83.5858C60.7893 83.9609 61 84.4696 61 85V99C61 99.5304 60.7893 100.039 60.4142 100.414C60.0391 100.789 59.5304 101 59 101H45C44.4696 101 43.9609 100.789 43.5858 100.414C43.2107 100.039 43 99.5304 43 99V85Z" stroke="black" stroke-width="2" stroke-linecap="round" stroke-linejoin="round"/>
<path d="M95 95V97M98 91V97M101 93V97M91 85C91 84.4696 91.2107 83.9609 91.5858 83.5858C91.9609 83.2107 92.4696 83 93 83H107C107.53 83 108.039 83.2107 108.414 83.5858C108.789 83.9609 109 84.4696 109 85V99C109 99.5304 108.789 100.039 108.414 100.414C108.039 100.789 107.53 101 107 101H93C92.4696 101 91.9609 100.789 91.5858 100.414C91.2107 100.039 91 99.5304 91 99V85Z" stroke="black" stroke-width="2" stroke-linecap="round" stroke-linejoin="round"/>
<path d="M147 95V97M150 91V97M153 93V97M139 85C139 84.4696 139.211 83.9609 139.586 83.5858C139.961 83.2107 140.47 83 141 83H155C155.53 83 156.039 83.2107 156.414 83.5858C156.789 83.9609 157 84.4696 157 85V99C157 99.5304 156.789 100.039 156.414 100.414C156.039 100.789 155.53 101 155 101H141C140.47 101 139.961 100.789 139.586 100.414C139.211 100.039 139 99.5304 139 99V85Z" stroke="black" stroke-width="2" stroke-linecap="round" stroke-linejoin="round"/>
<path d="M195 95H197M193 92H199M194 89H198M187 99V85C187 84.4696 187.211 83.9609 187.586 83.5858C187.961 83.2107 188.47 83 189 83H203C203.53 83 204.039 83.2107 204.414 83.5858C204.789 83.9609 205 84.4696 205 85V99C205 99.5304 204.789 100.039 204.414 100.414C204.039 100.789 203.53 101 203 101H189C188.47 101 187.961 100.789 187.586 100.414C187.211 100.039 187 99.5304 187 99Z" stroke="black" stroke-width="2" stroke-linecap="round" stroke-linejoin="round"/>
<path d="M241 97H239M245 94H239M243 91H239M235 85C235 84.4696 235.211 83.9609 235.586 83.5858C235.961 83.2107 236.47 83 237 83H251C251.53 83 252.039 83.2107 252.414 83.5858C252.789 83.9609 253 84.4696 253 85V99C253 99.5304 252.789 100.039 252.414 100.414C252.039 100.789 251.53 101 251 101H237C236.47 101 235.961 100.789 235.586 100.414C235.211 100.039 235 99.5304 235 99V85Z" stroke="black" stroke-width="2" stroke-linecap="round" stroke-linejoin="round"/>
<path d="M289 95H287M293 92H287M291 89H287M283 85C283 84.4696 283.211 83.9609 283.586 83.5858C283.961 83.2107 284.47 83 285 83H299C299.53 83 300.039 83.2107 300.414 83.5858C300.789 83.9609 301 84.4696 301 85V99C301 99.5304 300.789 100.039 300.414 100.414C300.039 100.789 299.53 101 299 101H285C284.47 101 283.961 100.789 283.586 100.414C283.211 100.039 283 99.5304 283 99V85Z" stroke="black" stroke-width="2" stroke-linecap="round" stroke-linejoin="round"/>
<path d="M337 93H335M341 90H335M339 87H335M331 85C331 84.4696 331.211 83.9609 331.586 83.5858C331.961 83.2107 332.47 83 333 83H347C347.53 83 348.039 83.2107 348.414 83.5858C348.789 83.9609 349 84.4696 349 85V99C349 99.5304 348.789 100.039 348.414 100.414C348.039 100.789 347.53 101 347 101H333C332.47 101 331.961 100.789 331.586 100.414C331.211 100.039 331 99.5304 331 99V85Z" stroke="black" stroke-width="2" stroke-linecap="round" stroke-linejoin="round"/>
<path d="M391 97H393M387 94H393M389 91H393M379 85C379 84.4696 379.211 83.9609 379.586 83.5858C379.961 83.2107 380.47 83 381 83H395C395.53 83 396.039 83.2107 396.414 83.5858C396.789 83.9609 397 84.4696 397 85V99C397 99.5304 396.789 100.039 396.414 100.414C396.039 100.789 395.53 101 395 101H381C380.47 101 379.961 100.789 379.586 100.414C379.211 100.039 379 99.5304 379 99V85Z" stroke="black" stroke-width="2" stroke-linecap="round" stroke-linejoin="round"/>
<path d="M439 95H441M435 92H441M437 89H441M427 85C427 84.4696 427.211 83.9609 427.586 83.5858C427.961 83.2107 428.47 83 429 83H443C443.53 83 444.039 83.2107 444.414 83.5858C444.789 83.9609 445 84.4696 445 85V99C445 99.5304 444.789 100.039 444.414 100.414C444.039 100.789 443.53 101 443 101H429C428.47 101 427.961 100.789 427.586 100.414C427.211 100.039 427 99.5304 427 99V85Z" stroke="black" stroke-width="2" stroke-linecap="round" stroke-linejoin="round"/>
<path d="M487 93H489M483 90H489M485 87H489M475 85C475 84.4696 475.211 83.9609 475.586 83.5858C475.961 83.2107 476.47 83 477 83H491C491.53 83 492.039 83.2107 492.414 83.5858C492.789 83.9609 493 84.4696 493 85V99C493 99.5304 492.789 100.039 492.414 100.414C492.039 100.789 491.53 101 491 101H477C476.47 101 475.961 100.789 475.586 100.414C475.211 100.039 475 99.5304 475 99V85Z" stroke="black" stroke-width="2" stroke-linecap="round" stroke-linejoin="round"/>
<path d="M529 89V87M532 93V87M535 91V87M523 85C523 84.4696 523.211 83.9609 523.586 83.5858C523.961 83.2107 524.47 83 525 83H539C539.53 83 540.039 83.2107 540.414 83.5858C540.789 83.9609 541 84.4696 541 85V99C541 99.5304 540.789 100.039 540.414 100.414C540.039 100.789 539.53 101 539 101H525C524.47 101 523.961 100.789 523.586 100.414C523.211 100.039 523 99.5304 523 99V85Z" stroke="black" stroke-width="2" stroke-linecap="round" stroke-linejoin="round"/>
<path d="M575 89V87M578 93V87M581 91V87M571 85C571 84.4696 571.211 83.9609 571.586 83.5858C571.961 83.2107 572.47 83 573 83H587C587.53 83 588.039 83.2107 588.414 83.5858C588.789 83.9609 589 84.4696 589 85V99C589 99.5304 588.789 100.039 588.414 100.414C588.039 100.789 587.53 101 587 101H573C572.47 101 571.961 100.789 571.586 100.414C571.211 100.039 571 99.5304 571 99V85Z" stroke="black" stroke-width="2" stroke-linecap="round" stroke-linejoin="round"/>
<path d="M627 89V87M630 93V87M633 91V87M619 85C619 84.4696 619.211 83.9609 619.586 83.5858C619.961 83.2107 620.47 83 621 83H635C635.53 83 636.039 83.2107 636.414 83.5858C636.789 83.9609 637 84.4696 637 85V99C637 99.5304 636.789 100.039 636.414 100.414C636.039 100.789 635.53 101 635 101H621C620.47 101 619.961 100.789 619.586 100.414C619.211 100.039 619 99.5304 619 99V85Z" stroke="black" stroke-width="2" stroke-linecap="round" stroke-linejoin="round"/>
<path d="M668 86H684M672 92H680M670 98H682" stroke="black" stroke-width="2" stroke-linecap="round" stroke-linejoin="round"/>
<path d="M716 86H732M716 92H732M716 98H728" stroke="black" stroke-width="2" stroke-linecap="round" stroke-linejoin="round"/>
<path d="M764 86H780M764 92H774M764 98H778" stroke="black" stroke-width="2" stroke-linecap="round" stroke-linejoin="round"/>
<path d="M812 86H828M818 92H828M814 98H828" stroke="black" stroke-width="2" stroke-linecap="round" stroke-linejoin="round"/>
<path d="M862 90H864C864.53 90 865.039 90.2107 865.414 90.5858C865.789 90.9609 866 91.4696 866 92V97H863C862.47 97 861.961 96.7893 861.586 96.4142C861.211 96.0391 861 95.5304 861 95C861 94.4696 861.211 93.9609 861.586 93.5858C861.961 93.2107 862.47 93 863 93H866M875 87H872C871.47 87 870.961 87.2107 870.586 87.5858C870.211 87.9609 870 88.4696 870 89V95C870 95.5304 870.211 96.0391 870.586 96.4142C870.961 96.7893 871.47 97 872 97H873C873.53 97 874.039 96.7893 874.414 96.4142C874.789 96.0391 875 95.5304 875 95V92C875 91.4696 874.789 90.9609 874.414 90.5858C874.039 90.2107 873.53 90 873 90H870" stroke="black" stroke-width="2" stroke-linecap="round" stroke-linejoin="round"/>
<path d="M914 90V97M918 100V89C918 88.4696 918.211 87.9609 918.586 87.5858C918.961 87.2107 919.47 87 920 87H921C921.53 87 922.039 87.2107 922.414 87.5858C922.789 87.9609 923 88.4696 923 89V90C923 90.5304 922.789 91.0391 922.414 91.4142C922.039 91.7893 921.53 92 921 92C921.53 92 922.039 92.2107 922.414 92.5858C922.789 92.9609 923 93.4696 923 94V95C923 95.5304 922.789 96.0391 922.414 96.4142C922.039 96.7893 921.53 97 921 97M909 92C909 91.4696 909.211 90.9609 909.586 90.5858C909.961 90.2107 910.47 90 911 90H912C912.53 90 913.039 90.2107 913.414 90.5858C913.789 90.9609 914 91.4696 914 92V95C914 95.5304 913.789 96.0391 913.414 96.4142C913.039 96.7893 912.53 97 912 97H911C910.47 97 909.961 96.7893 909.586 96.4142C909.211 96.0391 909 95.5304 909 95V92Z" stroke="black" stroke-width="2" stroke-linecap="round" stroke-linejoin="round"/>
<path d="M958 90H960C960.53 90 961.039 90.2107 961.414 90.5858C961.789 90.9609 962 91.4696 962 92V97H959C958.47 97 957.961 96.7893 957.586 96.4142C957.211 96.0391 957 95.5304 957 95C957 94.4696 957.211 93.9609 957.586 93.5858C957.961 93.2107 958.47 93 959 93H962M966 87V97M966 92C966 91.4696 966.211 90.9609 966.586 90.5858C966.961 90.2107 967.47 90 968 90H969C969.53 90 970.039 90.2107 970.414 90.5858C970.789 90.9609 971 91.4696 971 92V95C971 95.5304 970.789 96.0391 970.414 96.4142C970.039 96.7893 969.53 97 969 97H968C967.47 97 966.961 96.7893 966.586 96.4142C966.211 96.0391 966 95.5304 966 95V92Z" stroke="black" stroke-width="2" stroke-linecap="round" stroke-linejoin="round"/>
<path d="M1012 92V83M1012 92L1003 89.5M1012 92L1021 89.5M1012 92L1018 100.5M1012 92L1006 100.5" stroke="black" stroke-width="2" stroke-linecap="round" stroke-linejoin="round"/>
<path d="M1060 92L1068 87.5M1060 92V101M1060 92L1052 87.5M1060 92L1068 96.5M1060 92V83M1060 92L1052 96.5" stroke="black" stroke-width="2" stroke-linecap="round" stroke-linejoin="round"/>
<path d="M1105.17 89.1701C1104.42 89.9188 1104 90.9354 1104 91.9963C1103.99 93.0572 1104.41 94.0754 1105.16 94.8271C1105.91 95.5787 1106.93 96.0021 1107.99 96.0042C1109.05 96.0062 1110.07 95.5868 1110.82 94.8381M1112 92.0001C1112 90.9392 1111.58 89.9218 1110.83 89.1716C1110.08 88.4215 1109.06 88.0001 1108 88.0001M1115.69 95.6971C1116.09 95.4821 1116.42 95.1646 1116.65 94.7779C1116.88 94.3912 1117 93.9498 1117 93.5001V92.0001C1117 90.4621 1116.61 88.9492 1115.86 87.6058C1115.11 86.2624 1114.03 85.1333 1112.72 84.3263C1111.41 83.5193 1109.92 83.0613 1108.38 82.9959C1106.85 82.9306 1105.32 83.2601 1103.94 83.9531M1101.62 85.6361C1100.15 87.1138 1099.24 89.0573 1099.04 91.1342C1098.84 93.2112 1099.37 95.2925 1100.54 97.0222C1101.7 98.7519 1103.43 100.023 1105.43 100.617C1107.43 101.211 1109.58 101.092 1111.5 100.28M1099 83.0001L1117 101" stroke="black" stroke-width="2" stroke-linecap="round" stroke-linejoin="round"/>
<path d="M1160 92.0001C1160 93.061 1159.58 94.0784 1158.83 94.8285C1158.08 95.5787 1157.06 96.0001 1156 96.0001C1154.94 96.0001 1153.92 95.5787 1153.17 94.8285C1152.42 94.0784 1152 93.061 1152 92.0001C1152 90.9392 1152.42 89.9218 1153.17 89.1717C1153.92 88.4215 1154.94 88.0001 1156 88.0001C1157.06 88.0001 1158.08 88.4215 1158.83 89.1717C1159.58 89.9218 1160 90.9392 1160 92.0001ZM1160 92.0001L1160 93.5001C1160 94.1631 1160.26 94.799 1160.73 95.2679C1161.2 95.7367 1161.84 96.0001 1162.5 96.0001C1163.16 96.0001 1163.8 95.7367 1164.27 95.2679C1164.74 94.799 1165 94.1631 1165 93.5001V92.0001C1165 90.0662 1164.38 88.1829 1163.23 86.6293C1162.08 85.0756 1160.46 83.9342 1158.61 83.3742C1156.76 82.8141 1154.77 82.8652 1152.95 83.5199C1151.13 84.1745 1149.57 85.3979 1148.5 87.0088C1147.43 88.6197 1146.91 90.5324 1147.01 92.4636C1147.11 94.3948 1147.84 96.2417 1149.07 97.7309C1150.3 99.22 1151.98 100.272 1153.86 100.731C1155.74 101.19 1157.72 101.032 1159.5 100.28" stroke="black" stroke-width="2" stroke-linecap="round" stroke-linejoin="round"/>
<path d="M52.0001 138L56.0001 142M56.0001 138L52.0001 142M60.0001 134C60.2653 134 60.5197 134.105 60.7072 134.293C60.8948 134.48 61.0001 134.735 61.0001 135V145C61.0001 145.265 60.8948 145.52 60.7072 145.707C60.5197 145.895 60.2653 146 60.0001 146H49.0001L44.0001 141C43.7542 140.725 43.6182 140.369 43.6182 140C43.6182 139.631 43.7542 139.275 44.0001 139L49.0001 134H60.0001Z" stroke="black" stroke-width="2" stroke-linecap="round" stroke-linejoin="round"/>
<path d="M102 134L109 141L107 143M98 138L93.828 142.172C93.5654 142.435 93.357 142.747 93.2149 143.09C93.0727 143.433 92.9996 143.801 92.9996 144.172C92.9996 144.544 93.0727 144.911 93.2149 145.254C93.357 145.598 93.5654 145.909 93.828 146.172C94.0906 146.435 94.4024 146.643 94.7456 146.785C95.0888 146.927 95.4566 147 95.828 147C96.1994 147 96.5672 146.927 96.9104 146.785C97.2536 146.643 97.5654 146.435 97.828 146.172L102 142M104 140L108.414 135.586C108.6 135.4 108.747 135.18 108.848 134.937C108.948 134.694 109 134.434 109 134.172C109 133.909 108.948 133.649 108.848 133.406C108.747 133.163 108.6 132.943 108.414 132.757L107.243 131.586C107.057 131.4 106.837 131.253 106.594 131.152C106.351 131.052 106.091 131 105.829 131C105.566 131 105.306 131.052 105.063 131.152C104.82 131.253 104.6 131.4 104.414 131.586L100 136M92 148L93.768 146.232M91 131L109 149" stroke="black" stroke-width="2" stroke-linecap="round" stroke-linejoin="round"/>
<path d="M150 134L157 141L153 145M140 148L141.768 146.232M141.828 146.172C142.091 146.435 142.402 146.643 142.746 146.785C143.089 146.927 143.457 147.001 143.828 147.001C144.199 147.001 144.567 146.927 144.91 146.785C145.254 146.643 145.565 146.435 145.828 146.172L156.414 135.586C156.6 135.4 156.747 135.18 156.848 134.937C156.948 134.694 157 134.434 157 134.172C157 133.909 156.948 133.649 156.848 133.406C156.747 133.163 156.6 132.943 156.414 132.757L155.243 131.586C155.057 131.4 154.837 131.253 154.594 131.152C154.351 131.052 154.091 131 153.829 131C153.566 131 153.306 131.052 153.063 131.152C152.82 131.253 152.6 131.4 152.414 131.586L141.828 142.172C141.565 142.435 141.357 142.746 141.215 143.09C141.073 143.433 140.999 143.801 140.999 144.172C140.999 144.544 141.073 144.911 141.215 145.254C141.357 145.598 141.565 145.909 141.828 146.172Z" stroke="black" stroke-width="2" stroke-linecap="round" stroke-linejoin="round"/>
<path d="M188 132H204M188 148H204" stroke="black" stroke-width="2" stroke-linecap="round" stroke-linejoin="round"/>
<path d="M236 148H252M236 140H252M236 132H252" stroke="black" stroke-width="2" stroke-linecap="round" stroke-linejoin="round"/>
<path d="M284 131H300M284 137H300M284 143H300M284 149H300" stroke="black" stroke-width="2" stroke-linecap="round" stroke-linejoin="round"/>
<path d="M332 148H348M336 144V136C336 134.939 336.421 133.922 337.172 133.172C337.922 132.421 338.939 132 340 132C341.061 132 342.078 132.421 342.828 133.172C343.579 133.922 344 134.939 344 136V144M336 138H344" stroke="black" stroke-width="2" stroke-linecap="round" stroke-linejoin="round"/>
<path d="M382 143H397M397 147H382M391 139H397M397 135H391M385 137H386C386.198 137 386.391 137.059 386.556 137.169C386.72 137.278 386.848 137.435 386.924 137.617C387 137.8 387.019 138.001 386.981 138.195C386.942 138.389 386.847 138.567 386.707 138.707C386.567 138.847 386.389 138.942 386.195 138.981C386.001 139.019 385.8 139 385.617 138.924C385.435 138.848 385.278 138.72 385.169 138.556C385.059 138.391 385 138.198 385 138V135.5C385 134.97 385.211 134.461 385.586 134.086C385.961 133.711 386.47 133.5 387 133.5M379 137H380C380.198 137 380.391 137.059 380.556 137.169C380.72 137.278 380.848 137.435 380.924 137.617C381 137.8 381.019 138.001 380.981 138.195C380.942 138.389 380.847 138.567 380.707 138.707C380.567 138.847 380.389 138.942 380.195 138.981C380.001 139.019 379.8 139 379.617 138.924C379.435 138.848 379.278 138.72 379.169 138.556C379.059 138.391 379 138.198 379 138V135.5C379 134.97 379.211 134.461 379.586 134.086C379.961 133.711 380.47 133.5 381 133.5" stroke="black" stroke-width="2" stroke-linecap="round" stroke-linejoin="round"/>
<path d="M433 133H437C437.721 133 438.425 133.223 439.015 133.638C439.605 134.053 440.052 134.641 440.295 135.32C440.538 135.999 440.565 136.737 440.373 137.432C440.181 138.127 439.779 138.746 439.222 139.204M436 140H431M431 140V135M431 140V147H438C438.641 147 439.27 146.824 439.818 146.491C440.366 146.158 440.812 145.681 441.107 145.112M427 131L445 149" stroke="black" stroke-width="2" stroke-linecap="round" stroke-linejoin="round"/>
<path d="M485 140C485.928 140 486.818 139.631 487.475 138.975C488.131 138.318 488.5 137.428 488.5 136.5C488.5 135.572 488.131 134.682 487.475 134.025C486.818 133.369 485.928 133 485 133H479V140M485 140H479M485 140H486C486.928 140 487.818 140.369 488.475 141.025C489.131 141.682 489.5 142.572 489.5 143.5C489.5 144.428 489.131 145.318 488.475 145.975C487.818 146.631 486.928 147 486 147H479V140" stroke="black" stroke-width="2" stroke-linecap="round" stroke-linejoin="round"/>
<path d="M537 143L541 147M541 143L537 147M527 134V133H538V134M527 147H531M533 133L529 147" stroke="black" stroke-width="2" stroke-linecap="round" stroke-linejoin="round"/>
<path d="M574 147C573.47 147 572.961 146.789 572.586 146.414C572.211 146.039 572 145.53 572 145V141L571 140L572 139V135C572 134.47 572.211 133.961 572.586 133.586C572.961 133.211 573.47 133 574 133M580 139.875L583 138.188M580 139.875V143.25M580 139.875L577 138.188M580 139.875L583 141.563M580 139.875V136.5M580 139.875L577 141.563M586 147C586.53 147 587.039 146.789 587.414 146.414C587.789 146.039 588 145.53 588 145V141L589 140L588 139V135C588 134.47 587.789 133.961 587.414 133.586C587.039 133.211 586.53 133 586 133" stroke="black" stroke-width="2" stroke-linecap="round" stroke-linejoin="round"/>
<path d="M624.5 141.5L623 140L624.5 138.5M631.5 138.5L633 140L631.5 141.5M629 137.5L627 143M619 140C619 141.182 619.233 142.352 619.685 143.444C620.137 144.536 620.8 145.528 621.636 146.364C622.472 147.2 623.464 147.863 624.556 148.315C625.648 148.767 626.818 149 628 149C629.182 149 630.352 148.767 631.444 148.315C632.536 147.863 633.528 147.2 634.364 146.364C635.2 145.528 635.863 144.536 636.315 143.444C636.767 142.352 637 141.182 637 140C637 138.818 636.767 137.648 636.315 136.556C635.863 135.464 635.2 134.472 634.364 133.636C633.528 132.8 632.536 132.137 631.444 131.685C630.352 131.233 629.182 131 628 131C626.818 131 625.648 131.233 624.556 131.685C623.464 132.137 622.472 132.8 621.636 133.636C620.8 134.472 620.137 135.464 619.685 136.556C619.233 137.648 619 138.818 619 140Z" stroke="black" stroke-width="2" stroke-linecap="round" stroke-linejoin="round"/>
<path d="M674 142L672 140L674 138M678 138L680 140L678 142M667 140C667 141.182 667.233 142.352 667.685 143.444C668.137 144.536 668.8 145.528 669.636 146.364C670.472 147.2 671.464 147.863 672.556 148.315C673.648 148.767 674.818 149 676 149C677.182 149 678.352 148.767 679.444 148.315C680.536 147.863 681.528 147.2 682.364 146.364C683.2 145.528 683.863 144.536 684.315 143.444C684.767 142.352 685 141.182 685 140C685 138.818 684.767 137.648 684.315 136.556C683.863 135.464 683.2 134.472 682.364 133.636C681.528 132.8 680.536 132.137 679.444 131.685C678.352 131.233 677.182 131 676 131C674.818 131 673.648 131.233 672.556 131.685C671.464 132.137 670.472 132.8 669.636 133.636C668.8 134.472 668.137 135.464 667.685 136.556C667.233 137.648 667 138.818 667 140Z" stroke="black" stroke-width="2" stroke-linecap="round" stroke-linejoin="round"/>
<path d="M727 140H727.01M724 140H724.01M721 140H721.01M718 147C717.47 147 716.961 146.789 716.586 146.414C716.211 146.039 716 145.53 716 145V141L715 140L716 139V135C716 134.47 716.211 133.961 716.586 133.586C716.961 133.211 717.47 133 718 133M730 147C730.53 147 731.039 146.789 731.414 146.414C731.789 146.039 732 145.53 732 145V141L733 140L732 139V135C732 134.47 731.789 133.961 731.414 133.586C731.039 133.211 730.53 133 730 133" stroke="black" stroke-width="2" stroke-linecap="round" stroke-linejoin="round"/>
<path d="M769 140H775M766 147C765.47 147 764.961 146.789 764.586 146.414C764.211 146.039 764 145.53 764 145V141L763 140L764 139V135C764 134.47 764.211 133.961 764.586 133.586C764.961 133.211 765.47 133 766 133M778 147C778.53 147 779.039 146.789 779.414 146.414C779.789 146.039 780 145.53 780 145V141L781 140L780 139V135C780 134.47 779.789 133.961 779.414 133.586C779.039 133.211 778.53 133 778 133" stroke="black" stroke-width="2" stroke-linecap="round" stroke-linejoin="round"/>
<path d="M815 136L811 140L815 144M825 136L829 140L826.5 142.5M822 132L820.799 136.805M819.997 140.012L817.997 148M811 131L829 149" stroke="black" stroke-width="2" stroke-linecap="round" stroke-linejoin="round"/>
<path d="M865 140H871M868 137V143M862 147C861.47 147 860.961 146.789 860.586 146.414C860.211 146.039 860 145.53 860 145V141L859 140L860 139V135C860 134.47 860.211 133.961 860.586 133.586C860.961 133.211 861.47 133 862 133M874 147C874.53 147 875.039 146.789 875.414 146.414C875.789 146.039 876 145.53 876 145V141L877 140L876 139V135C876 134.47 875.789 133.961 875.414 133.586C875.039 133.211 874.53 133 874 133" stroke="black" stroke-width="2" stroke-linecap="round" stroke-linejoin="round"/>
<path d="M911 136L907 140L911 144M921 136L925 140L921 144M918 132L914 148" stroke="black" stroke-width="2" stroke-linecap="round" stroke-linejoin="round"/>
<path d="M957 132C957 131.735 957.105 131.48 957.293 131.293C957.48 131.105 957.735 131 958 131H970C970.265 131 970.52 131.105 970.707 131.293C970.895 131.48 971 131.735 971 132V148C971 148.265 970.895 148.52 970.707 148.707C970.52 148.895 970.265 149 970 149H958C957.735 149 957.48 148.895 957.293 148.707C957.105 148.52 957 148.265 957 148V132Z" stroke="black" stroke-width="2" stroke-linecap="round" stroke-linejoin="round"/>
<path d="M1012 131V149M1003 132C1003 131.735 1003.11 131.48 1003.29 131.293C1003.48 131.105 1003.73 131 1004 131H1020C1020.27 131 1020.52 131.105 1020.71 131.293C1020.89 131.48 1021 131.735 1021 132V148C1021 148.265 1020.89 148.52 1020.71 148.707C1020.52 148.895 1020.27 149 1020 149H1004C1003.73 149 1003.48 148.895 1003.29 148.707C1003.11 148.52 1003 148.265 1003 148V132Z" stroke="black" stroke-width="2" stroke-linecap="round" stroke-linejoin="round"/>
<path d="M1057 131V149M1063 131V149M1051 132C1051 131.735 1051.11 131.48 1051.29 131.293C1051.48 131.105 1051.73 131 1052 131H1068C1068.27 131 1068.52 131.105 1068.71 131.293C1068.89 131.48 1069 131.735 1069 132V148C1069 148.265 1068.89 148.52 1068.71 148.707C1068.52 148.895 1068.27 149 1068 149H1052C1051.73 149 1051.48 148.895 1051.29 148.707C1051.11 148.52 1051 148.265 1051 148V132Z" stroke="black" stroke-width="2" stroke-linecap="round" stroke-linejoin="round"/>
<path d="M1100 134H1102M1100 138H1105.5M1100 142H1105.5M1100 146H1105.5M1110.5 134H1116M1110.5 138H1116M1114 142H1116M1110.5 146H1114M1099 131L1117 149" stroke="black" stroke-width="2" stroke-linecap="round" stroke-linejoin="round"/>
<path d="M1148 134H1153.5M1148 138H1153.5M1148 142H1153.5M1148 146H1153.5M1158.5 134H1164M1158.5 138H1164M1158.5 142H1164M1158.5 146H1164" stroke="black" stroke-width="2" stroke-linecap="round" stroke-linejoin="round"/>
<path d="M59.414 195.415C59.0389 195.79 58.5302 196 58 196H50C49.4696 196 48.9609 195.789 48.5858 195.414C48.2107 195.039 48 194.53 48 194V186C48 185.446 48.225 184.945 48.589 184.583M52 184H58C58.5304 184 59.0391 184.211 59.4142 184.586C59.7893 184.961 60 185.47 60 186V192M56 184V182C56 181.47 55.7893 180.961 55.4142 180.586C55.0391 180.211 54.5304 180 54 180H48M44.582 180.59C44.222 180.95 44 181.45 44 182V190C44 190.53 44.2107 191.039 44.5858 191.414C44.9609 191.789 45.4696 192 46 192H48M43 179L61 197" stroke="black" stroke-width="2" stroke-linecap="round" stroke-linejoin="round"/>
<path d="M104 184V182C104 181.47 103.789 180.961 103.414 180.586C103.039 180.211 102.53 180 102 180H94C93.4696 180 92.9609 180.211 92.5858 180.586C92.2107 180.961 92 181.47 92 182V190C92 190.53 92.2107 191.039 92.5858 191.414C92.9609 191.789 93.4696 192 94 192H96M96 186C96 185.47 96.2107 184.961 96.5858 184.586C96.9609 184.211 97.4696 184 98 184H106C106.53 184 107.039 184.211 107.414 184.586C107.789 184.961 108 185.47 108 186V194C108 194.53 107.789 195.039 107.414 195.414C107.039 195.789 106.53 196 106 196H98C97.4696 196 96.9609 195.789 96.5858 195.414C96.2107 195.039 96 194.53 96 194V186Z" stroke="black" stroke-width="2" stroke-linecap="round" stroke-linejoin="round"/>
<path d="M146 188H150M145 180C145.796 180 146.559 180.316 147.121 180.879C147.684 181.441 148 182.204 148 183M148 183V193M148 183C148 182.204 148.316 181.441 148.879 180.879C149.441 180.316 150.204 180 151 180M148 193C148 193.796 147.684 194.559 147.121 195.121C146.559 195.684 145.796 196 145 196M148 193C148 193.796 148.316 194.559 148.879 195.121C149.441 195.684 150.204 196 151 196" stroke="black" stroke-width="2" stroke-linecap="round" stroke-linejoin="round"/>
<path d="M200 181H192V191H200M199 186H192M190 196V196.01M194 196V196.01M198 196V196.01M202 196V196.01" stroke="black" stroke-width="2" stroke-linecap="round" stroke-linejoin="round"/>
<path d="M235 179L253 197M251 196H240.5L236.29 191.7C236.104 191.513 235.999 191.259 235.999 190.995C235.999 190.731 236.104 190.477 236.29 190.29L241.29 185.297M243.299 183.287L246.299 180.287C246.486 180.101 246.74 179.996 247.004 179.996C247.268 179.996 247.522 180.101 247.709 180.287L252.709 185.287C252.895 185.474 253 185.728 253 185.992C253 186.256 252.895 186.51 252.709 186.697C251.292 188.128 250.303 189.129 249.739 189.697M247.719 191.74L243.508 195.996M250 189.3L243.7 183" stroke="black" stroke-width="2" stroke-linecap="round" stroke-linejoin="round"/>
<path d="M299 196H288.5L284.29 191.7C284.104 191.513 283.999 191.259 283.999 190.995C283.999 190.731 284.104 190.477 284.29 190.29L294.29 180.29C294.477 180.104 294.731 179.999 294.995 179.999C295.259 179.999 295.512 180.104 295.7 180.29L300.7 185.29C300.886 185.477 300.991 185.731 300.991 185.995C300.991 186.259 300.886 186.513 300.7 186.7L291.5 196M298 189.3L291.7 183" stroke="black" stroke-width="2" stroke-linecap="round" stroke-linejoin="round"/>
<path d="M332 183H333M332 187H333M347 183H348M347 187H348M332 191H348M332 195H348M337 182C337 181.735 337.105 181.48 337.293 181.293C337.48 181.105 337.735 181 338 181H342C342.265 181 342.52 181.105 342.707 181.293C342.895 181.48 343 181.735 343 182V186C343 186.265 342.895 186.52 342.707 186.707C342.52 186.895 342.265 187 342 187H338C337.735 187 337.48 186.895 337.293 186.707C337.105 186.52 337 186.265 337 186V182Z" stroke="black" stroke-width="2" stroke-linecap="round" stroke-linejoin="round"/>
<path d="M390 183H396M390 187H396M380 191H396M380 195H396M380 182C380 181.735 380.105 181.48 380.293 181.293C380.48 181.105 380.735 181 381 181H385C385.265 181 385.52 181.105 385.707 181.293C385.895 181.48 386 181.735 386 182V186C386 186.265 385.895 186.52 385.707 186.707C385.52 186.895 385.265 187 385 187H381C380.735 187 380.48 186.895 380.293 186.707C380.105 186.52 380 186.265 380 186V182Z" stroke="black" stroke-width="2" stroke-linecap="round" stroke-linejoin="round"/>
<path d="M428 191H444M428 195H444M428 182C428 181.735 428.105 181.48 428.293 181.293C428.48 181.105 428.735 181 429 181H433C433.265 181 433.52 181.105 433.707 181.293C433.895 181.48 434 181.735 434 182V186C434 186.265 433.895 186.52 433.707 186.707C433.52 186.895 433.265 187 433 187H429C428.735 187 428.48 186.895 428.293 186.707C428.105 186.52 428 186.265 428 186V182Z" stroke="black" stroke-width="2" stroke-linecap="round" stroke-linejoin="round"/>
<path d="M476 183H482M476 187H482M476 191H492M476 195H492M486 182C486 181.735 486.105 181.48 486.293 181.293C486.48 181.105 486.735 181 487 181H491C491.265 181 491.52 181.105 491.707 181.293C491.895 181.48 492 181.735 492 182V186C492 186.265 491.895 186.52 491.707 186.707C491.52 186.895 491.265 187 491 187H487C486.735 187 486.48 186.895 486.293 186.707C486.105 186.52 486 186.265 486 186V182Z" stroke="black" stroke-width="2" stroke-linecap="round" stroke-linejoin="round"/>
<path d="M532 179C531.204 179 530.441 179.316 529.879 179.879C529.316 180.441 529 181.204 529 182M529 182V194M529 182C529 181.204 528.684 180.441 528.121 179.879C527.559 179.316 526.796 179 526 179M529 194C529 194.796 529.316 195.559 529.879 196.121C530.441 196.684 531.204 197 532 197M529 194C529 194.796 528.684 195.559 528.121 196.121C527.559 196.684 526.796 197 526 197M533 183H540C540.265 183 540.52 183.105 540.707 183.293C540.895 183.48 541 183.735 541 184V192C541 192.265 540.895 192.52 540.707 192.707C540.52 192.895 540.265 193 540 193H533M525 183H524C523.735 183 523.48 183.105 523.293 183.293C523.105 183.48 523 183.735 523 184V192C523 192.265 523.105 192.52 523.293 192.707C523.48 192.895 523.735 193 524 193H525M537 188H537.01M533 188H533.01" stroke="black" stroke-width="2" stroke-linecap="round" stroke-linejoin="round"/>
<path d="M587 194V186L585 188M572 182V194M580 182V194M579 194H581M571 194H573M572 188H580M571 182H573M579 182H581" stroke="black" stroke-width="2" stroke-linecap="round" stroke-linejoin="round"/>
<path d="M633 188C633 187.47 633.211 186.961 633.586 186.586C633.961 186.211 634.47 186 635 186C635.53 186 636.039 186.211 636.414 186.586C636.789 186.961 637 187.47 637 188C637 188.591 636.583 189.318 636.184 189.858L633 194.001H637M620 182V194M628 182V194M627 194H629M619 194H621M620 188H628M619 182H621M627 182H629" stroke="black" stroke-width="2" stroke-linecap="round" stroke-linejoin="round"/>
<path d="M681 188C681 187.604 681.117 187.218 681.337 186.889C681.557 186.56 681.869 186.304 682.235 186.152C682.6 186.001 683.002 185.961 683.39 186.038C683.778 186.116 684.135 186.306 684.414 186.586C684.694 186.865 684.884 187.222 684.962 187.61C685.039 187.998 684.999 188.4 684.848 188.765C684.696 189.131 684.44 189.443 684.111 189.663C683.782 189.883 683.396 190 683 190C683.396 190 683.782 190.117 684.111 190.337C684.44 190.557 684.696 190.869 684.848 191.235C684.999 191.6 685.039 192.002 684.962 192.39C684.884 192.778 684.694 193.135 684.414 193.414C684.135 193.694 683.778 193.884 683.39 193.962C683.002 194.039 682.6 193.999 682.235 193.848C681.869 193.696 681.557 193.44 681.337 193.111C681.117 192.782 681 192.396 681 192M668 182V194M676 182V194M675 194H677M667 194H669M668 188H676M667 182H669M675 182H677" stroke="black" stroke-width="2" stroke-linecap="round" stroke-linejoin="round"/>
<path d="M732 194V186L728 192H733M716 182V194M724 182V194M723 194H725M715 194H717M716 188H724M715 182H717M723 182H725" stroke="black" stroke-width="2" stroke-linecap="round" stroke-linejoin="round"/>
<path d="M777 194H779C779.53 194 780.039 193.789 780.414 193.414C780.789 193.039 781 192.53 781 192C781 191.47 780.789 190.961 780.414 190.586C780.039 190.211 779.53 190 779 190H777V186H781M764 182V194M772 182V194M771 194H773M763 194H765M764 188H772M763 182H765M771 182H773" stroke="black" stroke-width="2" stroke-linecap="round" stroke-linejoin="round"/>
<path d="M825 192C825 191.47 825.211 190.961 825.586 190.586C825.961 190.211 826.47 190 827 190C827.53 190 828.039 190.211 828.414 190.586C828.789 190.961 829 191.47 829 192C829 192.53 828.789 193.039 828.414 193.414C828.039 193.789 827.53 194 827 194C826.47 194 825.961 193.789 825.586 193.414C825.211 193.039 825 192.53 825 192ZM825 192V188C825 187.47 825.211 186.961 825.586 186.586C825.961 186.211 826.47 186 827 186C827.53 186 828.039 186.211 828.414 186.586C828.789 186.961 829 187.47 829 188M812 182V194M820 182V194M819 194H821M811 194H813M812 188H820M811 182H813M819 182H821" stroke="black" stroke-width="2" stroke-linecap="round" stroke-linejoin="round"/>
<path d="M863 188H868M872 188H873M863 183V195M873 181V189M873 193V195M871 195H875M871 181H875M861 195H865M859 179L877 197" stroke="black" stroke-width="2" stroke-linecap="round" stroke-linejoin="round"/>
<path d="M911 188H921M911 181V195M921 181V195M919 195H923M919 181H923M909 195H913M909 181H913" stroke="black" stroke-width="2" stroke-linecap="round" stroke-linejoin="round"/>
<path d="M961 185L955 191V195H959L965 189M967 187L969.503 184.497C970.033 183.967 970.331 183.247 970.331 182.497C970.331 181.747 970.033 181.027 969.503 180.497C969.24 180.234 968.929 180.026 968.585 179.884C968.242 179.742 967.874 179.669 967.503 179.669C966.753 179.669 966.033 179.967 965.503 180.497L963.006 182.994M964.5 181.5L968.5 185.5M956.5 189.5L960.5 193.5M971 191H973V193M971 195H965L968 192M955 179L973 197" stroke="black" stroke-width="2" stroke-linecap="round" stroke-linejoin="round"/>
<path d="M1012.5 181.5L1016.5 185.5M1004.5 189.5L1008.5 193.5M1003 195H1007L1017.5 184.5C1018.03 183.97 1018.33 183.25 1018.33 182.5C1018.33 181.75 1018.03 181.03 1017.5 180.5C1016.97 179.97 1016.25 179.672 1015.5 179.672C1014.75 179.672 1014.03 179.97 1013.5 180.5L1003 191V195ZM1021 191V195H1013L1017 191H1021Z" stroke="black" stroke-width="2" stroke-linecap="round" stroke-linejoin="round"/>
<path d="M1068 182H1061M1068 188H1059M1068 194H1061M1056 184L1052 188L1056 192" stroke="black" stroke-width="2" stroke-linecap="round" stroke-linejoin="round"/>
<path d="M1116 182H1105M1116 188H1109M1116 194H1105M1100 184L1104 188L1100 192" stroke="black" stroke-width="2" stroke-linecap="round" stroke-linejoin="round"/>
<path d="M1163 187V184C1163 183.47 1162.79 182.961 1162.41 182.586C1162.04 182.211 1161.53 182 1161 182H1149C1148.47 182 1147.96 182.211 1147.59 182.586C1147.21 182.961 1147 183.47 1147 184V189C1147 189.53 1147.21 190.039 1147.59 190.414C1147.96 190.789 1148.47 191 1149 191H1154M1161.5 193.5L1164 196M1157 191.5C1157 192.163 1157.26 192.799 1157.73 193.268C1158.2 193.737 1158.84 194 1159.5 194C1160.16 194 1160.8 193.737 1161.27 193.268C1161.74 192.799 1162 192.163 1162 191.5C1162 190.837 1161.74 190.201 1161.27 189.732C1160.8 189.263 1160.16 189 1159.5 189C1158.84 189 1158.2 189.263 1157.73 189.732C1157.26 190.201 1157 190.837 1157 191.5Z" stroke="black" stroke-width="2" stroke-linecap="round" stroke-linejoin="round"/>
<path d="M51 229H57M47 243H53M54 229L50 243" stroke="black" stroke-width="2" stroke-linecap="round" stroke-linejoin="round"/>
<path d="M104 239V235.5C104 234.837 104.263 234.201 104.732 233.732C105.201 233.263 105.837 233 106.5 233C107.163 233 107.799 233.263 108.268 233.732C108.737 234.201 109 234.837 109 235.5V239M109 237H104M91 233L94 239L97 233M97 244L103 228" stroke="black" stroke-width="2" stroke-linecap="round" stroke-linejoin="round"/>
<path d="M140 229H147M143 228C143 232.846 143 235 143.5 236M146 232.5C146 234.786 144 237 142.5 237C141 237 140 235.865 140 235C140 233 141 232 143 232C145 232 148 232.57 148 234.857C148 236.381 147.333 237.428 146 238M148 244L152 235L156 244M155.1 242H148.9" stroke="black" stroke-width="2" stroke-linecap="round" stroke-linejoin="round"/>
<path d="M189 229H195.586C195.784 229 195.977 229.059 196.141 229.169C196.306 229.278 196.434 229.435 196.51 229.617C196.585 229.8 196.605 230.001 196.567 230.195C196.528 230.389 196.433 230.567 196.293 230.707L195 232M192 232C192 233.5 192.5 235 190 237M196 244L200 235L204 244M203.1 242H196.9" stroke="black" stroke-width="2" stroke-linecap="round" stroke-linejoin="round"/>
<path d="M236 229H237M243 229H241V227M240.492 232.517C239.678 235.172 237.972 237 236 237M237 233C237 235.144 239.952 236.908 243.7 237M244 244L246.463 238.459M247.691 235.695L248 235L248.8 236.8M250 242H244.9M235 227L253 245" stroke="black" stroke-width="2" stroke-linecap="round" stroke-linejoin="round"/>
<path d="M284 229H291M289 227V229C289 233.418 286.761 237 284 237M285 233C285 235.144 287.952 236.908 291.7 237M292 244L296 235L300 244M299.1 242H292.9" stroke="black" stroke-width="2" stroke-linecap="round" stroke-linejoin="round"/>
<path d="M338 236V243M349 236V243M331 239.5C331 239.96 331.091 240.415 331.266 240.839C331.442 241.264 331.7 241.65 332.025 241.975C332.35 242.3 332.736 242.558 333.161 242.734C333.585 242.909 334.04 243 334.5 243C334.96 243 335.415 242.909 335.839 242.734C336.264 242.558 336.65 242.3 336.975 241.975C337.3 241.65 337.558 241.264 337.734 240.839C337.909 240.415 338 239.96 338 239.5C338 239.04 337.909 238.585 337.734 238.161C337.558 237.736 337.3 237.35 336.975 237.025C336.65 236.7 336.264 236.442 335.839 236.266C335.415 236.091 334.96 236 334.5 236C334.04 236 333.585 236.091 333.161 236.266C332.736 236.442 332.35 236.7 332.025 237.025C331.7 237.35 331.442 237.736 331.266 238.161C331.091 238.585 331 239.04 331 239.5ZM342 239.5C342 240.428 342.369 241.318 343.025 241.975C343.682 242.631 344.572 243 345.5 243C346.428 243 347.318 242.631 347.975 241.975C348.631 241.318 349 240.428 349 239.5C349 238.572 348.631 237.682 347.975 237.025C347.318 236.369 346.428 236 345.5 236C344.572 236 343.682 236.369 343.025 237.025C342.369 237.682 342 238.572 342 239.5Z" stroke="black" stroke-width="2" stroke-linecap="round" stroke-linejoin="round"/>
<path d="M390 243V232.5C390 231.572 390.369 230.682 391.025 230.025C391.682 229.369 392.572 229 393.5 229C394.428 229 395.318 229.369 395.975 230.025C396.631 230.682 397 231.572 397 232.5V243M390 237H397M386 236V243M379 239.5C379 239.96 379.091 240.415 379.266 240.839C379.442 241.264 379.7 241.65 380.025 241.975C380.35 242.3 380.736 242.558 381.161 242.734C381.585 242.909 382.04 243 382.5 243C382.96 243 383.415 242.909 383.839 242.734C384.264 242.558 384.65 242.3 384.975 241.975C385.3 241.65 385.558 241.264 385.734 240.839C385.909 240.415 386 239.96 386 239.5C386 239.04 385.909 238.585 385.734 238.161C385.558 237.736 385.3 237.35 384.975 237.025C384.65 236.7 384.264 236.442 383.839 236.266C383.415 236.091 382.96 236 382.5 236C382.04 236 381.585 236.091 381.161 236.266C380.736 236.442 380.35 236.7 380.025 237.025C379.7 237.35 379.442 237.736 379.266 238.161C379.091 238.585 379 239.04 379 239.5Z" stroke="black" stroke-width="2" stroke-linecap="round" stroke-linejoin="round"/>
<path d="M427 243V232.5C427 231.572 427.369 230.682 428.025 230.025C428.682 229.369 429.572 229 430.5 229C431.428 229 432.318 229.369 432.975 230.025C433.631 230.682 434 231.572 434 232.5V243M427 237H434M438 243V232.5C438 231.572 438.369 230.682 439.025 230.025C439.682 229.369 440.572 229 441.5 229C442.428 229 443.318 229.369 443.975 230.025C444.631 230.682 445 231.572 445 232.5V243M438 237H445" stroke="black" stroke-width="2" stroke-linecap="round" stroke-linejoin="round"/>
<path d="M475 243V232.5C475 231.572 475.369 230.682 476.025 230.025C476.682 229.369 477.572 229 478.5 229C479.428 229 480.318 229.369 480.975 230.025C481.631 230.682 482 231.572 482 232.5V243M475 237H482M493 236V243M486 239.5C486 240.428 486.369 241.318 487.025 241.975C487.682 242.631 488.572 243 489.5 243C490.428 243 491.318 242.631 491.975 241.975C492.631 241.318 493 240.428 493 239.5C493 238.572 492.631 237.682 491.975 237.025C491.318 236.369 490.428 236 489.5 236C488.572 236 487.682 236.369 487.025 237.025C486.369 237.682 486 238.572 486 239.5Z" stroke="black" stroke-width="2" stroke-linecap="round" stroke-linejoin="round"/>
<path d="M525 236V230.5C525 229.837 525.263 229.201 525.732 228.732C526.201 228.263 526.837 228 527.5 228C528.163 228 528.799 228.263 529.268 228.732C529.737 229.201 530 229.837 530 230.5V236M530 232H525M533 228L536 236L539 228M525 242H539M525 242L527 240M525 242L527 244M539 242L537 244M539 242L537 240" stroke="black" stroke-width="2" stroke-linecap="round" stroke-linejoin="round"/>
<path d="M571 232L574 229M574 229L577 232M574 229V243M571 240L574 243M574 243L577 240M581 230H588M581 236H588M581 242H588" stroke="black" stroke-width="2" stroke-linecap="round" stroke-linejoin="round"/>
<path d="M625 239L628 236M630 234L631 233M627 230L627.463 229.464C628.401 228.526 629.673 228 630.999 228C632.325 228 633.597 228.527 634.535 229.465C635.472 230.402 635.999 231.674 635.999 233C635.999 234.327 635.472 235.598 634.534 236.536L634 237M619 227L637 245M629 242L628.603 242.534C627.654 243.472 626.374 243.998 625.04 243.998C623.705 243.998 622.425 243.472 621.476 242.534C621.008 242.072 620.637 241.521 620.384 240.914C620.13 240.307 620 239.656 620 238.998C620 238.341 620.13 237.69 620.384 237.083C620.637 236.476 621.008 235.925 621.476 235.463L622 235" stroke="black" stroke-width="2" stroke-linecap="round" stroke-linejoin="round"/>
<path d="M673 239L679 233M675 230L675.463 229.464C676.401 228.526 677.673 228 678.999 228C680.325 228 681.597 228.527 682.535 229.465C683.472 230.402 683.999 231.674 683.999 233C683.999 234.327 683.472 235.598 682.534 236.536L682 237M677 242L676.603 242.534C675.654 243.472 674.374 243.998 673.04 243.998C671.705 243.998 670.425 243.472 669.476 242.534C669.008 242.072 668.637 241.521 668.384 240.914C668.13 240.307 668 239.656 668 238.999C668 238.341 668.13 237.69 668.384 237.083C668.637 236.476 669.008 235.925 669.476 235.463L670 235" stroke="black" stroke-width="2" stroke-linecap="round" stroke-linejoin="round"/>
<path d="M715.5 229.5L717 231L719.5 228.5M715.5 235.5L717 237L719.5 234.5M715.5 241.5L717 243L719.5 240.5M723 230H732M723 236H732M723 242H732" stroke="black" stroke-width="2" stroke-linecap="round" stroke-linejoin="round"/>
<path d="M773 229H781M773 233H778M773 239H781M773 243H778M763 229C763 228.735 763.105 228.48 763.293 228.293C763.48 228.105 763.735 228 764 228H768C768.265 228 768.52 228.105 768.707 228.293C768.895 228.48 769 228.735 769 229V233C769 233.265 768.895 233.52 768.707 233.707C768.52 233.895 768.265 234 768 234H764C763.735 234 763.48 233.895 763.293 233.707C763.105 233.52 763 233.265 763 233V229ZM763 239C763 238.735 763.105 238.48 763.293 238.293C763.48 238.105 763.735 238 764 238H768C768.265 238 768.52 238.105 768.707 238.293C768.895 238.48 769 238.735 769 239V243C769 243.265 768.895 243.52 768.707 243.707C768.52 243.895 768.265 244 768 244H764C763.735 244 763.48 243.895 763.293 243.707C763.105 243.52 763 243.265 763 243V239Z" stroke="black" stroke-width="2" stroke-linecap="round" stroke-linejoin="round"/>
<path d="M819 230H828M819 236H828M820 242H828M812 240C812 239.47 812.211 238.961 812.586 238.586C812.961 238.211 813.47 238 814 238C814.53 238 815.039 238.211 815.414 238.586C815.789 238.961 816 239.47 816 240C816 240.591 815.5 241 815 241.5L812 244H816M814 234V228L812 230" stroke="black" stroke-width="2" stroke-linecap="round" stroke-linejoin="round"/>
<path d="M874.5 242.5L877 245M860 230H876M860 236H864M860 242H864M867 239C867 240.061 867.421 241.078 868.172 241.828C868.922 242.579 869.939 243 871 243C872.061 243 873.078 242.579 873.828 241.828C874.579 241.078 875 240.061 875 239C875 237.939 874.579 236.922 873.828 236.172C873.078 235.421 872.061 235 871 235C869.939 235 868.922 235.421 868.172 236.172C867.421 236.922 867 237.939 867 239Z" stroke="black" stroke-width="2" stroke-linecap="round" stroke-linejoin="round"/>
<path d="M913 230H924M913 236H924M913 242H924M909 230V230.01M909 236V236.01M909 242V242.01" stroke="black" stroke-width="2" stroke-linecap="round" stroke-linejoin="round"/>
<path d="M961 229H971C971.53 229 972.039 229.211 972.414 229.586C972.789 229.961 973 230.47 973 231V241M971 243H957C956.47 243 955.961 242.789 955.586 242.414C955.211 242.039 955 241.53 955 241V231C954.999 230.495 955.189 230.007 955.532 229.636C955.875 229.265 956.346 229.038 956.85 229M959 239V233L961 235L962 234M963 235V239M969.5 237.5L970 237M968 236V233M955 227L973 245" stroke="black" stroke-width="2" stroke-linecap="round" stroke-linejoin="round"/>
<path d="M1007 239V233L1009 235L1011 233V239M1014 237L1016 239M1016 239L1018 237M1016 239V233M1003 231C1003 230.47 1003.21 229.961 1003.59 229.586C1003.96 229.211 1004.47 229 1005 229H1019C1019.53 229 1020.04 229.211 1020.41 229.586C1020.79 229.961 1021 230.47 1021 231V241C1021 241.53 1020.79 242.039 1020.41 242.414C1020.04 242.789 1019.53 243 1019 243H1005C1004.47 243 1003.96 242.789 1003.59 242.414C1003.21 242.039 1003 241.53 1003 241V231Z" stroke="black" stroke-width="2" stroke-linecap="round" stroke-linejoin="round"/>
<path d="M1055 233V238C1055 239.326 1055.53 240.598 1056.46 241.536C1057.4 242.473 1058.67 243 1060 243C1061.33 243 1062.6 242.473 1063.54 241.536C1064.47 240.598 1065 239.326 1065 238V233M1053 229H1067" stroke="black" stroke-width="2" stroke-linecap="round" stroke-linejoin="round"/>
<path d="M1109 228V244M1113 228V244M1115 228H1105.5C1104.31 228 1103.16 228.474 1102.32 229.318C1101.47 230.162 1101 231.307 1101 232.5C1101 233.693 1101.47 234.838 1102.32 235.682C1103.16 236.526 1104.31 237 1105.5 237H1109" stroke="black" stroke-width="2" stroke-linecap="round" stroke-linejoin="round"/>
<path d="M1154 235H1150C1149.73 235 1149.48 234.895 1149.29 234.707C1149.11 234.52 1149 234.265 1149 234V231C1149 230.735 1149.11 230.48 1149.29 230.293C1149.48 230.105 1149.73 230 1150 230M1154 234V237C1154 239.667 1152.67 241.333 1150 242M1163 235H1159M1158 234V231C1158 230.735 1158.11 230.48 1158.29 230.293C1158.48 230.105 1158.73 230 1159 230H1162C1162.27 230 1162.52 230.105 1162.71 230.293C1162.89 230.48 1163 230.735 1163 231V237C1163 237.66 1162.92 238.26 1162.75 238.798M1161.1 241.088C1160.53 241.488 1159.83 241.792 1159 242M1147 227L1165 245" stroke="black" stroke-width="2" stroke-linecap="round" stroke-linejoin="round"/>
<path d="M50 283H46C45.7348 283 45.4804 282.895 45.2929 282.707C45.1054 282.52 45 282.265 45 282V279C45 278.735 45.1054 278.48 45.2929 278.293C45.4804 278.105 45.7348 278 46 278H49C49.2652 278 49.5196 278.105 49.7071 278.293C49.8946 278.48 50 278.735 50 279V285C50 287.667 48.667 289.333 46 290M59 283H55C54.7348 283 54.4804 282.895 54.2929 282.707C54.1054 282.52 54 282.265 54 282V279C54 278.735 54.1054 278.48 54.2929 278.293C54.4804 278.105 54.7348 278 55 278H58C58.2652 278 58.5196 278.105 58.7071 278.293C58.8946 278.48 59 278.735 59 279V285C59 287.667 57.667 289.333 55 290" stroke="black" stroke-width="2" stroke-linecap="round" stroke-linejoin="round"/>
<path d="M105 279.875L108 278.188M105 279.875V283.25M105 279.875L102 278.188M105 279.875L108 281.563M105 279.875V276.5M105 279.875L102 281.563M91 275L109 293M94.5 287C95.163 287 95.7989 287.263 96.2678 287.732C96.7366 288.201 97 288.837 97 289.5C97 290.163 96.7366 290.799 96.2678 291.268C95.7989 291.737 95.163 292 94.5 292C93.837 292 93.2011 291.737 92.7322 291.268C92.2634 290.799 92 290.163 92 289.5C92 288.837 92.2634 288.201 92.7322 287.732C93.2011 287.263 93.837 287 94.5 287Z" stroke="black" stroke-width="2" stroke-linecap="round" stroke-linejoin="round"/>
<path d="M153 279.875L156 278.188M153 279.875V283.25M153 279.875L150 278.188M153 279.875L156 281.563M153 279.875V276.5M153 279.875L150 281.563M142.5 287C143.163 287 143.799 287.263 144.268 287.732C144.737 288.201 145 288.837 145 289.5C145 290.163 144.737 290.799 144.268 291.268C143.799 291.737 143.163 292 142.5 292C141.837 292 141.201 291.737 140.732 291.268C140.263 290.799 140 290.163 140 289.5C140 288.837 140.263 288.201 140.732 287.732C141.201 287.263 141.837 287 142.5 287Z" stroke="black" stroke-width="2" stroke-linecap="round" stroke-linejoin="round"/>
<path d="M188 284H204M192 280L196 276L200 280M200 288L196 292L192 288" stroke="black" stroke-width="2" stroke-linecap="round" stroke-linejoin="round"/>
<path d="M244 276V292M240 280L236 284L240 288M248 288L252 284L248 280" stroke="black" stroke-width="2" stroke-linecap="round" stroke-linejoin="round"/>
<path d="M283 284V284.01M287 284H297M301 284V284.01" stroke="black" stroke-width="2" stroke-linecap="round" stroke-linejoin="round"/>
<path d="M331 289C334.333 285.667 336 283 336 281C336 280.606 335.983 280.265 335.95 279.967M334 278C333 278 331.968 279.085 332 281C332.034 283.048 333.658 285.877 334.5 287C336 289 337 289.5 338 288L340 285C340.333 287.667 341.333 289 343 289C343.219 289 343.708 288.659 344.231 288.258M348 288C348.303 288.245 348.64 288.677 349 289M331 275L349 293" stroke="black" stroke-width="2" stroke-linecap="round" stroke-linejoin="round"/>
<path d="M379 289C382.333 285.667 384 283 384 281C384 278 383 278 382 278C381 278 379.968 279.085 380 281C380.034 283.048 381.658 285.877 382.5 287C384 289 385 289.5 386 288L388 285C388.333 287.667 389.333 289 391 289C391.53 289 393.639 287 394 287C394.517 287 395.517 287.667 397 289" stroke="black" stroke-width="2" stroke-linecap="round" stroke-linejoin="round"/>
<path d="M439 278H439.01M427 285L431 281C431.456 280.561 431.973 280.33 432.5 280.33C433.027 280.33 433.544 280.561 434 281L438 285M437 284L439 282C439.456 281.561 439.973 281.33 440.5 281.33C441.027 281.33 441.544 281.561 442 282L445 285M432 293H432.01M436 293H436.01M440 293H440.01M427 278C427 277.204 427.316 276.441 427.879 275.879C428.441 275.316 429.204 275 430 275H442C442.796 275 443.559 275.316 444.121 275.879C444.684 276.441 445 277.204 445 278V286C445 286.796 444.684 287.559 444.121 288.121C443.559 288.684 442.796 289 442 289H430C429.204 289 428.441 288.684 427.879 288.121C427.316 287.559 427 286.796 427 286V278Z" stroke="black" stroke-width="2" stroke-linecap="round" stroke-linejoin="round"/>
<path d="M483 284H485M488 287C488 287.265 488.105 287.52 488.293 287.707C488.48 287.895 488.735 288 489 288H491C491.265 288 491.52 287.895 491.707 287.707C491.895 287.52 492 287.265 492 287V281C492 280.735 491.895 280.48 491.707 280.293C491.52 280.105 491.265 280 491 280H489C488.735 280 488.48 280.105 488.293 280.293C488.105 280.48 488 280.735 488 281V283C488 283.265 488.105 283.52 488.293 283.707C488.48 283.895 488.735 284 489 284H492M476 282V286C476 286.53 476.211 287.039 476.586 287.414C476.961 287.789 477.47 288 478 288C478.53 288 479.039 287.789 479.414 287.414C479.789 287.039 480 286.53 480 286V282C480 281.47 479.789 280.961 479.414 280.586C479.039 280.211 478.53 280 478 280C477.47 280 476.961 280.211 476.586 280.586C476.211 280.961 476 281.47 476 282Z" stroke="black" stroke-width="2" stroke-linecap="round" stroke-linejoin="round"/>
<path d="M524 287C524 287.265 524.105 287.52 524.293 287.707C524.48 287.895 524.735 288 525 288H527C527.265 288 527.52 287.895 527.707 287.707C527.895 287.52 528 287.265 528 287V281C528 280.735 527.895 280.48 527.707 280.293C527.52 280.105 527.265 280 527 280H525C524.735 280 524.48 280.105 524.293 280.293C524.105 280.48 524 280.735 524 281V283C524 283.265 524.105 283.52 524.293 283.707C524.48 283.895 524.735 284 525 284H528M531 284H533M536 282V286C536 286.53 536.211 287.039 536.586 287.414C536.961 287.789 537.47 288 538 288C538.53 288 539.039 287.789 539.414 287.414C539.789 287.039 540 286.53 540 286V282C540 281.47 539.789 280.961 539.414 280.586C539.039 280.211 538.53 280 538 280C537.47 280 536.961 280.211 536.586 280.586C536.211 280.961 536 281.47 536 282Z" stroke="black" stroke-width="2" stroke-linecap="round" stroke-linejoin="round"/>
<path d="M584 280H588L584 288H588M572 288V282C572 281.47 572.211 280.961 572.586 280.586C572.961 280.211 573.47 280 574 280C574.53 280 575.039 280.211 575.414 280.586C575.789 280.961 576 281.47 576 282V288M572 285H576M579 284H581" stroke="black" stroke-width="2" stroke-linecap="round" stroke-linejoin="round"/>
<path d="M630 281L633 278M633 278L636 281M633 278V290M621 277.5C621 277.367 621.053 277.24 621.146 277.146C621.24 277.053 621.367 277 621.5 277H625.5C625.633 277 625.76 277.053 625.854 277.146C625.947 277.24 626 277.367 626 277.5V281.5C626 281.633 625.947 281.76 625.854 281.854C625.76 281.947 625.633 282 625.5 282H621.5C621.367 282 621.24 281.947 621.146 281.854C621.053 281.76 621 281.633 621 281.5V277.5ZM621 286.5C621 286.367 621.053 286.24 621.146 286.146C621.24 286.053 621.367 286 621.5 286H625.5C625.633 286 625.76 286.053 625.854 286.146C625.947 286.24 626 286.367 626 286.5V290.5C626 290.633 625.947 290.76 625.854 290.854C625.76 290.947 625.633 291 625.5 291H621.5C621.367 291 621.24 290.947 621.146 290.854C621.053 290.76 621 290.633 621 290.5V286.5Z" stroke="black" stroke-width="2" stroke-linecap="round" stroke-linejoin="round"/>
<path d="M679 282V277C679 275.62 679.62 275 681 275C682.38 275 683 275.62 683 277V282M683 279H679M683 293H679L683 286H679M668 287L671 290M671 290L674 287M671 290V278" stroke="black" stroke-width="2" stroke-linecap="round" stroke-linejoin="round"/>
<path d="M716 287L719 290M719 290L722 287M719 290V278M731 288C731 288.53 730.789 289.039 730.414 289.414C730.039 289.789 729.53 290 729 290C728.47 290 727.961 289.789 727.586 289.414C727.211 289.039 727 288.53 727 288C727 287.47 727.211 286.961 727.586 286.586C727.961 286.211 728.47 286 729 286C729.53 286 730.039 286.211 730.414 286.586C730.789 286.961 731 287.47 731 288ZM731 288V291C731 291.53 730.789 292.039 730.414 292.414C730.039 292.789 729.53 293 729 293H727.5M729 275C729.53 275 730.039 275.211 730.414 275.586C730.789 275.961 731 276.47 731 277V280C731 280.53 730.789 281.039 730.414 281.414C730.039 281.789 729.53 282 729 282C728.47 282 727.961 281.789 727.586 281.414C727.211 281.039 727 280.53 727 280V277C727 276.47 727.211 275.961 727.586 275.586C727.961 275.211 728.47 275 729 275Z" stroke="black" stroke-width="2" stroke-linecap="round" stroke-linejoin="round"/>
<path d="M764 278H771M764 284H771M764 290H773M775 281L778 278M778 278L781 281M778 278V290" stroke="black" stroke-width="2" stroke-linecap="round" stroke-linejoin="round"/>
<path d="M822 287L825 290M825 290L828 287M825 290V278M813 277.5C813 277.367 813.053 277.24 813.146 277.146C813.24 277.053 813.367 277 813.5 277H817.5C817.633 277 817.76 277.053 817.854 277.146C817.947 277.24 818 277.367 818 277.5V281.5C818 281.633 817.947 281.76 817.854 281.854C817.76 281.947 817.633 282 817.5 282H813.5C813.367 282 813.24 281.947 813.146 281.854C813.053 281.76 813 281.633 813 281.5V277.5ZM813 286.5C813 286.367 813.053 286.24 813.146 286.146C813.24 286.053 813.367 286 813.5 286H817.5C817.633 286 817.76 286.053 817.854 286.146C817.947 286.24 818 286.367 818 286.5V290.5C818 290.633 817.947 290.76 817.854 290.854C817.76 290.947 817.633 291 817.5 291H813.5C813.367 291 813.24 290.947 813.146 290.854C813.053 290.76 813 290.633 813 290.5V286.5Z" stroke="black" stroke-width="2" stroke-linecap="round" stroke-linejoin="round"/>
<path d="M871 293V288C871 286.62 871.62 286 873 286C874.38 286 875 286.62 875 288V293M875 290H871M875 282H871L875 275H871M860 287L863 290M863 290L866 287M863 290V278" stroke="black" stroke-width="2" stroke-linecap="round" stroke-linejoin="round"/>
<path d="M908 287L911 290M911 290L914 287M911 290V278M923 277C923 277.53 922.789 278.039 922.414 278.414C922.039 278.789 921.53 279 921 279C920.47 279 919.961 278.789 919.586 278.414C919.211 278.039 919 277.53 919 277C919 276.47 919.211 275.961 919.586 275.586C919.961 275.211 920.47 275 921 275C921.53 275 922.039 275.211 922.414 275.586C922.789 275.961 923 276.47 923 277ZM923 277V280C923 280.53 922.789 281.039 922.414 281.414C922.039 281.789 921.53 282 921 282H919.5M921 286C921.53 286 922.039 286.211 922.414 286.586C922.789 286.961 923 287.47 923 288V291C923 291.53 922.789 292.039 922.414 292.414C922.039 292.789 921.53 293 921 293C920.47 293 919.961 292.789 919.586 292.414C919.211 292.039 919 291.53 919 291V288C919 287.47 919.211 286.961 919.586 286.586C919.961 286.211 920.47 286 921 286Z" stroke="black" stroke-width="2" stroke-linecap="round" stroke-linejoin="round"/>
<path d="M956 278H965M956 284H963M956 290H963M967 287L970 290M970 290L973 287M970 290V278" stroke="black" stroke-width="2" stroke-linecap="round" stroke-linejoin="round"/>
<path d="M1004 280H1008L1004 288H1008M1016 288V282C1016 281.47 1016.21 280.961 1016.59 280.586C1016.96 280.211 1017.47 280 1018 280C1018.53 280 1019.04 280.211 1019.41 280.586C1019.79 280.961 1020 281.47 1020 282V288M1016 285H1020M1011 284H1013" stroke="black" stroke-width="2" stroke-linecap="round" stroke-linejoin="round"/>
<path d="M1052 282V285C1052 285.265 1052.11 285.52 1052.29 285.707C1052.48 285.895 1052.73 286 1053 286H1062M1066 286H1067C1067.27 286 1067.52 285.895 1067.71 285.707C1067.89 285.52 1068 285.265 1068 285V282M1051 275L1069 293" stroke="black" stroke-width="2" stroke-linecap="round" stroke-linejoin="round"/>
<path d="M1100 282V285C1100 285.265 1100.11 285.52 1100.29 285.707C1100.48 285.895 1100.73 286 1101 286H1115C1115.27 286 1115.52 285.895 1115.71 285.707C1115.89 285.52 1116 285.265 1116 285V282" stroke="black" stroke-width="2" stroke-linecap="round" stroke-linejoin="round"/>
<path d="M1149 284H1163M1160 278.5C1159.77 278.06 1159.25 277.672 1158.53 277.399C1157.8 277.126 1156.91 276.986 1156 277H1155C1154.07 277 1153.18 277.369 1152.53 278.025C1151.87 278.682 1151.5 279.572 1151.5 280.5C1151.5 281.428 1151.87 282.319 1152.53 282.975C1153.18 283.631 1154.07 284 1155 284H1157C1157.93 284 1158.82 284.369 1159.47 285.025C1160.13 285.682 1160.5 286.572 1160.5 287.5C1160.5 288.428 1160.13 289.319 1159.47 289.975C1158.82 290.631 1157.93 291 1157 291H1155.5C1154.59 291.014 1153.7 290.874 1152.97 290.601C1152.25 290.328 1151.73 289.94 1151.5 289.5" stroke="black" stroke-width="2" stroke-linecap="round" stroke-linejoin="round"/>
<path d="M45 327L53 337M45 337L53 327M61 340H57L60.5 336C60.6313 335.77 60.7161 335.517 60.7495 335.254C60.7829 334.992 60.7642 334.725 60.6945 334.47C60.6249 334.214 60.5056 333.975 60.3436 333.766C60.1815 333.557 59.9798 333.381 59.75 333.25C59.5202 333.119 59.2668 333.034 59.0042 333.001C58.7416 332.967 58.475 332.986 58.2197 333.055C57.9643 333.125 57.7252 333.244 57.5159 333.406C57.3066 333.568 57.1313 333.77 57 334" stroke="black" stroke-width="2" stroke-linecap="round" stroke-linejoin="round"/>
<path d="M93 327L101 337M93 337L101 327M109 331H105L108.5 327C108.631 326.77 108.716 326.517 108.749 326.254C108.783 325.992 108.764 325.725 108.695 325.47C108.625 325.214 108.506 324.975 108.344 324.766C108.182 324.557 107.98 324.381 107.75 324.25C107.286 323.985 106.735 323.915 106.22 324.055C105.704 324.196 105.265 324.536 105 325" stroke="black" stroke-width="2" stroke-linecap="round" stroke-linejoin="round"/>
<path d="M145 328V327H139V328M142 335V327M157 335L152 327M152 335L157 327M150 331H146V339H150M146 335H149" stroke="black" stroke-width="2" stroke-linecap="round" stroke-linejoin="round"/>
<path d="M188 335H204M188 340H200M188 325C188 324.735 188.105 324.48 188.293 324.293C188.48 324.105 188.735 324 189 324H193C193.265 324 193.52 324.105 193.707 324.293C193.895 324.48 194 324.735 194 325V329C194 329.265 193.895 329.52 193.707 329.707C193.52 329.895 193.265 330 193 330H189C188.735 330 188.48 329.895 188.293 329.707C188.105 329.52 188 329.265 188 329V325Z" stroke="black" stroke-width="2" stroke-linecap="round" stroke-linejoin="round"/>
<path d="M241 335V328C241 327.204 241.316 326.441 241.879 325.879C242.441 325.316 243.204 325 244 325C244.796 325 245.559 325.316 246.121 325.879C246.684 326.441 247 327.204 247 328V335M241 331H247M237 339H251" stroke="black" stroke-width="2" stroke-linecap="round" stroke-linejoin="round"/>
<path d="M284 339V328.5C284 327.572 284.369 326.682 285.025 326.025C285.682 325.369 286.572 325 287.5 325C288.428 325 289.318 325.369 289.975 326.025C290.631 326.682 291 327.572 291 328.5V339M284 333H291M301 332H295" stroke="black" stroke-width="2" stroke-linecap="round" stroke-linejoin="round"/>
<path d="M333 339H347M347 339L345 341M347 339L345 337M344 324H337.5C336.572 324 335.682 324.369 335.025 325.025C334.369 325.682 334 326.572 334 327.5C334 328.428 334.369 329.318 335.025 329.975C335.682 330.631 336.572 331 337.5 331H338M342 335V324M338 335V324" stroke="black" stroke-width="2" stroke-linecap="round" stroke-linejoin="round"/>
<path d="M392 324H385.5C384.572 324 383.682 324.369 383.025 325.025C382.369 325.682 382 326.572 382 327.5C382 328.428 382.369 329.318 383.025 329.975C383.682 330.631 384.572 331 385.5 331H386M390 335V324M386 335V324M381 339H395M381 339L383 341M381 339L383 337" stroke="black" stroke-width="2" stroke-linecap="round" stroke-linejoin="round"/>
<path d="M428 339V328.5C428 327.572 428.369 326.682 429.025 326.025C429.682 325.369 430.572 325 431.5 325C432.428 325 433.318 325.369 433.975 326.025C434.631 326.682 435 327.572 435 328.5V339M428 333H435M442 329V335M445 332H439" stroke="black" stroke-width="2" stroke-linecap="round" stroke-linejoin="round"/>
<path d="M481 335L476 330C474.633 328.633 474.633 326.367 476 325C477.367 323.633 479.633 323.633 481 325L486 330M477.5 331.5L482.5 326.5M493 332L484 341M493 332V336M493 332H489" stroke="black" stroke-width="2" stroke-linecap="round" stroke-linejoin="round"/>
<path d="M539 330H525M525 326H539M534 334H525M525 338H531M538 335V341M535 338H541" stroke="black" stroke-width="2" stroke-linecap="round" stroke-linejoin="round"/>
<path d="M572 328V326C572 325.47 572.211 324.961 572.586 324.586C572.961 324.211 573.47 324 574 324H576M572 336V338C572 338.53 572.211 339.039 572.586 339.414C572.961 339.789 573.47 340 574 340H576M584 324H586C586.53 324 587.039 324.211 587.414 324.586C587.789 324.961 588 325.47 588 326V328M584 340H586C586.53 340 587.039 339.789 587.414 339.414C587.789 339.039 588 338.53 588 338V336M580 336V329M577 329H583" stroke="black" stroke-width="2" stroke-linecap="round" stroke-linejoin="round"/>
<path d="M619 327V325H632V327M626 325V339M628 339H624M631 333V332H637V333M634 332V339M633 339H635" stroke="black" stroke-width="2" stroke-linecap="round" stroke-linejoin="round"/>
<path d="M669 335V327.5C669 326.572 669.369 325.682 670.025 325.025C670.682 324.369 671.572 324 672.5 324C673.428 324 674.318 324.369 674.975 325.025C675.631 325.682 676 326.572 676 327.5V335M669 330H676M674 338L677 341L684 334" stroke="black" stroke-width="2" stroke-linecap="round" stroke-linejoin="round"/>
<path d="M716 326H726M716 338H726M716 332H733M733 332L730 329M733 332L730 335" stroke="black" stroke-width="2" stroke-linecap="round" stroke-linejoin="round"/>
<path d="M764 326H780M764 338H769M764 332H777C777.796 332 778.559 332.316 779.121 332.879C779.684 333.441 780 334.204 780 335C780 335.796 779.684 336.559 779.121 337.121C778.559 337.684 777.796 338 777 338H773M773 338L775 336M773 338L775 340" stroke="black" stroke-width="2" stroke-linecap="round" stroke-linejoin="round"/>
<path d="M812 340H815M822 340H828M814.9 335H821.8M821 333L824 340M813 340L817.09 329.094M818.181 326.183L819 324H821L824.904 332.924M811 323L829 341" stroke="black" stroke-width="2" stroke-linecap="round" stroke-linejoin="round"/>
<path d="M860 340H863M870 340H877M862.9 335H869.8M866.2 326.3L872 340M861 340L867 324H869L876 340" stroke="black" stroke-width="2" stroke-linecap="round" stroke-linejoin="round"/>
<path d="M911 325V330C911 331.326 911.527 332.598 912.464 333.536C913.402 334.473 914.674 335 916 335C917.326 335 918.598 334.473 919.536 333.536C920.473 332.598 921 331.326 921 330V325M909 339H923" stroke="black" stroke-width="2" stroke-linecap="round" stroke-linejoin="round"/>
<path d="M969 342V340M961 335L967 329M963 326L963.463 325.464C964.401 324.526 965.673 324 966.999 324C968.325 324 969.597 324.527 970.535 325.465C971.472 326.402 971.999 327.674 971.999 329C971.999 330.327 971.472 331.598 970.534 332.536L970 333M965 338L964.603 338.534C963.654 339.472 962.374 339.998 961.04 339.998C959.705 339.998 958.425 339.472 957.476 338.534C957.008 338.072 956.637 337.521 956.384 336.914C956.13 336.307 956 335.656 956 334.998C956 334.341 956.13 333.69 956.384 333.083C956.637 332.476 957.008 331.925 957.476 331.463L958 331M972 337H974M954 327H956M959 322V324" stroke="black" stroke-width="2" stroke-linecap="round" stroke-linejoin="round"/>
<path d="M1007 323H1010C1010.53 323 1011.04 323.211 1011.41 323.586C1011.79 323.961 1012 324.47 1012 325M1012 325C1012 324.47 1012.21 323.961 1012.59 323.586C1012.96 323.211 1013.47 323 1014 323H1020C1020.27 323 1020.52 323.105 1020.71 323.293C1020.89 323.48 1021 323.735 1021 324V337M1012 325V328M1019 339H1014C1013.47 339 1012.96 339.211 1012.59 339.586C1012.21 339.961 1012 340.47 1012 341M1012 341C1012 340.47 1011.79 339.961 1011.41 339.586C1011.04 339.211 1010.53 339 1010 339H1004C1003.73 339 1003.48 338.895 1003.29 338.707C1003.11 338.52 1003 338.265 1003 338V324C1003 323.721 1003.11 323.47 1003.3 323.288M1012 341V332M1007 331H1008M1016 327H1017M1016 331H1017M1003 323L1021 341" stroke="black" stroke-width="2" stroke-linecap="round" stroke-linejoin="round"/>
<path d="M1060 325C1060 324.47 1059.79 323.961 1059.41 323.586C1059.04 323.211 1058.53 323 1058 323H1052C1051.73 323 1051.48 323.105 1051.29 323.293C1051.11 323.48 1051 323.735 1051 324V338C1051 338.265 1051.11 338.52 1051.29 338.707C1051.48 338.895 1051.73 339 1052 339H1058C1058.53 339 1059.04 339.211 1059.41 339.586C1059.79 339.961 1060 340.47 1060 341M1060 325C1060 324.47 1060.21 323.961 1060.59 323.586C1060.96 323.211 1061.47 323 1062 323H1068C1068.27 323 1068.52 323.105 1068.71 323.293C1068.89 323.48 1069 323.735 1069 324V338C1069 338.265 1068.89 338.52 1068.71 338.707C1068.52 338.895 1068.27 339 1068 339H1062C1061.47 339 1060.96 339.211 1060.59 339.586C1060.21 339.961 1060 340.47 1060 341M1060 325V341M1055 327H1056M1055 331H1056M1064 327H1065M1064 331H1065M1064 335H1065" stroke="black" stroke-width="2" stroke-linecap="round" stroke-linejoin="round"/>
<path d="M1112 327H1116M1112 336V337L1114 339M1114 339L1114.5 338.5M1114 339H1101C1100.47 339 1099.96 338.789 1099.59 338.414C1099.21 338.039 1099 337.53 1099 337C1099 336.47 1099.21 335.961 1099.59 335.586C1099.96 335.211 1100.47 335 1101 335H1105C1105.53 335 1106.04 334.789 1106.41 334.414C1106.79 334.039 1107 333.53 1107 333C1107 332.47 1106.79 331.961 1106.41 331.586C1106.04 331.211 1105.53 331 1105 331H1102M1116 336V325C1116 323.879 1115.12 323 1114 323C1112.88 323 1112 323.879 1112 325V332M1099 323L1117 341" stroke="black" stroke-width="2" stroke-linecap="round" stroke-linejoin="round"/>
<path d="M1147 339C1150.33 337 1152 335 1152 333C1152 330 1151 330 1150 330C1149 330 1147.97 331.085 1148 333C1148.03 335.048 1149.66 335.877 1150.5 337C1152 339 1153 339.5 1154 338C1154.67 337 1155.17 336.167 1155.5 335.5C1156.5 337.833 1157.83 339 1159.5 339H1162M1162 339L1160 337V336M1162 339L1162.5 338.5M1164 336V325C1164 323.879 1163.12 323 1162 323C1160.88 323 1160 323.879 1160 325V332M1160 327H1164M1147 323L1165 341" stroke="black" stroke-width="2" stroke-linecap="round" stroke-linejoin="round"/>
<path d="M43 387C46.333 385 48 383 48 381C48 378 47 378 46 378C45 378 43.968 379.085 44 381C44.034 383.048 45.658 383.877 46.5 385C48 387 49 387.5 50 386C50.667 385 51.167 384.167 51.5 383.5C52.5 385.833 53.833 387 55.5 387H58M58 387L56 385V373C56 371.879 56.879 371 58 371C59.121 371 60 371.879 60 373V385L58 387ZM56 375H60" stroke="black" stroke-width="2" stroke-linecap="round" stroke-linejoin="round"/>
<path d="M106 387L104 385V373C104 371.879 104.879 371 106 371C107.121 371 108 371.879 108 373V385L106 387ZM106 387H93C92.4696 387 91.9609 386.789 91.5858 386.414C91.2107 386.039 91 385.53 91 385C91 384.47 91.2107 383.961 91.5858 383.586C91.9609 383.211 92.4696 383 93 383H97C97.5304 383 98.0391 382.789 98.4142 382.414C98.7893 382.039 99 381.53 99 381C99 380.47 98.7893 379.961 98.4142 379.586C98.0391 379.211 97.5304 379 97 379H94M104 375H108" stroke="black" stroke-width="2" stroke-linecap="round" stroke-linejoin="round"/>
</svg>
